<svg xmlns="http://www.w3.org/2000/svg" width="50.58" height="61.97" viewBox="0 0 50.58 61.97">
  <g id="exclamation-mark" transform="translate(0)">
    <g id="Grupo_54835" data-name="Grupo 54835" transform="translate(0.908 0.908)">
      <path id="Trazado_103159" data-name="Trazado 103159" d="M91.984,7.5h-26.1A11.334,11.334,0,0,0,54.554,18.834V46.549A11.334,11.334,0,0,0,65.888,57.883h6.7A1.542,1.542,0,0,1,74,58.8l3.527,7.939a1.542,1.542,0,0,0,2.819,0L83.872,58.8a1.542,1.542,0,0,1,1.409-.916h6.7a11.334,11.334,0,0,0,11.334-11.334V18.834A11.333,11.333,0,0,0,91.984,7.5Z" transform="translate(-54.554 -7.5)" fill="#f5f5f5"/>
    </g>
    <g id="Grupo_54836" data-name="Grupo 54836" transform="translate(21.555 9.239)">
      <path id="Trazado_103160" data-name="Trazado 103160" d="M230.326,97.308h-2.9a1.12,1.12,0,0,1-1.118-1.05l-1.167-18.735a1.12,1.12,0,0,1,1.118-1.19h5.229a1.12,1.12,0,0,1,1.118,1.19l-1.167,18.735A1.12,1.12,0,0,1,230.326,97.308Zm-1.448,5.928a3.3,3.3,0,1,0,3.3,3.3A3.3,3.3,0,0,0,228.878,103.236Z" transform="translate(-225.144 -76.333)" fill="#b3009d"/>
    </g>
    <g id="Grupo_54837" data-name="Grupo 54837" transform="translate(34.707 0.908)">
      <path id="Trazado_103161" data-name="Trazado 103161" d="M337.437,7.5h-3.631A11.334,11.334,0,0,1,345.14,18.834V46.549a11.334,11.334,0,0,1-11.334,11.334h3.631a11.334,11.334,0,0,0,11.334-11.334V18.834A11.334,11.334,0,0,0,337.437,7.5Z" transform="translate(-333.806 -7.5)" fill="#ebe5ed"/>
    </g>
    <g id="Grupo_54838" data-name="Grupo 54838" transform="translate(23.474 36.142)">
      <path id="Trazado_103162" data-name="Trazado 103162" d="M242.816,298.607a3.283,3.283,0,0,0-1.815.545,3.3,3.3,0,0,1,0,5.512,3.3,3.3,0,1,0,1.815-6.057Z" transform="translate(-241 -298.607)" fill="#e600c9"/>
    </g>
    <g id="Grupo_54839" data-name="Grupo 54839" transform="translate(23.474 9.239)">
      <path id="Trazado_103163" data-name="Trazado 103163" d="M245.43,76.333H241.8a1.12,1.12,0,0,1,1.118,1.19L241.75,96.257a1.12,1.12,0,0,1-.75.987,1.113,1.113,0,0,0,.368.063h2.9a1.12,1.12,0,0,0,1.118-1.05l1.167-18.735A1.12,1.12,0,0,0,245.43,76.333Z" transform="translate(-241 -76.333)" fill="#e600c9"/>
    </g>
    <g id="Grupo_54840" data-name="Grupo 54840" transform="translate(20.647 8.331)">
      <path id="Trazado_103164" data-name="Trazado 103164" d="M223.735,91.624h-2.9a2.031,2.031,0,0,1-2.024-1.9l-1.167-18.735a2.028,2.028,0,0,1,2.024-2.154H224.9a2.028,2.028,0,0,1,2.024,2.154l-1.167,18.735A2.031,2.031,0,0,1,223.735,91.624Zm-4.062-20.975a.213.213,0,0,0-.212.226l1.167,18.735a.213.213,0,0,0,.212.2h2.9a.213.213,0,0,0,.212-.2l1.167-18.735a.212.212,0,0,0-.212-.226Z" transform="translate(-217.645 -68.834)" fill="#3c0061"/>
    </g>
    <g id="Grupo_54841" data-name="Grupo 54841" transform="translate(21.081 35.234)">
      <path id="Trazado_103165" data-name="Trazado 103165" d="M225.438,299.523a4.208,4.208,0,1,1,4.208-4.208A4.213,4.213,0,0,1,225.438,299.523Zm0-6.6a2.393,2.393,0,1,0,2.393,2.393A2.4,2.4,0,0,0,225.438,292.922Z" transform="translate(-221.23 -291.106)" fill="#3c0061"/>
    </g>
    <g id="Grupo_54842" data-name="Grupo 54842" transform="translate(0)">
      <path id="Trazado_103166" data-name="Trazado 103166" d="M85.392,0H59.3A12.255,12.255,0,0,0,47.054,12.241v6.118a.908.908,0,1,0,1.816,0V12.241A10.438,10.438,0,0,1,59.3,1.816h26.1A10.438,10.438,0,0,1,95.818,12.241V28.836a.908.908,0,1,0,1.816,0V12.241A12.255,12.255,0,0,0,85.392,0Z" transform="translate(-47.054)" fill="#3c0061"/>
      <path id="Trazado_103167" data-name="Trazado 103167" d="M96.725,184.663a.908.908,0,0,0-.908.908v7.49a10.438,10.438,0,0,1-10.426,10.426h-6.7a2.452,2.452,0,0,0-2.239,1.455l-3.527,7.939a.634.634,0,0,1-1.159,0l-3.527-7.939A2.452,2.452,0,0,0,66,203.486h-6.7A10.438,10.438,0,0,1,48.869,193.06V175.094a.908.908,0,1,0-1.816,0V193.06A12.255,12.255,0,0,0,59.294,205.3H66a.635.635,0,0,1,.58.377l3.527,7.939a2.45,2.45,0,0,0,4.478,0l3.527-7.939a.634.634,0,0,1,.58-.377h6.7a12.255,12.255,0,0,0,12.242-12.241v-7.49A.908.908,0,0,0,96.725,184.663Z" transform="translate(-47.053 -153.103)" fill="#3c0061"/>
    </g>
  </g>
</svg>
