<svg xmlns="http://www.w3.org/2000/svg" width="84.919" height="72.326" viewBox="0 0 84.919 72.326">
  <g id="Laptop_Resreach" data-name="Laptop Resreach" transform="translate(-0.003 -7.126)">
    <path id="Trazado_669115" data-name="Trazado 669115" d="M78.436,87.02H6.725a6.033,6.033,0,0,1-5.546-3.661A2.106,2.106,0,0,1,3.115,80.42H82.046a2.106,2.106,0,0,1,1.937,2.937,6.033,6.033,0,0,1-5.547,3.663Z" transform="translate(-0.116 -8.453)" fill="#d0f0ff"/>
    <path id="Trazado_669116" data-name="Trazado 669116" d="M83.982,83.464a6.025,6.025,0,0,1-5.547,3.663H6.724a6.051,6.051,0,0,1-5.556-3.663,2.1,2.1,0,0,1,.274-2.114A6.034,6.034,0,0,0,6.75,84.473H78.435a6.016,6.016,0,0,0,5.308-3.114A2.061,2.061,0,0,1,83.982,83.464Z" transform="translate(-0.115 -8.56)" fill="#aad3e7"/>
    <path id="Trazado_669117" data-name="Trazado 669117" d="M67.566,83.357a7.962,7.962,0,0,1-.3,1.009H22.828a5.768,5.768,0,0,1-.4-1.84c0-1.115.487-2.106,1.15-2.106H66.513C67.336,80.42,67.893,81.968,67.566,83.357Z" transform="translate(-2.586 -8.453)" fill="#c3eafd"/>
    <path id="Trazado_669118" data-name="Trazado 669118" d="M7.579,26.43H78.618A2.079,2.079,0,0,1,80.7,28.509V74.194H5.5V28.509A2.079,2.079,0,0,1,7.579,26.43Z" transform="translate(-0.634 -2.226)" fill="#aad3e7"/>
    <path id="Trazado_669119" data-name="Trazado 669119" d="M5.5,68.29H80.7V79.021H5.5Z" transform="translate(-0.634 -7.054)" fill="#beceea"/>
    <path id="Trazado_669120" data-name="Trazado 669120" d="M80.7,42.674V28.519a2.079,2.079,0,0,0-2.079-2.079H7.579A2.079,2.079,0,0,0,5.5,28.51V42.665Z" transform="translate(-0.634 -2.227)" fill="#92cae6"/>
    <path id="Trazado_669121" data-name="Trazado 669121" d="M44.44,26.43H62.249v3.362H44.44Z" transform="translate(-5.125 -2.226)" fill="#beceea"/>
    <path id="Trazado_669122" data-name="Trazado 669122" d="M0,0H38.988V68.058H0Z" transform="translate(76.489 27.778) rotate(90)" fill="#e2fdff"/>
    <path id="Trazado_669123" data-name="Trazado 669123" d="M9.54,30.46V69.448H77.589V30.46ZM67.8,64.14h-46.6a6.352,6.352,0,0,1-6.352-6.352V42.12a6.352,6.352,0,0,1,6.352-6.352H67.8a4.485,4.485,0,0,1,4.485,4.485v19.4A4.485,4.485,0,0,1,67.8,64.14Z" transform="translate(-1.1 -2.691)" fill="#d0f0ff"/>
    <path id="Trazado_669124" data-name="Trazado 669124" d="M58.991,35.6l-8.121,2.76,4.936-10.006C53.267,14.611,67.528,3.65,80.179,9.9A17.127,17.127,0,1,1,58.947,35.6Z" transform="translate(-5.866 -0.112)" fill="#ffc052"/>
    <path id="Trazado_669125" data-name="Trazado 669125" d="M73.752,38.556a12.651,12.651,0,0,1-10.138-5.043l-1.929-2.548-1.035.354.885-1.769-.265-1.442a12.7,12.7,0,1,1,12.474,10.43Z" transform="translate(-6.994 -0.692)" fill="#e2fdff"/>
    <path id="Trazado_669126" data-name="Trazado 669126" d="M82.1,25.695a13.2,13.2,0,0,0-2.716,6.715l-.3,2.344a1.371,1.371,0,0,1-1.362,1.2,1.345,1.345,0,0,1-1.345-1.345V30.631a2.1,2.1,0,0,0-4.193,0v3.981a1.345,1.345,0,0,1-1.345,1.345H70.4a1.371,1.371,0,0,1-1.362-1.2c-.469-3.91-.469-5.963-2.849-9.439a5.211,5.211,0,0,1,8.086-6.529A5.22,5.22,0,0,1,82.1,25.677Z" transform="translate(-7.526 -1.155)" fill="#d0f0ff"/>
    <g id="Grupo_949898" data-name="Grupo 949898" transform="translate(0.003 7.126)">
      <path id="Trazado_669127" data-name="Trazado 669127" d="M46.949,53H17.755a.885.885,0,1,0,0,1.769H46.949a.885.885,0,0,0,0-1.769Z" transform="translate(-1.948 -12.416)" fill="#302d3d"/>
      <path id="Trazado_669128" data-name="Trazado 669128" d="M69.556,53h-8.2a.885.885,0,1,0,0,1.769h8.2a.885.885,0,0,0,0-1.769Z" transform="translate(-6.976 -12.416)" fill="#302d3d"/>
      <path id="Trazado_669129" data-name="Trazado 669129" d="M46.949,60.15H17.755a.885.885,0,1,0,0,1.769H46.949a.885.885,0,1,0,0-1.769Z" transform="translate(-1.948 -13.241)" fill="#302d3d"/>
      <path id="Trazado_669130" data-name="Trazado 669130" d="M69.556,60.15h-8.2a.885.885,0,1,0,0,1.769h8.2a.885.885,0,1,0,0-1.769Z" transform="translate(-6.976 -13.241)" fill="#302d3d"/>
      <path id="Trazado_669131" data-name="Trazado 669131" d="M46.949,67.29H17.755a.885.885,0,1,0,0,1.769H46.949a.885.885,0,1,0,0-1.769Z" transform="translate(-1.948 -14.064)" fill="#302d3d"/>
      <path id="Trazado_669132" data-name="Trazado 669132" d="M69.556,67.29h-8.2a.885.885,0,1,0,0,1.769h8.2a.885.885,0,0,0,0-1.769Z" transform="translate(-6.976 -14.064)" fill="#302d3d"/>
      <path id="Trazado_669133" data-name="Trazado 669133" d="M81.93,71.083h-.982V36.262A18.012,18.012,0,1,0,48.861,23.319H6.945a2.973,2.973,0,0,0-2.964,2.964v44.8H3A2.99,2.99,0,0,0,.248,75.258a6.909,6.909,0,0,0,6.361,4.193H78.321a6.909,6.909,0,0,0,6.361-4.193,3,3,0,0,0-2.751-4.176ZM73.968,10.571a16.243,16.243,0,1,1-20.135,24.39.885.885,0,0,0-.991-.31l-6.1,2.079c4.423-8.979,4.131-8.245,4.061-8.652A16.251,16.251,0,0,1,73.95,10.553Zm1.654,30.282V65.872H9.325V28.654H48.746c-6.193,12.615-4.07,8.272-4.538,9.209a.885.885,0,0,0,1.079,1.23l7.529-2.557A18.03,18.03,0,0,0,75.6,40.853ZM5.751,26.283a1.2,1.2,0,0,1,1.194-1.194H48.764c0,.407.053,1.4.1,1.769H8.44a.885.885,0,0,0-.885.885V66.757a.885.885,0,0,0,.885.885H76.489a.885.885,0,0,0,.885-.885V39.747a17.073,17.073,0,0,0,1.769-1.486V71.083H5.751Zm77.3,48.277a5.14,5.14,0,0,1-4.733,3.123H6.609a5.14,5.14,0,0,1-4.733-3.123A1.221,1.221,0,0,1,3,72.852H81.93a1.221,1.221,0,0,1,1.124,1.707Z" transform="translate(-0.003 -7.126)" fill="#302d3d"/>
      <path id="Trazado_669134" data-name="Trazado 669134" d="M68.047,34.757a2.274,2.274,0,0,0,2.238,1.973h.442A2.229,2.229,0,0,0,72.957,34.5V30.52a1.212,1.212,0,1,1,2.424,0V34.5a2.229,2.229,0,0,0,2.229,2.229,2.265,2.265,0,0,0,2.238-1.973c.4-3.07.61-5.927,2.822-8.617a6.1,6.1,0,0,0-8.5-8.643,6.1,6.1,0,0,0-8.847,8.21c2.247,3.291,2.247,5.2,2.725,9.05Zm-1.92-13.27a4.317,4.317,0,0,1,6.662-2.813,4.308,4.308,0,0,1-1.814.708.893.893,0,1,0,.239,1.769A6.033,6.033,0,0,0,74.806,19.3a4.335,4.335,0,0,1,6.5,5.715c-2.654,3.194-2.857,6.75-3.211,9.51a.478.478,0,0,1-.947,0V30.546a2.981,2.981,0,0,0-5.963,0v3.981a.46.46,0,0,1-.46.46h-.442a.487.487,0,0,1-.478-.425c-.531-4.061-.54-6.193-3-9.829a4.37,4.37,0,0,1-.681-3.238Z" transform="translate(-7.414 -8.169)" fill="#302d3d"/>
    </g>
  </g>
</svg>
