<svg xmlns="http://www.w3.org/2000/svg" xmlns:xlink="http://www.w3.org/1999/xlink" width="205.284" height="222.353" viewBox="0 0 205.284 222.353">
  <defs>
    <clipPath id="clip-path">
      <path id="Sustracción_8" data-name="Sustracción 8" d="M205.283,216.416H0V-5.937H205.283V216.415Z" transform="translate(205.283 216.415) rotate(180)" fill="#fff" stroke="#707070" stroke-width="1"/>
    </clipPath>
    <clipPath id="clip-path-2">
      <rect id="Rectángulo_46867" data-name="Rectángulo 46867" width="168.926" height="486.181" fill="none"/>
    </clipPath>
    <clipPath id="clip-path-4">
      <rect id="Rectángulo_46839" data-name="Rectángulo 46839" width="10.722" height="13.903" fill="none"/>
    </clipPath>
    <clipPath id="clip-path-5">
      <path id="Trazado_174482" data-name="Trazado 174482" d="M68.8,25.715c.178.137.355.314.558.487.221.208.465.426.7.672a37.608,37.608,0,0,1,3.029,3.341.508.508,0,0,0,.123.164c.082.12.178.246.312.41.191.26.4.517.6.79a49.9,49.9,0,0,1,3.037,4.582c.112.191.221.383.344.588.213.394.448.787.664,1.214.232.407.451.831.67,1.279.205.383.41.793.6,1.2.189.394.394.815.588,1.241.093.2.2.435.3.653.191.435.383.872.588,1.334.175.454.366.9.555,1.381.276.711.547,1.446.82,2.2.178.5.353,1.009.533,1.542.257.776.514,1.583.763,2.4.164.56.328,1.115.478,1.692.243.858.465,1.73.681,2.627.15.618.3,1.233.437,1.845s.257,1.263.4,1.908c.12.637.243,1.3.364,1.963s.224,1.337.331,2.034c.107.681.219,1.375.314,2.086.038.355.085.722.134,1.074.1.727.18,1.465.26,2.2a133.025,133.025,0,0,1,.653,15.1c-.027,1.6-.052,3.2-.107,4.819-.014.867-.044,1.741-.085,2.627-.052,1.487-.12,2.988-.191,4.475-.066,1.225-.134,2.441-.216,3.649q-.1,1.808-.246,3.633c-.025.369-.044.724-.068,1.091-.041.353-.068.694-.1,1.05-.011.284-.038.56-.068.845-.027.437-.066.861-.093,1.3-.123,1.473-.26,2.917-.4,4.377-.079.831-.161,1.678-.243,2.509-.055.495-.093.981-.15,1.473a1.965,1.965,0,0,1-.055.41c-.011.273-.038.53-.077.806-.019.148-.03.3-.057.61a.423.423,0,0,1-.016.137c-.243,2.187-1.143,8.223-2.438,16.623-.123.752-.243,1.542-.366,2.348-.126.79-.249,1.61-.383,2.452-.262,1.665-.533,3.412-.82,5.213-.15.9-.29,1.812-.437,2.736-.189,1.206-.383,2.417-.574,3.658-.079.506-.161,1.009-.243,1.531l-.232,1.473c-.014.079-.041.175-.057.268-.175,1.173-.364,2.373-.571,3.573a.667.667,0,0,1-.027.178c0,.1-.014.167-.022.26a3.115,3.115,0,0,0-.074.421.458.458,0,0,1-.027.15c-3.012,18.849-6.583,40.9-9.56,59.094-2.572,15.82-4.691,28.717-5.549,34-.284,1.676-.435,2.591-.435,2.591a20.306,20.306,0,0,0-5.976-1.093c-.273-.027-.558-.038-.858-.068-.328-.014-.667-.027-1.02-.052-.506-.03-1.028-.041-1.572-.057-.15,0-.284-.014-.435-.014-.331-.014-.667-.014-1.009-.014A119.2,119.2,0,0,0,27,255.449c-.536.123-1.066.232-1.6.355s-1.05.26-1.58.4c1.293-6.561,15.694-84.1,16.8-88.784,3.431-14.573,5.932-21.828,7.769-32.484.519-3,.981-6.285,1.405-10.087.18-1.651.355-3.4.517-5.265a1.442,1.442,0,0,0,.014-.164L49.1,111.765l-.708-4.513-.667-4.174s-.626-3.9-.626-3.912l-.536-3.275s-.746-4.757-.763-4.773l-.164-1.061L43.05,73.8c0-.008-5.806-23.14-5.888-23.5,5.454-5.331,14.155-10.238,23.291-19.527.465-.451.9-.9,1.35-1.38,0,0,4.691-4.076,4.7-4.09l.847-.738A13.672,13.672,0,0,1,68.8,25.715" transform="translate(-23.824 -24.567)" fill="none"/>
    </clipPath>
    <linearGradient id="linear-gradient" x1="2.019" y1="1.809" x2="1.976" y2="1.809" gradientUnits="objectBoundingBox">
      <stop offset="0" stop-color="#39d1c2"/>
      <stop offset="0.003" stop-color="#39d1c2"/>
      <stop offset="1" stop-color="#29c3c1"/>
    </linearGradient>
    <clipPath id="clip-path-7">
      <path id="Trazado_174488" data-name="Trazado 174488" d="M22.866,28.32s.1.377.284,1.1c-.388-.219-.765-.421-1.126-.623-.2-.115-.407-.23-.6-.334l.5-.711.131-.183L20.2,23.954a16.707,16.707,0,0,1,2.663,4.366" transform="translate(-20.203 -23.954)" fill="none"/>
    </clipPath>
    <linearGradient id="linear-gradient-2" x1="19.741" y1="76.986" x2="18.814" y2="76.986" xlink:href="#linear-gradient"/>
    <clipPath id="clip-path-9">
      <path id="Trazado_174492" data-name="Trazado 174492" d="M15.188,28.84c.169.112.342.224.5.342,12.332,8.3,16.459,8.581,18.922,10.978a7.076,7.076,0,0,1,.719.826c.164.227.32.47.476.738a19.505,19.505,0,0,1,1.249,2.739,29.275,29.275,0,0,1,1.67,7.616A65.169,65.169,0,0,1,38.564,64.3c-.44,4.713-1.151,9.122-1.5,12.523-.484,4.74-1.67,12.657-2.485,21.6-.046.481-.093,1.5-.139,2.993-.189,6.443-.361,21.749-.224,41.172.1,15.779.4,34.269,1.036,52.918.754,22.041,1.979,44.3,3.928,62.568a24.861,24.861,0,0,0-5.582-3c-.8-.312-1.67-.618-2.608-.886a26.35,26.35,0,0,0-7.061-1.044c-.426,0-.858.005-1.3.027l-.645-17.58-.375-10.341-.008-.175-1.279-34.8-1.405-38.282-.022-.6-.038-1.17-.139-3.721-.148-3.915s-1.061-28.725-1.061-28.747c.344-7.31.413-14.379.271-21.1-.014-.785-.025-1.558-.046-2.326-.019-.566-.03-1.129-.052-1.695-.022-.634-.041-1.266-.066-1.892-.068-1.883-.153-3.726-.254-5.547-.066-1.211-.134-2.408-.216-3.595s-.159-2.351-.246-3.5c-.049-.64-.1-1.279-.148-1.911-.15-1.9-.314-3.753-.5-5.555-.005-.079-.025-.164-.025-.243-.167-1.76-.353-3.48-.541-5.147a1.256,1.256,0,0,1-.03-.23c-.109-.908-.216-1.8-.32-2.682-.156-1.323-.328-2.616-.5-3.865-.112-.831-.23-1.654-.342-2.466-.09-.637-.186-1.271-.276-1.9-.03-.156-.052-.32-.071-.476-.085-.552-.161-1.093-.249-1.624s-.164-1.061-.252-1.577c-.478-2.977-.96-5.678-1.411-8.078-.057-.29-.115-.582-.164-.864s-.115-.569-.164-.847c-.036-.183-.071-.369-.107-.547-.077-.361-.145-.711-.213-1.052-.107-.508-.205-1.009-.3-1.482-.142-.711-.287-1.378-.448-2.119-.085-.377-.164-.733-.243-1.072-.014-.071-.027-.134-.041-.2-.071-.3-.134-.593-.2-.864-.079-.336-.15-.656-.219-.946q-.053-.217-.1-.418c-.131-.541-.243-1-.336-1.367-.186-.722-.284-1.1-.284-1.1a39.693,39.693,0,0,1,5.768,3.289" transform="translate(-9.42 -25.551)" fill="none"/>
    </clipPath>
    <linearGradient id="linear-gradient-3" x1="1.865" y1="1.791" x2="1.773" y2="1.791" xlink:href="#linear-gradient"/>
    <clipPath id="clip-path-11">
      <path id="Trazado_174494" data-name="Trazado 174494" d="M76.783,33.343A13.635,13.635,0,0,1,87.613,45.131c.033.3.068.6.09.916a50.848,50.848,0,0,1,.262,5.2,52.715,52.715,0,0,1-7.772,27.547l-8,13.059-.21.339-6.293,10.27-31.134,2.16c18.665-43.673,17.736-54.269,30.658-67.7a12.528,12.528,0,0,1,9.048-3.827,12.74,12.74,0,0,1,2.523.251" transform="translate(-34.553 -33.092)" fill="none"/>
    </clipPath>
    <linearGradient id="linear-gradient-4" x1="2.768" y1="5.533" x2="2.717" y2="5.533" gradientUnits="objectBoundingBox">
      <stop offset="0" stop-color="#66e1b3"/>
      <stop offset="0.003" stop-color="#66e1b3"/>
      <stop offset="1" stop-color="#3cc9d2"/>
    </linearGradient>
    <clipPath id="clip-path-13">
      <rect id="Rectángulo_46848" data-name="Rectángulo 46848" width="1.925" height="9.994" fill="none"/>
    </clipPath>
    <clipPath id="clip-path-14">
      <rect id="Rectángulo_46850" data-name="Rectángulo 46850" width="0.27" height="0.355" fill="none"/>
    </clipPath>
    <clipPath id="clip-path-15">
      <path id="Trazado_174505" data-name="Trazado 174505" d="M29.006,26.693c.085.12.175.241.268.355-.079-.12-.178-.241-.268-.355" transform="translate(-29.006 -26.693)" fill="none"/>
    </clipPath>
    <linearGradient id="linear-gradient-5" x1="296.981" y1="1162.545" x2="286.777" y2="1162.545" xlink:href="#linear-gradient"/>
    <clipPath id="clip-path-16">
      <rect id="Rectángulo_46851" data-name="Rectángulo 46851" width="2.264" height="6.134" fill="none"/>
    </clipPath>
    <clipPath id="clip-path-17">
      <path id="Trazado_174508" data-name="Trazado 174508" d="M20.411,25.6l.1-.123s0,.208-.1.123" transform="translate(-20.411 -25.475)" fill="none"/>
    </clipPath>
    <linearGradient id="linear-gradient-6" x1="567.983" y1="2000.537" x2="540.205" y2="2000.537" xlink:href="#linear-gradient"/>
    <clipPath id="clip-path-19">
      <rect id="Rectángulo_46855" data-name="Rectángulo 46855" width="6.709" height="116.153" fill="none"/>
    </clipPath>
    <clipPath id="clip-path-20">
      <rect id="Rectángulo_46859" data-name="Rectángulo 46859" width="14.277" height="6.946" fill="none"/>
    </clipPath>
    <clipPath id="clip-path-21">
      <rect id="Rectángulo_46861" data-name="Rectángulo 46861" width="4.205" height="4.207" fill="none"/>
    </clipPath>
    <clipPath id="clip-path-22">
      <rect id="Rectángulo_46862" data-name="Rectángulo 46862" width="17.843" height="36.768" fill="none"/>
    </clipPath>
    <clipPath id="clip-path-23">
      <path id="Trazado_174528" data-name="Trazado 174528" d="M73.975,39.015c2.3,4,7.616,9.97,18.638,9.464L81.075,76.573l-2.034,4.973L71.6,99.656a42.17,42.17,0,0,1-20.03,21.656c-.153.074-.314.153-.47.221a13.272,13.272,0,0,1-15.872-3.819,16.085,16.085,0,0,1-3.45-11.006l.128-2.061.019-.142A25.526,25.526,0,0,1,35.876,92.6L49.908,70.712l6.17-9.633L72.434,35.565a16.517,16.517,0,0,0,1.542,3.45" transform="translate(-31.743 -35.565)" fill="none"/>
    </clipPath>
    <linearGradient id="linear-gradient-7" x1="2.424" y1="4.455" x2="2.379" y2="4.455" xlink:href="#linear-gradient-4"/>
    <clipPath id="clip-path-25">
      <rect id="Rectángulo_46865" data-name="Rectángulo 46865" width="42.234" height="87.155" fill="none"/>
    </clipPath>
  </defs>
  <g id="Enmascarar_grupo_70" data-name="Enmascarar grupo 70" transform="translate(0 0.001)" clip-path="url(#clip-path)">
    <g id="Grupo_156518" data-name="Grupo 156518" transform="translate(8.719 3.804)">
      <g id="Grupo_156517" data-name="Grupo 156517" clip-path="url(#clip-path-2)">
        <g id="Grupo_156466" data-name="Grupo 156466">
          <g id="Grupo_156465" data-name="Grupo 156465" clip-path="url(#clip-path-2)">
            <path id="Trazado_174466" data-name="Trazado 174466" d="M3.5,149.692H68.5a2.46,2.46,0,0,0,2.46-2.458V100.142a2.458,2.458,0,0,0-2.46-2.455H3.5a2.454,2.454,0,0,0-2.452,2.455v47.093A2.456,2.456,0,0,0,3.5,149.692" transform="translate(95.111 169.356)" fill="#9a3d5a"/>
            <path id="Trazado_174467" data-name="Trazado 174467" d="M4.1,144.458s23.373-.169,63.172,0V98.732c-26.73,0-65.676,4.207-65.676,4.207Z" transform="translate(97.306 171.168)" fill="#cff6ff"/>
            <path id="Trazado_174468" data-name="Trazado 174468" d="M64.764,98.733c-26.73,0-63.172,10.659-63.172,10.659v45.726s23.37-10.831,63.172-10.659Z" transform="translate(99.81 171.169)" fill="#ebfffe"/>
            <path id="Trazado_174469" data-name="Trazado 174469" d="M0,119.317H8.321l.38-15.8H0Z" transform="translate(160.226 179.472)" fill="#2b5178"/>
            <rect id="Rectángulo_46836" data-name="Rectángulo 46836" width="3.581" height="37.336" transform="translate(152.196 273.347)" fill="#cff6ff"/>
            <rect id="Rectángulo_46837" data-name="Rectángulo 46837" width="3.581" height="37.336" transform="translate(138.665 275.766)" fill="#cff6ff"/>
            <rect id="Rectángulo_46838" data-name="Rectángulo 46838" width="3.576" height="37.334" transform="translate(125.131 278.185)" fill="#cff6ff"/>
            <path id="Trazado_174470" data-name="Trazado 174470" d="M17.02,94.85l3.114,13.163a1.265,1.265,0,0,1,0,.536l-2.214,10.158a1.211,1.211,0,0,1-2.392-.191L15,108.7a1.206,1.206,0,0,0-.675-1.022l-5.855-2.854a1.205,1.205,0,0,1-.681-1.085v-6.99a1.213,1.213,0,0,1,.932-1.175l6.848-1.616a1.208,1.208,0,0,1,1.454.9" transform="translate(127.478 162.825)" fill="#feb396"/>
            <path id="Trazado_174471" data-name="Trazado 174471" d="M24.852,33.092s5.459,13.029,3.3,89.311c2.9,25.262,2.023,66.4.394,78.281-10.33,5.355-15.492,2.135-15.492,2.135s-1.629-13.3-1.528-14.937-2.075-69.577-2.075-69.577-1.085-14.95-1.359-16.036,8.155-67.456,8.155-67.456Z" transform="translate(116.77 57.37)" fill="#2aa1a7"/>
            <path id="Trazado_174472" data-name="Trazado 174472" d="M12.465,247.741c.1,3.324.257,6.662.44,10.016,1.449,26.057,4.973,53.066,3.688,80.629H35.25L50.373,217.939,52.2,212.98a10.245,10.245,0,0,0,.4-5.645l-.724-3.354c.413-7.884.705-14.844.91-21.219.055-1.81.112-3.576.156-5.3q.062-2.534.109-4.959c.052-2.742.09-5.4.12-7.985.052-5.353.052-10.448.022-15.511,0-.44-.005-.886-.005-1.329-.068-10.418-.262-20.836-.333-33.435-.005-.9-.014-1.823-.014-2.753-.005-.56-.005-1.151-.005-1.747-.005-1.536-.005-3.1-.005-4.7,0-.358,0-.713-.008-1.069v-.566q-.033-3.834-.164-7.116c-.112-2.9-.273-5.462-.467-7.734-.131-1.572-.271-2.991-.421-4.281-.582-4.9.446-12.195.1-13.209-.241-.724-1.719-.929-3.51-.888-.077,0-.164.008-.249.008a40.986,40.986,0,0,0-4.688.484c-.32.046-.61.1-.875.139-.894.142-1.473.257-1.473.257L39.6,70.86,32.358,69.8l-5.935,3.83-.23.629c0,.011-.074.235-.074.235L23.26,82.557l-7.611,21.5s-1.531,14.39-2.515,35.532c-.074,1.575-.145,3.19-.213,4.833-.342,8.595-.585,18.127-.6,28.135-.014,3.31.008,6.684.066,10.087l.041,2.578c.036,1.719.082,3.444.12,5.18.03.943.057,1.889.093,2.832s.063,1.889.1,2.84c.082,1.933.161,3.884.268,5.831.191,3.991.448,7.99.749,11.968a213.818,213.818,0,0,0-1.3,33.867" transform="translate(82.04 121.013)" fill="#1d345e"/>
            <path id="Trazado_174473" data-name="Trazado 174473" d="M19.681,344.8l3.354-.057,12.1-.169,2.14-.036s28.206-78.153,47.3-150.089q1.279-4.793,2.5-9.551c.353-1.4.708-2.8,1.055-4.193,1.416-4.035,2.723-7.9,3.953-11.626,2.824-8.649,5.188-16.558,7.307-24.073.467-1.632.908-3.237,1.35-4.833.459-1.657.9-3.3,1.342-4.918.623-2.31,1.236-4.6,1.832-6.878.733-2.756,1.449-5.495,2.173-8.245.049-.2.107-.4.164-.61.309-1.219.64-2.452.965-3.688.071-.262.134-.522.216-.793,1.184-4.491,2.4-9.021,3.7-13.69.082-.29.167-.574.246-.864.148-.514.282-1,.416-1.479h3.19l.293-1.454.681-3.417.169-.853,2.627-13.113.145-.722.659-3.341-5.924-1.088-.965-.178-8.31-1.525-3.324-.612-3.885-.716L88.7,70.445l-5.3-.981S69.729,83.089,67.545,88.2A157.781,157.781,0,0,0,61.585,104.5c-5.361,17.422-7.463,34.327-10.694,54.331-.968,5.951-2.034,12.178-3.313,18.786-.074.454-.169.91-.254,1.356-.055.262-.107.533-.156.8C39.563,218.126,33.7,253.775,19.946,343.128c-.1.574-.183,1.124-.265,1.676" transform="translate(-4.419 120.427)" fill="#2b5178"/>
            <path id="Trazado_174474" data-name="Trazado 174474" d="M26.056,23.754l-4.177-.763s-.262,2.078-.246,2.425a6.424,6.424,0,0,0,.325,1.627c.219.626.2.97.932,1.115a3.68,3.68,0,0,0,1.517-.079,1.931,1.931,0,0,0,.29-.877,28.824,28.824,0,0,1,1.359-3.447" transform="translate(83.736 39.859)" fill="#2aa1a7"/>
            <path id="Trazado_174475" data-name="Trazado 174475" d="M22.438,39.453l19.543-1.036c2.895,5.765,3.13,8.406,3.13,8.406a64.507,64.507,0,0,0-.689-8.362l-.61-5.582c-8.789-.027-16.235-9.584-18-12.438a3.576,3.576,0,0,1-.533-1.717l-.115-2.083-.544.156-1.26,13.064-.6,6.126-.033.394Z" transform="translate(62.478 28.85)" fill="#ffb598"/>
            <path id="Trazado_174476" data-name="Trazado 174476" d="M17.391,21.289c.705,5.134,6.058,12.933,6.058,12.933l1.214,2.329a25.116,25.116,0,0,0,5.519,3.056,26.234,26.234,0,0,0,2.209-3.849s5.131-3.168.577-9.573l11.1-1.394c.744-.085,1.545-.823,1.219-1.449-1.165-2.236.385-2.561,1.052-2.378,10.125,2.764,13.187-1.963,13.444-2.4a79.7,79.7,0,0,1,2.091,11.752c1.916-5.429,2.526-9.437,2.373-12.4-.478-8.986-8.04-8.368-8.04-8.368s-1.4-7-7.056-8.685c-16.44-4.9-21.908,12.7-21.908,12.7s-10.981-.506-9.855,7.731" transform="translate(57.336 0.001)" fill="#6c2a36"/>
            <path id="Trazado_174477" data-name="Trazado 174477" d="M17.924,30.3c.055.156.107.309.159.467a4.163,4.163,0,0,0,2.012.26l.249,4.784a3.557,3.557,0,0,0,.533,1.725,34.823,34.823,0,0,0,7.1,7.889c2.857,2.315,6.342,4.267,10.109,4.521.262.016.519.027.8.027.219,0,.437-.011.672-.027,5.735-.3,12.217-7.121,12.895-20.363a52.821,52.821,0,0,0-.651-11.022c-.312-2.9-.741-5.5-1.129-7.509-.055-.314-.118-.615-.172-.9-.426-2.121-.765-3.379-.765-3.379-.287.465-3.354,5.2-13.466,2.427-.672-.178-2.22.131-1.052,2.378.325.626-.481,1.364-1.219,1.446l-1.219.153-9.879,1.247c4.546,6.4-.585,9.565-.585,9.565,0,.016-.169.394-.481.992a25.438,25.438,0,0,1-1.73,2.854,12.316,12.316,0,0,1-2.171,2.46" transform="translate(67.418 11.754)" fill="#ffb598"/>
            <path id="Trazado_174478" data-name="Trazado 174478" d="M29.331,20.523a8.5,8.5,0,0,0,4.47,4.694,4.289,4.289,0,0,0,.61.18,3.308,3.308,0,0,0,.845.118,3.737,3.737,0,0,0,.56-.027,3.777,3.777,0,0,0,.921-.26,3.543,3.543,0,0,0,1.159-.806,4.736,4.736,0,0,0,.689-1.025,6.094,6.094,0,0,0,.61-2.4,9.754,9.754,0,0,0-.09-1.938c-.038-.208-.079-.416-.131-.626a8.715,8.715,0,0,0-.457-1.468c-.011-.049-.025-.077-.036-.131-.038-.077-.066-.142-.1-.219a3.9,3.9,0,0,0-.189-.388c-.09-.2-.205-.4-.309-.6a3.224,3.224,0,0,0-.273-.454c-.142-.246-.312-.481-.467-.7a11.373,11.373,0,0,0-.779-.91c-1.651-1.662-3.7-2.392-5.394-1.662a3.9,3.9,0,0,0-2.031,2.192,8.656,8.656,0,0,0,.394,6.435" transform="translate(51.839 20.132)" fill="#ffb598"/>
            <g id="Grupo_156464" data-name="Grupo 156464" transform="translate(80.329 31.743)" opacity="0.25">
              <g id="Grupo_156463" data-name="Grupo 156463">
                <g id="Grupo_156462" data-name="Grupo 156462" clip-path="url(#clip-path-4)">
                  <path id="Trazado_174479" data-name="Trazado 174479" d="M29.331,20.523a8.5,8.5,0,0,0,4.47,4.694,4.289,4.289,0,0,0,.61.18,3.308,3.308,0,0,0,.845.118,3.737,3.737,0,0,0,.56-.027,3.777,3.777,0,0,0,.921-.26,3.543,3.543,0,0,0,1.159-.806,4.736,4.736,0,0,0,.689-1.025,6.094,6.094,0,0,0,.61-2.4,9.754,9.754,0,0,0-.09-1.938c-.038-.208-.079-.416-.131-.626a8.715,8.715,0,0,0-.457-1.468c-.011-.049-.025-.077-.036-.131-.038-.077-.066-.142-.1-.219a3.9,3.9,0,0,0-.189-.388c-.09-.2-.205-.4-.309-.6a3.224,3.224,0,0,0-.273-.454c-.142-.246-.312-.481-.467-.7a11.373,11.373,0,0,0-.779-.91c-1.651-1.662-3.7-2.392-5.394-1.662a3.9,3.9,0,0,0-2.031,2.192,8.656,8.656,0,0,0,.394,6.435" transform="translate(-28.49 -11.611)" fill="#f7927e"/>
                </g>
              </g>
            </g>
            <path id="Trazado_174480" data-name="Trazado 174480" d="M29.208,15.477a2.9,2.9,0,0,1,2.05-1.072,6.241,6.241,0,0,1,3.589,1.219A10.01,10.01,0,0,0,31.1,12.461a.212.212,0,0,1-.112-.284.224.224,0,0,1,.29-.112c.148.066,3.636,1.651,4.661,4.811a6.537,6.537,0,0,1-.82,5.415.217.217,0,0,1-.175.107c-.224-.09-.262-.221-.2-.325a6.125,6.125,0,0,0,.782-5.06,4.6,4.6,0,0,0-.183-.481c-.293-.246-2.217-1.791-3.991-1.7a2.513,2.513,0,0,0-1.812.924.215.215,0,0,1-.306.025.217.217,0,0,1-.025-.306" transform="translate(53.009 20.886)" fill="#f7927e"/>
            <path id="Trazado_174481" data-name="Trazado 174481" d="M22.438,22.728l.107,1.946.2,3.824.109,2.1.077,1.329,6.8,2c.014.005,3.31.973,3.31.973l5.738.539,2.777.257,1.293.12,3.04.284,1.8.169s-.008-.063-.027-.183c-.008-.041-.014-.107-.03-.172a17.425,17.425,0,0,0-.7-2.531c-.044-.131-.09-.26-.137-.385-.033-.093-.06-.18-.1-.271-.109-.29-.23-.61-.364-.943a1.757,1.757,0,0,0-.066-.167c-.068-.161-.139-.339-.219-.517-.1-.235-.2-.476-.312-.733a2.517,2.517,0,0,0-.107-.235c-.079-.178-.156-.35-.241-.533-.241-.544-.528-1.118-.831-1.73-.328-.648-.683-1.323-1.074-2.048-4.027-.068-8.152-.022-11.648-.175-.5-.022-.981-.052-1.452-.082-.131-.005-.273-.022-.41-.03-.424-.033-.845-.068-1.244-.109q-.242-.02-.476-.049c-.446-.052-.872-.109-1.279-.18-.309-.049-.574-.1-.823-.153s-.467-.107-.672-.167c-1.648-.467-2.739-1.077-2.982-1.894a.859.859,0,0,1-.052-.249" transform="translate(59.908 39.403)" fill="#e3f8f6"/>
          </g>
        </g>
        <g id="Grupo_156468" data-name="Grupo 156468" transform="translate(39.985 67.158)">
          <g id="Grupo_156467" data-name="Grupo 156467" clip-path="url(#clip-path-5)">
            <rect id="Rectángulo_46841" data-name="Rectángulo 46841" width="63.861" height="231.634" transform="translate(0 0)" fill="url(#linear-gradient)"/>
          </g>
        </g>
        <g id="Grupo_156470" data-name="Grupo 156470">
          <g id="Grupo_156469" data-name="Grupo 156469" clip-path="url(#clip-path-2)">
            <path id="Trazado_174483" data-name="Trazado 174483" d="M30.394,24.784l.055.361c.243.82,1.337,1.432,2.909,1.873l.533-5.538c0-.005-3.5.664-3.5,3.3" transform="translate(51.949 37.237)" fill="#2aa1a7"/>
            <path id="Trazado_174484" data-name="Trazado 174484" d="M21.634,24.323q.262,1.341.454,2.633c.036.251.068.5.107.746a65.8,65.8,0,0,1,.582,7.613L23,35.154c-.128-1.257.6-3.2.839-4.7.025-.15.041-.287.055-.432.057-.7.142-1.38.227-2.031.334-2.477.787-4.478.847-4.718A20.09,20.09,0,0,1,21.8,24.29c-.057.016-.112.022-.161.033" transform="translate(84.815 40.353)" fill="#e3f8f6"/>
            <path id="Trazado_174485" data-name="Trazado 174485" d="M20.6,24.333l.224.577.97,2.425.134.339.3.754.637,1.61.093.235.279.694.539,1.364.164.413,2.187-3.1.5-.708.134-.186L24.906,25.14l-.957-1.87a18.092,18.092,0,0,1-3.182,1.036,1.462,1.462,0,0,1-.164.027" transform="translate(85.846 40.342)" fill="#fff"/>
            <path id="Trazado_174486" data-name="Trazado 174486" d="M23.974,22.82l.085,1.736.186,3.778.85-.733a13.756,13.756,0,0,1,1.4,1.1c.213.189.4.358.6.544s.457.418.7.659a38.962,38.962,0,0,1,3.018,3.343.758.758,0,0,0,.128.164c.093.115.189.235.282.361.038.046,3.3.968,3.3.968l6.159,1.741,2.061.58.3-1.525.126-.67.968-4.932.418-2.149.416-2.124c-4.029-.06-8.157-.022-11.651-.175-.5-.022-.979-.052-1.449-.082-.137-.005-.279-.016-.416-.022-.424-.038-.842-.077-1.241-.115-.161-.016-.32-.03-.478-.052-.446-.052-.869-.115-1.274-.178-.314-.057-.574-.109-.826-.156s-.47-.107-.672-.167c-1.651-.465-2.736-1.077-2.985-1.894" transform="translate(58.424 39.562)" fill="#fff"/>
            <path id="Trazado_174487" data-name="Trazado 174487" d="M23.824,32.714l12.586,12L30.043,50.5a152.426,152.426,0,0,1,8.688,17.32c.23.56.476,1.134.722,1.706a139.942,139.942,0,0,1,7.8,24.412,94.7,94.7,0,0,1,1.678,10.773c.109,1.088.191,2.179.232,3.259.041.506.068,1,.082,1.5a68.168,68.168,0,0,1-.205,8.021.97.97,0,0,1-.011.178c.036-.328.066-.67.107-1,.014-.219.041-.437.052-.656.085-.831.167-1.678.246-2.509.137-1.457.276-2.9.4-4.377.025-.437.066-.858.093-1.3.03-.282.055-.558.068-.842.027-.355.055-.7.093-1.052s.044-.722.071-1.088q.144-1.825.246-3.63c.082-1.214.148-2.427.216-3.652.071-1.487.139-2.988.191-4.475.041-.886.071-1.76.082-2.63.055-1.613.082-3.22.109-4.817a132.988,132.988,0,0,0-.656-15.1c-.077-.735-.159-1.471-.26-2.2-.049-.355-.093-.722-.131-1.074-.1-.711-.208-1.405-.317-2.086-.107-.7-.219-1.364-.328-2.034s-.246-1.326-.366-1.963c-.137-.642-.271-1.282-.394-1.908-.139-.615-.29-1.227-.437-1.845-.216-.9-.437-1.771-.681-2.63-.153-.574-.314-1.132-.478-1.689-.249-.82-.506-1.624-.763-2.4-.18-.533-.355-1.039-.536-1.545-.271-.746-.544-1.482-.817-2.192-.191-.478-.38-.927-.558-1.381-.205-.462-.4-.9-.585-1.334-.1-.221-.208-.451-.3-.656-.191-.424-.4-.845-.588-1.238-.189-.41-.394-.82-.6-1.2-.219-.448-.44-.875-.67-1.279-.219-.426-.451-.82-.667-1.214-.123-.208-.232-.4-.344-.588-.828-1.378-1.646-2.633-2.438-3.737-.2-.287-.41-.571-.6-.845-.205-.276-.41-.53-.6-.793-.131-.161-.23-.287-.312-.407a.55.55,0,0,1-.123-.164c-1.227-1.569-2.466-3.163-3.546-4.557-.232-.3-.476-.6-.694-.886-1.35-1.747-2.345-3.029-2.52-3.245-.03-.041-5.661,5.333-5.866,9.248Z" transform="translate(52.789 40.663)" fill="#71dcd1"/>
          </g>
        </g>
        <g id="Grupo_156472" data-name="Grupo 156472" transform="translate(110.751 65.482)">
          <g id="Grupo_156471" data-name="Grupo 156471" clip-path="url(#clip-path-7)">
            <rect id="Rectángulo_46843" data-name="Rectángulo 46843" width="2.947" height="5.465" transform="translate(0 0)" fill="url(#linear-gradient-2)"/>
          </g>
        </g>
        <g id="Grupo_156474" data-name="Grupo 156474">
          <g id="Grupo_156473" data-name="Grupo 156473" clip-path="url(#clip-path-2)">
            <path id="Trazado_174489" data-name="Trazado 174489" d="M18.6,24.007a10.943,10.943,0,0,1,.489.981c.046.12.1.235.139.353,4.021-1.293,5.112-6.848,1.867-10.082,14.2.637,11.911-1.334,12.271-3.488,8.234,2.376,12.157.407,13.586-.708-.055-.314-.115-.618-.172-.9-.429-2.11-.768-3.384-.768-3.384-.276.47-3.338,5.2-13.466,2.433-.667-.183-2.214.142-1.05,2.378.325.626-.476,1.364-1.222,1.449l-11.1,1.394c4.554,6.4-.577,9.573-.577,9.573" transform="translate(71.127 11.752)" fill="#f7927e"/>
            <path id="Trazado_174490" data-name="Trazado 174490" d="M22.912,35.325c.118.036.241.066.364.1l1.856-13.338a23.29,23.29,0,0,0,8.9,8.655C40.14,34.046,43.9,32.8,43.9,32.8c-8.791-.027-16.241-9.584-18-12.438a3.57,3.57,0,0,1-.536-1.717l-.109-1.955a4.061,4.061,0,0,1-.552.027l-1.26,13.067-.536,5.544" transform="translate(62.392 28.93)" fill="#d35850"/>
            <path id="Trazado_174491" data-name="Trazado 174491" d="M20.34,21.289c.705,5.134,6.058,12.933,6.058,12.933a3.87,3.87,0,0,1,2.026-2.209c1.963-.842,4.429.279,6.167,2.581a10.469,10.469,0,0,1,.749,1.165s5.131-3.168.577-9.573c-.279-5.137,5.492-3.923,5.779-3.857C41.351,22.1,34.3,17.481,40.949,8c6.815-9.71,18.209,1.545,18.209,1.545s-1.4-7-7.056-8.685c-16.44-4.9-21.908,12.7-21.908,12.7s-10.981-.506-9.855,7.731" transform="translate(54.387 0.001)" fill="#491d2e"/>
          </g>
        </g>
        <g id="Grupo_156476" data-name="Grupo 156476" transform="translate(113.414 69.848)">
          <g id="Grupo_156475" data-name="Grupo 156475" clip-path="url(#clip-path-9)">
            <rect id="Rectángulo_46845" data-name="Rectángulo 46845" width="29.761" height="232.514" transform="translate(0 0)" fill="url(#linear-gradient-3)"/>
          </g>
        </g>
        <g id="Grupo_156478" data-name="Grupo 156478">
          <g id="Grupo_156477" data-name="Grupo 156477" clip-path="url(#clip-path-2)">
            <path id="Trazado_174493" data-name="Trazado 174493" d="M14.926,23.954a16.664,16.664,0,0,1,2.665,4.368s.1.375.282,1.1c.093.361.205.826.336,1.364.03.137.066.276.1.418.071.292.142.612.219.946.066.276.137.566.2.864.011.066.025.128.038.2.082.339.159.694.243,1.069.159.741.3,1.411.448,2.119.1.476.2.973.306,1.484.068.342.142.692.213,1.052.033.178.071.361.107.547.046.276.1.56.161.845s.107.574.164.867c.454,2.4.932,5.1,1.411,8.075.167,1.039.331,2.1.5,3.2.022.153.044.32.071.473q.139.939.276,1.9.172,1.218.342,2.463c.172,1.257.334,2.545.5,3.865q.16,1.32.32,2.684a1.6,1.6,0,0,0,.03.23q.275,2.5.544,5.145c0,.082.016.167.022.243.235,2.408.448,4.9.648,7.466.347,4.609.615,9.467.779,14.532.022.566.036,1.129.052,1.695.2,7.433.153,15.289-.227,23.449,8.357-23.794,6.432-71,6.432-71l-6.1-1.659.134-.979a16.774,16.774,0,0,0-6.987-16.063Z" transform="translate(95.825 41.528)" fill="#71dcd1"/>
          </g>
        </g>
        <g id="Grupo_156480" data-name="Grupo 156480" transform="translate(21.057 90.462)">
          <g id="Grupo_156479" data-name="Grupo 156479" clip-path="url(#clip-path-11)">
            <rect id="Rectángulo_46847" data-name="Rectángulo 46847" width="53.413" height="71.526" transform="translate(0 0)" fill="url(#linear-gradient-4)"/>
          </g>
        </g>
        <g id="Grupo_156493" data-name="Grupo 156493">
          <g id="Grupo_156492" data-name="Grupo 156492" clip-path="url(#clip-path-2)">
            <path id="Trazado_174495" data-name="Trazado 174495" d="M28.052,41.474l.8,1.763,13.127-1.853c-.241-.58-.487-1.145-.727-1.7Z" transform="translate(50.259 68.802)" fill="#2aa1a7"/>
            <path id="Trazado_174496" data-name="Trazado 174496" d="M38.887,137.9c-.087-4.281-.123-8.518-.115-12.671.019-10,.257-19.537.6-28.129-2.121,7.512-4.486,15.418-7.313,24.07-1.225,3.726-2.531,7.591-3.945,11.626-.353,1.4-.708,2.788-1.061,4.2,3.876.369,7.84.689,11.831.908" transform="translate(55.591 168.338)" fill="#0e575a"/>
            <path id="Trazado_174497" data-name="Trazado 174497" d="M19.372,27.892c.027,0,3.212-.451,3.212-.451a.2.2,0,0,0,.145-.118c1.9-5.588-1.132-14.83-1.26-15.218a.173.173,0,0,0-.221-.112.177.177,0,0,0-.115.224c.03.1,3.078,9.4,1.293,14.888l-3.078.435a.177.177,0,0,0,.025.353" transform="translate(93.096 20.775)" fill="#f7927e"/>
            <path id="Trazado_174498" data-name="Trazado 174498" d="M21.454,16.81s6.1-5.5,12.151-5.495c-.164-1.4-5.511-2.031-12.151,5.495" transform="translate(76.673 18.11)" fill="#491d2e"/>
            <path id="Trazado_174499" data-name="Trazado 174499" d="M17.427,11.49a16.767,16.767,0,0,1,8.439,1.484,7.66,7.66,0,0,0-2.179-1.84,2.443,2.443,0,0,0-.241-.1c-.052-.019-.1-.033-.148-.052-3.669-1.32-5.891-.418-5.872.5" transform="translate(95.421 17.895)" fill="#491d2e"/>
            <path id="Trazado_174500" data-name="Trazado 174500" d="M26.64,21.037a8.776,8.776,0,0,0,.9-.041.177.177,0,0,0,.159-.2.174.174,0,0,0-.2-.156c-.036,0-3.983.407-5.979-1.714a.181.181,0,0,0-.254-.005.182.182,0,0,0-.005.251C22.8,20.8,25.3,21.037,26.64,21.037" transform="translate(83.228 32.721)" fill="#f7927e"/>
            <path id="Trazado_174501" data-name="Trazado 174501" d="M22.347,25.316c1.993-1.509,1.815-5.06,1.807-5.21a.189.189,0,0,0-.1-.15.172.172,0,0,0-.18.014,2.239,2.239,0,0,1-2.206-.014.178.178,0,0,0-.238.082.176.176,0,0,0,.077.238,2.705,2.705,0,0,0,2.3.128c0,.858-.12,3.466-1.566,4.6a.177.177,0,0,0,.109.317" transform="translate(86.234 34.562)" fill="#f7927e"/>
            <path id="Trazado_174502" data-name="Trazado 174502" d="M28.1,21.56c3.275-1.894,2.231-8.3,2.231-8.3l-1.933.107c.066.128.131.257.189.394.033.074.063.145.1.224a11.3,11.3,0,0,1,.5,1.591c.046.213.093.418.126.623a9.457,9.457,0,0,1,.1,1.944,6.179,6.179,0,0,1-.61,2.406,4.333,4.333,0,0,1-.7,1.014" transform="translate(61.633 22.985)" fill="#f7927e"/>
            <path id="Trazado_174503" data-name="Trazado 174503" d="M24.207,26.823c.429.56.836,1.1,1.249,1.684l11.87,2.43V28.712l-1.293-.12-.3,1.525-2.061-.58L27.517,27.8l-3.259-.924a.2.2,0,0,0-.052-.049" transform="translate(65.427 46.502)" fill="#e3f8f6"/>
            <g id="Grupo_156483" data-name="Grupo 156483" transform="translate(101.461 65.22)" opacity="0.25">
              <g id="Grupo_156482" data-name="Grupo 156482">
                <g id="Grupo_156481" data-name="Grupo 156481" clip-path="url(#clip-path-13)">
                  <path id="Trazado_174504" data-name="Trazado 174504" d="M24.1,33.062l-.128.67,1.293.12.631-9.994-.41,2.124-.418,2.143Z" transform="translate(-23.976 -23.858)" fill="#2aa1a7"/>
                </g>
              </g>
            </g>
            <g id="Grupo_156488" data-name="Grupo 156488" transform="translate(89.365 72.97)" opacity="0.5">
              <g id="Grupo_156487" data-name="Grupo 156487">
                <g id="Grupo_156486" data-name="Grupo 156486" clip-path="url(#clip-path-14)">
                  <g id="Grupo_156485" data-name="Grupo 156485" transform="translate(0.001 0)">
                    <g id="Grupo_156484" data-name="Grupo 156484" clip-path="url(#clip-path-15)">
                      <rect id="Rectángulo_46849" data-name="Rectángulo 46849" width="0.268" height="0.355" transform="translate(0 0)" fill="url(#linear-gradient-5)"/>
                    </g>
                  </g>
                </g>
              </g>
            </g>
            <path id="Trazado_174506" data-name="Trazado 174506" d="M20.614,26.425,21.7,29.443l2.835-3.507c-.208-.115-.41-.23-.6-.334l-2.187,3.1-.161-.413-.541-1.356-.276-.7-.1-.235a4.055,4.055,0,0,1-.055.432" transform="translate(88.041 44.385)" fill="#e3f8f6"/>
            <g id="Grupo_156491" data-name="Grupo 156491" transform="translate(106.447 64.676)" opacity="0.25">
              <g id="Grupo_156490" data-name="Grupo 156490">
                <g id="Grupo_156489" data-name="Grupo 156489" clip-path="url(#clip-path-16)">
                  <path id="Trazado_174507" data-name="Trazado 174507" d="M22.027,23.659l2.209,6.134c.025-.15.041-.287.055-.432l-.637-1.613L23.35,27l-.131-.342-.968-2.422Z" transform="translate(-22.026 -23.659)" fill="#2aa1a7"/>
                </g>
              </g>
            </g>
          </g>
        </g>
        <g id="Grupo_156495" data-name="Grupo 156495" transform="translate(113.031 69.64)">
          <g id="Grupo_156494" data-name="Grupo 156494" clip-path="url(#clip-path-17)">
            <rect id="Rectángulo_46853" data-name="Rectángulo 46853" width="0.098" height="0.208" transform="translate(0 0)" fill="url(#linear-gradient-6)"/>
          </g>
        </g>
        <g id="Grupo_156509" data-name="Grupo 156509">
          <g id="Grupo_156508" data-name="Grupo 156508" clip-path="url(#clip-path-2)">
            <path id="Trazado_174509" data-name="Trazado 174509" d="M20.1,29.912l8.226,2.321.3-1.528,4.336.41,1.785.161c.016,0,.232-.161.232-.161-.137-1.378.765-3.6.9-5.128l.1.243.273.694.533,1.367.161.41,2.2-3.094c.53.282,1.1.6,1.717.951.068.273.164.6.246.97a3.944,3.944,0,0,1,.1.394c.027.137.066.273.093.424.068.287.15.612.219.94.066.273.137.558.2.875a1.5,1.5,0,0,1,.041.189c.082.344.164.694.249,1.077.079.421.148.752.232,1.08.066.339.131.681.216,1.033.1.481.189.97.3,1.49.027.164.066.339.109.517.027.164.068.353.107.533s.071.355.1.544c.052.276.107.558.161.847s.112.571.164.869c.462,2.4.94,5.1,1.419,8.072.082.522.164,1.042.246,1.569s.161,1.08.246,1.64c.025.15.055.312.082.476.082.612.175,1.255.273,1.9.109.8.232,1.621.339,2.452.175,1.255.328,2.551.489,3.876.112.869.219,1.771.328,2.687a1.556,1.556,0,0,0,.027.216q.283,2.514.544,5.156a1.467,1.467,0,0,0,.027.23q.271,2.723.495,5.566c.052.623.093,1.268.148,1.908.085,1.145.178,2.318.246,3.5s.15,2.376.216,3.589c.071,1.118.109,2.22.167,3.351,0,.1.011.208.011.306.016.355.03.653.044.965s.027.615.038.929c.016.6.044,1.211.057,1.826s.038,1.186.055,1.763c.027.76.041,1.536.055,2.315.014.64.025,1.282.025,1.935.03,1.73.03,3.494.03,5.251v.9c-.016.659-.016,1.309-.016,1.979-.014.574-.014,1.132-.025,1.706,0,.492-.014.981-.041,1.484v.219c-.057,2.523-.139,5.076-.26,7.652.014,0,1.063,28.731,1.063,28.731l.15,3.915.139,3.72.044,1.167c-1.8.292-4.552.67-7.766.878-5.694.366-12.848.213-18.761-1.886.074-.514.159-1.031.241-1.534.1-.615.2-1.227.29-1.84s.191-1.214.284-1.8c.164-.929.3-1.84.437-2.75.284-1.8.558-3.548.82-5.21.134-.845.254-1.665.38-2.455.123-.806.243-1.583.366-2.348,1.3-8.4,2.2-14.439,2.441-16.621a.455.455,0,0,0,.016-.139c.025-.3.055-.462.055-.612a7.269,7.269,0,0,0,.079-.8,1.985,1.985,0,0,0,.055-.41c.041-.271.066-.547.1-.817.014-.219.044-.437.055-.656.082-.831.164-1.678.246-2.509.134-1.457.273-2.9.4-4.377.027-.437.066-.858.093-1.3.03-.284.057-.56.068-.845.027-.216.055-.424.071-.642.011-.134.011-.271.025-.41.025-.366.041-.719.068-1.088.1-1.216.178-2.417.246-3.63s.15-2.427.216-3.652c.071-1.487.139-2.988.191-4.475.041-.886.071-1.76.085-2.63.052-1.613.079-3.22.109-4.817a134.3,134.3,0,0,0-.656-15.1c-.079-.735-.161-1.471-.26-2.2-.052-.355-.1-.719-.134-1.074-.1-.711-.205-1.405-.314-2.086-.107-.7-.219-1.364-.331-2.034s-.243-1.326-.364-1.963c-.139-.642-.273-1.282-.4-1.908-.139-.615-.287-1.227-.437-1.845-.216-.9-.437-1.769-.681-2.63-.153-.574-.314-1.132-.478-1.689-.249-.82-.5-1.624-.763-2.4-.18-.533-.355-1.039-.533-1.542-.273-.749-.547-1.484-.82-2.2-.191-.478-.38-.927-.555-1.381-.208-.462-.4-.9-.588-1.334-.1-.219-.205-.451-.3-.656-.191-.424-.4-.845-.585-1.238-.191-.41-.4-.817-.6-1.2-.219-.448-.437-.875-.67-1.279-.216-.426-.448-.82-.664-1.214-.123-.205-.232-.4-.344-.588a49.329,49.329,0,0,0-3.04-4.582c-.205-.276-.41-.53-.6-.793Z" transform="translate(72.838 44.392)" fill="#fff"/>
            <path id="Trazado_174510" data-name="Trazado 174510" d="M33.106,276.156c.809-4.218,26.984-140.018,31.525-157.243,7.373-3.655,29.958-5.106,29.958-5.106l1.405-4.9c-5.249-1.257-20.049-1.49-35.264,1.812-.077.454-.172.91-.254,1.359-.057.26-.107.533-.159.8-7.605,38.345-13.469,73.989-27.211,163.284" transform="translate(-17.568 187.319)" fill="#1d345e"/>
            <path id="Trazado_174511" data-name="Trazado 174511" d="M19.681,77.541c5.022.484,14.767-.107,18.969-.4l.145-.724.659-3.327c-5.7.372-12.848.216-18.764-1.881l-.235,1.473c-.016.085-.036.175-.049.273-.186,1.175-.369,2.367-.569,3.565-.005.063-.022.131-.027.183-.008.087-.025.167-.036.252a2.09,2.09,0,0,0-.044.279c-.03.2-.036.257-.049.3" transform="translate(75.672 123.459)" fill="#1d345e"/>
            <path id="Trazado_174512" data-name="Trazado 174512" d="M32.475,265.31l2.138-.036s28.206-78.153,47.3-150.089l-6.181,7.479A22.936,22.936,0,0,0,70.6,139.647l-.4.569A114.543,114.543,0,0,0,51.384,184.3c-4.757,24.42-12.474,61.554-18.909,81.015" transform="translate(-1.76 199.693)" fill="#1d345e"/>
            <path id="Trazado_174513" data-name="Trazado 174513" d="M50.241,182.063l10,.585,1.61.1.15-.5,3.187-10.672.243-.817-11.41-2.7-.9,3.362-1,3.685Z" transform="translate(-33.847 291.347)" fill="#f7927e"/>
            <path id="Trazado_174514" data-name="Trazado 174514" d="M19.971,168.053v5.653s3.185-.038,4.644,1.175c1.077.894,3.969,1.063,5.421,1.088h1.175l.689-7.917Z" transform="translate(82.432 291.347)" fill="#f7927e"/>
            <path id="Trazado_174515" data-name="Trazado 174515" d="M8.154,176.325l.079.47.323,1.829H19.6l.481-.544.533-.6,35.751,1.074.172-2.056a.153.153,0,0,0-.15-.169Z" transform="translate(90.102 305.687)" fill="#2b5178"/>
            <path id="Trazado_174516" data-name="Trazado 174516" d="M8.249,186.234c.016.377.046.754.074,1.129H56.129a5.556,5.556,0,0,0-4.221-4.56c-1.64-.391-3.362-.875-5.112-1.413-3.994-1.238-8.146-2.766-11.8-4.213a64.727,64.727,0,0,1-9.852-4.743h-2.57c-1.588-.03-4.751-.21-5.927-1.189-1.6-1.331-5.812-1.288-5.812-1.288l-.757,4.852a31.086,31.086,0,0,0-1.829,11.424" transform="translate(90.335 294.649)" fill="#fff"/>
            <path id="Trazado_174517" data-name="Trazado 174517" d="M30.707,179.023s-8.909-2.671-14.885-9a2.888,2.888,0,0,0-.375,5.128,28.942,28.942,0,0,0,14.467,4.2.874.874,0,0,0,.793-.333" transform="translate(99.793 294.767)" fill="#adcae8"/>
            <path id="Trazado_174518" data-name="Trazado 174518" d="M50.763,187.483H80.054l-.194-2.758-.47-.227.462-9.92A1.359,1.359,0,0,0,78.7,173.17a7.388,7.388,0,0,1-4.675,1.714,8.78,8.78,0,0,1-5.527-2.184,2.637,2.637,0,0,0-3.5.17c-4.267,4.185-14.229,14.614-14.229,14.614" transform="translate(-49.896 298.389)" fill="#fff"/>
            <path id="Trazado_174519" data-name="Trazado 174519" d="M51.26,184.073h28.8a11.807,11.807,0,0,0-.533-1.329,17.788,17.788,0,0,0-5.476-6.913,14.2,14.2,0,0,0-6.927-2.627c-.175-.014-.347-.033-.528-.041-.336-.022-.683-.036-1.033-.036-7.63,0-14.3,10.946-14.3,10.946" transform="translate(-51.26 300.143)" fill="#fff"/>
            <rect id="Rectángulo_46854" data-name="Rectángulo 46854" width="28.799" height="1.971" transform="translate(0.003 484.21)" fill="#2b5178"/>
            <path id="Trazado_174520" data-name="Trazado 174520" d="M51.929,176.859a13.839,13.839,0,0,1,6.927,2.627,12.639,12.639,0,0,0,3.89-5.538,9.279,9.279,0,0,0,.29-1.186,7.28,7.28,0,0,0-1.192-.7,10.89,10.89,0,0,0-7.239-.735,39.915,39.915,0,0,1-2.676,5.533" transform="translate(-36.066 296.49)" fill="#adcae8"/>
            <path id="Trazado_174521" data-name="Trazado 174521" d="M50.763,176.645a12.493,12.493,0,0,1,.533,1.323v1.662h1.356l-.194-2.758-.47-.227Z" transform="translate(-22.494 306.242)" fill="#1d345e"/>
            <path id="Trazado_174522" data-name="Trazado 174522" d="M20.494,177.625c.134-.019,4.24-1.378,4.24-1.378a.435.435,0,0,0-.273-.826l-3.4,1.129.454-2.417a.445.445,0,0,0-.126-.4.441.441,0,0,0-.394-.112l-4.746,1.061,1.266-3.043a.434.434,0,0,0-.8-.336l-1.588,3.816a.425.425,0,0,0,.066.446.441.441,0,0,0,.429.148l4.918-1.1-.47,2.5a.432.432,0,0,0,.142.407.451.451,0,0,0,.287.1" transform="translate(102.655 296.528)" fill="#2b5178"/>
            <path id="Trazado_174523" data-name="Trazado 174523" d="M52.557,173.6l.293.167c.18.008.353.025.528.041a14.08,14.08,0,0,1,1.9.317l-.525-.3,8.152.711a.435.435,0,0,0,.074-.867l-10.169-.886a.434.434,0,0,0-.254.812" transform="translate(-37.514 299.546)" fill="#2b5178"/>
            <g id="Grupo_156498" data-name="Grupo 156498" transform="translate(107.312 75.64)" opacity="0.25">
              <g id="Grupo_156497" data-name="Grupo 156497">
                <g id="Grupo_156496" data-name="Grupo 156496" clip-path="url(#clip-path-19)">
                  <path id="Trazado_174524" data-name="Trazado 174524" d="M24.543,140.876c-.134.968-.284,1.922-.435,2.848l.558.1c.164-.954.3-1.924.437-2.917.369-2.649.667-5.443.913-8.349q.246-3,.41-6.151.1-2.1.191-4.254c.027-.722.052-1.446.066-2.168.126-4.8.137-9.778.071-14.8a3.075,3.075,0,0,0-.016-.394c-.011-1.935-.068-3.871-.12-5.809q-.086-2.354-.164-4.7c-.109-2.649-.221-5.194-.355-7.744-.1-1.911-.205-3.805-.328-5.705-.052-.935-.109-1.864-.175-2.8-.383-5.948-.847-11.7-1.309-17.047-.1-1.022-.191-2.045-.273-3.045-.041-.391-.082-.8-.123-1.181-.123-1.257-.232-2.5-.339-3.7-.044-.26-.057-.517-.085-.763-.12-1.282-.243-2.537-.38-3.751-.03-.219-.041-.435-.071-.653-.068-.629-.12-1.244-.191-1.84-.514-4.874-.992-8.991-1.375-12.1-.03-.26-.066-.519-.1-.749-.1-.765-.175-1.446-.26-2.058-.066-.571-.137-1.077-.189-1.514-.109-.834-.191-1.405-.232-1.706-.016-.137-.027-.219-.027-.246l-.271.027c-.016,0-.29.041-.29.041.068.462,3.833,28.08,5.44,58.506.044.82.085,1.662.126,2.5.161,3.341.3,6.722.394,10.09.055,2.072.112,4.133.137,6.192.041,2.075.052,4.1.052,6.121q0,4.076-.093,8.023c-.014.653-.027,1.307-.057,1.949-.008.64-.038,1.282-.066,1.922-.175,4.828-.492,9.453-.968,13.761-.057.5-.107,1.009-.178,1.514-.1.872-.205,1.714-.328,2.564" transform="translate(-20.084 -27.67)" fill="#2aa1a7"/>
                </g>
              </g>
            </g>
            <rect id="Rectángulo_46856" data-name="Rectángulo 46856" width="17.822" height="9.56" transform="matrix(-0.994, -0.108, 0.108, -0.994, 139.856, 110.704)" fill="#fff"/>
            <g id="Grupo_156501" data-name="Grupo 156501" transform="translate(124.638 101.643)" opacity="0.5">
              <g id="Grupo_156500" data-name="Grupo 156500">
                <g id="Grupo_156499" data-name="Grupo 156499" clip-path="url(#clip-path-20)">
                  <rect id="Rectángulo_46857" data-name="Rectángulo 46857" width="8.819" height="1.385" transform="matrix(-0.994, -0.109, 0.109, -0.994, 9.207, 2.335)" fill="#2b5178"/>
                  <rect id="Rectángulo_46858" data-name="Rectángulo 46858" width="14.211" height="1.383" transform="translate(14.128 6.945) rotate(-173.783)" fill="#2b5178"/>
                </g>
              </g>
            </g>
            <g id="Grupo_156504" data-name="Grupo 156504" transform="translate(135.068 102.067)" opacity="0.5">
              <g id="Grupo_156503" data-name="Grupo 156503">
                <g id="Grupo_156502" data-name="Grupo 156502" clip-path="url(#clip-path-21)">
                  <rect id="Rectángulo_46860" data-name="Rectángulo 46860" width="3.813" height="3.814" transform="translate(3.789 4.207) rotate(-173.741)" fill="#2b5178"/>
                </g>
              </g>
            </g>
            <g id="Grupo_156507" data-name="Grupo 156507" transform="translate(87.656 24.939)" opacity="0.25">
              <g id="Grupo_156506" data-name="Grupo 156506">
                <g id="Grupo_156505" data-name="Grupo 156505" clip-path="url(#clip-path-22)">
                  <path id="Trazado_174525" data-name="Trazado 174525" d="M23.2,29.8l.1,1.949a3.568,3.568,0,0,0,.533,1.728,34.883,34.883,0,0,0,7.1,7.887c2.857,2.315,6.342,4.267,10.109,4.524a1.446,1.446,0,0,0-.131-.219,17.8,17.8,0,0,1-2.611-10.6,10.374,10.374,0,0,0,2.611-6.878c-4.079-5.21-4.989-15.27-5.18-19.065l-9.877,1.247c4.546,6.394-.588,9.565-.588,9.565.1.2.219.4.309.6a3.388,3.388,0,0,1,.186.391c.038.074.066.142.1.219.011.052.025.079.036.131a8.638,8.638,0,0,1,.457,1.468c.052.208.09.416.131.623a9.773,9.773,0,0,1,.09,1.938,6.081,6.081,0,0,1-.61,2.4,4.606,4.606,0,0,1-.689,1.025,3.5,3.5,0,0,1-1.159.806,3.072,3.072,0,0,1-.817.235.15.15,0,0,1-.1.027" transform="translate(-23.201 -9.121)" fill="#f7927e"/>
                </g>
              </g>
            </g>
            <path id="Trazado_174526" data-name="Trazado 174526" d="M31.689,35.773s3.731,13.671,20.18,12.911c1.249-4.994-5.478-15.185-20.18-12.911" transform="translate(30.283 61.452)" fill="#2aa1a7"/>
            <path id="Trazado_174527" data-name="Trazado 174527" d="M33.241,42.506,36.2,49.66l6.465,4.5,7.009-18.551-9.784-3.125Z" transform="translate(28.381 56.318)" fill="#feb396"/>
          </g>
        </g>
        <g id="Grupo_156511" data-name="Grupo 156511" transform="translate(21.281 97.223)">
          <g id="Grupo_156510" data-name="Grupo 156510" clip-path="url(#clip-path-23)">
            <rect id="Rectángulo_46864" data-name="Rectángulo 46864" width="60.944" height="87.302" transform="translate(-0.074 0)" fill="url(#linear-gradient-7)"/>
          </g>
        </g>
        <g id="Grupo_156516" data-name="Grupo 156516">
          <g id="Grupo_156515" data-name="Grupo 156515" clip-path="url(#clip-path-2)">
            <path id="Trazado_174529" data-name="Trazado 174529" d="M48.116,38.98c-.323,1.031-.651,2.064-.962,3.056-.112.344-.219.651-.312.962-1.583,4.869-2.98,8.9-3.267,9.756l-.06.161L37.867,57.4l-1.006-.323L28.174,54.3c-.087-.033-.087-.875-.087-.875a49.3,49.3,0,0,1,1.93-13.8l5.38-14.6c.694-1.5,1.23-2.408,1.5-2.335s.331.708.287,1.695l-2.2,13.4c-.014.06-.016.118-.027.169.334-.856,6.471-18.417,8.332-17.938,1.933.5-3.912,15.934-4.606,17.736l7.586-17.189a.888.888,0,0,1,.711-.637.906.906,0,0,1,.353.014.893.893,0,0,1,.681,1.006L43.389,38.857c.364-.965,6.451-17.047,8.261-16.369,1.143.432-1.118,8.69-3.535,16.492" transform="translate(40.192 34.526)" fill="#f28a81"/>
            <path id="Trazado_174530" data-name="Trazado 174530" d="M38.866,25.244c-1.566,1.173-2.9,4.388-3.863,7.381a23.622,23.622,0,0,1-7.313,10.853l-.954.8.06-.161c.287-.853,1.684-4.888,3.269-9.748.09-.317.2-.626.3-.957,2.455-3.368,5.877-10.128,8.5-8.171" transform="translate(56.97 43.16)" fill="#f28a81"/>
            <path id="Trazado_174531" data-name="Trazado 174531" d="M39.975,36.46S38.8,42.914,41,46.5s2.463,7.764,1.941,9.141c-.489,1.3-8.783-2.649-9.694-3.092-.087-.036-.087-.878-.087-.878a49.268,49.268,0,0,1,1.93-13.8c.282-1.05.615-2.08.979-3.108,1.5-4.215,3.253-8.961,4.4-11.5.694-1.5,1.23-2.408,1.5-2.335s.331.708.287,1.695c-.126,3.515-1.771,11.429-2.2,13.4-.014.06-.016.12-.027.169Z" transform="translate(35.122 36.283)" fill="#feb396"/>
            <g id="Grupo_156514" data-name="Grupo 156514" transform="translate(21.281 97.225)" opacity="0.5">
              <g id="Grupo_156513" data-name="Grupo 156513">
                <g id="Grupo_156512" data-name="Grupo 156512" clip-path="url(#clip-path-25)">
                  <path id="Trazado_174532" data-name="Trazado 174532" d="M39.04,111.608a15.916,15.916,0,0,0,3,6.1,13.272,13.272,0,0,0,15.872,3.819,32.408,32.408,0,0,1-6.126-5.325c-5.495-6.205,1.564-5.085,5.476-8.6s3.518-6.061,3.518-12.712,7.236-20.729,11.345-25.776S73.3,63.807,73.3,57.154c0-4.967,4.97-13.914,7.493-18.141a16.357,16.357,0,0,1-1.542-3.447L62.9,61.079l-6.17,9.631L42.694,92.6A25.516,25.516,0,0,0,38.742,104.5l-.016.139-.131,2.064a15.94,15.94,0,0,0,.446,4.9" transform="translate(-38.561 -35.566)" fill="#2aa1a7"/>
                </g>
              </g>
            </g>
            <path id="Trazado_174533" data-name="Trazado 174533" d="M21.752,16.059a.208.208,0,0,0,.159-.082A8.537,8.537,0,0,1,28.9,12.358a.184.184,0,0,0,.2-.178.2.2,0,0,0-.183-.2,8.923,8.923,0,0,0-7.323,3.786.189.189,0,0,0,.159.292" transform="translate(80.884 20.766)" fill="#d35850"/>
            <path id="Trazado_174534" data-name="Trazado 174534" d="M22.484,13.377c.194-.093.213-.21.153-.3-.033-.046-.85-1.167-4.314-1.167-.219,0-.306.087-.3.189a.191.191,0,0,0,.189.191c3.343,0,4.114,1,4.12,1.006a.193.193,0,0,0,.156.077" transform="translate(96.999 20.655)" fill="#d35850"/>
          </g>
        </g>
      </g>
    </g>
  </g>
</svg>
