<svg xmlns="http://www.w3.org/2000/svg" width="77.328" height="73.533" viewBox="0 0 77.328 73.533">
  <g id="impresora-3d" transform="translate(0 0)">
    <g id="Grupo_949896" data-name="Grupo 949896" transform="translate(1.135 1.135)">
      <path id="Trazado_669103" data-name="Trazado 669103" d="M240.112,91.744h-6.639v4.9a.655.655,0,0,0,.655.655h5.328a.655.655,0,0,0,.655-.655v-4.9Z" transform="translate(-199.265 -80.888)" fill="#d0f0ff"/>
      <g id="Grupo_949891" data-name="Grupo 949891" transform="translate(0 2.692)">
        <path id="Trazado_669104" data-name="Trazado 669104" d="M313.607,41.792v-3.08a.9.9,0,0,0-.9-.9H279.766v4.874H312.71A.9.9,0,0,0,313.607,41.792Z" transform="translate(-238.55 -37.815)" fill="#efedee"/>
        <path id="Trazado_669105" data-name="Trazado 669105" d="M7.5,41.555v-2.6a1.135,1.135,0,0,1,1.135-1.135H39.809V42.69H8.635A1.135,1.135,0,0,1,7.5,41.555Z" transform="translate(-7.5 -37.816)" fill="#efedee"/>
        <path id="Trazado_669106" data-name="Trazado 669106" d="M162.084,190.963v2.178a30.374,30.374,0,0,1-2.8,12.738l-1.381,2.988v13.359a5.092,5.092,0,0,1-9.774,2l-3.54-8.281a4.385,4.385,0,0,0-8.063,0l-3.54,8.281a5.092,5.092,0,0,1-9.774-2V208.868l-.858-1.857-2.283-2.912,6.552-3.908,5.091-3.36,15.355,2.977,12.742-11.283Z" transform="translate(-103.03 -165.71)" fill="#dbe9ee"/>
      </g>
      <g id="Grupo_949892" data-name="Grupo 949892" transform="translate(17.041 37.564)">
        <path id="Trazado_669107" data-name="Trazado 669107" d="M129.187,289.723V275.3a7.135,7.135,0,0,0-1.119-3.837l-2.1-3.294-5.9,3.517,2.283,2.912.858,1.857v13.254a5.165,5.165,0,0,0,4.416,5.152,5.078,5.078,0,0,0,3.368-.729A6.27,6.27,0,0,1,129.187,289.723Z" transform="translate(-120.07 -268.173)" fill="#a4c6ee"/>
      </g>
      <g id="Grupo_949895" data-name="Grupo 949895" transform="translate(2.803 0)">
        <g id="Grupo_949893" data-name="Grupo 949893" transform="translate(0 1.242)">
          <path id="Trazado_669108" data-name="Trazado 669108" d="M94.056,447.422H27.427a1.41,1.41,0,0,1-1.41-1.409V441.1a1.41,1.41,0,0,1,1.41-1.409h66.63a1.41,1.41,0,0,1,1.409,1.409v4.916A1.41,1.41,0,0,1,94.056,447.422Z" transform="translate(-26.017 -377.402)" fill="#d0f0ff"/>
          <path id="Trazado_669109" data-name="Trazado 669109" d="M296.008,36.011H290.09V28.237h5.917a1.091,1.091,0,0,1,1.091,1.091V34.92A1.091,1.091,0,0,1,296.008,36.011Z" transform="translate(-250.114 -28.237)" fill="#d0f0ff"/>
          <path id="Trazado_669110" data-name="Trazado 669110" d="M175.52,36.011h5.766V28.237H175.52a1.091,1.091,0,0,0-1.091,1.091V34.92A1.091,1.091,0,0,0,175.52,36.011Z" transform="translate(-151.962 -28.237)" fill="#d0f0ff"/>
        </g>
        <path id="Trazado_669111" data-name="Trazado 669111" d="M222.849,20.509v8.87a.477.477,0,0,1-.131.328l-2.41,2.546a.477.477,0,0,1-.346.149H211.6a.477.477,0,0,1-.346-.149l-2.41-2.546a.477.477,0,0,1-.131-.328v-8.87a.477.477,0,0,1,.477-.477h13.181A.477.477,0,0,1,222.849,20.509Z" transform="translate(-181.056 -20.032)" fill="#efedee"/>
        <g id="Grupo_949894" data-name="Grupo 949894" transform="translate(12.062 21.553)">
          <ellipse id="Elipse_5553" data-name="Elipse 5553" cx="3.181" cy="3.181" rx="3.181" ry="3.181" transform="translate(38.734)" fill="#ffc052"/>
          <ellipse id="Elipse_5554" data-name="Elipse 5554" cx="3.181" cy="3.181" rx="3.181" ry="3.181" transform="translate(0 15.574)" fill="#ffc052"/>
          <ellipse id="Elipse_5555" data-name="Elipse 5555" cx="2.478" cy="2.478" rx="2.478" ry="2.478" transform="translate(26.685 11.996)" fill="#ffc052"/>
          <ellipse id="Elipse_5556" data-name="Elipse 5556" cx="2.478" cy="2.478" rx="2.478" ry="2.478" transform="translate(11.341 9.009)" fill="#ffc052"/>
        </g>
      </g>
    </g>
    <g id="Grupo_949897" data-name="Grupo 949897" transform="translate(0 0)">
      <path id="Trazado_669112" data-name="Trazado 669112" d="M402.7,32.586h14.268a1.135,1.135,0,1,0,0-2.271H402.7a1.135,1.135,0,1,0,0,2.271Z" transform="translate(-340.774 -27.623)" fill="#003a66"/>
      <path id="Trazado_669113" data-name="Trazado 669113" d="M76.192,20.1H52.058v-2.6h5.028a1.135,1.135,0,1,0,0-2.271h-5.17a2.228,2.228,0,0,0-2.084-1.45h-3.01a1.614,1.614,0,0,0-1.568-1.242H32.073A1.614,1.614,0,0,0,30.5,13.773H27.5a2.228,2.228,0,0,0-2.084,1.45H1.135a1.135,1.135,0,1,0,0,2.271H25.27v2.6H1.135a1.135,1.135,0,1,0,0,2.271H25.412a2.228,2.228,0,0,0,2.084,1.45h3.18a1.618,1.618,0,0,0,.224.3l2.41,2.546a1.618,1.618,0,0,0,.9.478v2.278A1.793,1.793,0,0,0,36,31.214h1.529V36.87a1.135,1.135,0,0,0,2.271,0V31.214h1.529a1.793,1.793,0,0,0,1.791-1.791V27.146a1.62,1.62,0,0,0,.9-.479l2.409-2.545a1.616,1.616,0,0,0,.225-.3h3.182a2.228,2.228,0,0,0,2.084-1.45H76.193a1.135,1.135,0,1,0,0-2.271ZM27.541,16.044H30.46v5.5H27.541Zm13.306,12.9H36.479V27.171h4.368ZM44.6,22.751,42.561,24.9h-7.8l-2.035-2.15V14.8H44.6v7.949Zm5.192-1.2H46.866v-5.5h2.921Z" transform="translate(0 -12.531)" fill="#003a66"/>
      <path id="Trazado_669114" data-name="Trazado 669114" d="M87.691,196.883H71.431a6.193,6.193,0,0,0,1.426-3.956v-3.48a1.135,1.135,0,0,0-2.271,0v3.48a3.956,3.956,0,0,1-7.594,1.555l-3.54-8.281a5.52,5.52,0,0,0-10.151,0l-3.54,8.281a3.956,3.956,0,0,1-7.594-1.555V179.568a1.137,1.137,0,0,0-.1-.476l-.439-.95a4.308,4.308,0,0,0,1.351-4.754l4.369-2.985a3.608,3.608,0,0,0,5.339-1.1l8.612,1.676a3.613,3.613,0,1,0,6.9-1.883l7.068-6.259a4.3,4.3,0,0,0,3.5.554v.453a29.434,29.434,0,0,1-2.7,12.262l-1.381,2.988a1.137,1.137,0,0,0-.1.476v5.04a1.135,1.135,0,1,0,2.271,0v-4.791l1.276-2.762a31.721,31.721,0,0,0,2.9-13.214v-1.973a4.316,4.316,0,1,0-7.278-.733l-7.068,6.26a3.607,3.607,0,0,0-4.963,1.354l-8.612-1.676a3.613,3.613,0,1,0-7.056,1.457l-4.37,2.985a4.314,4.314,0,1,0-2.142,7.552l.347.751v13.109a6.191,6.191,0,0,0,1.427,3.956h-5.5a1.135,1.135,0,1,0,0,2.271H87.691a.274.274,0,0,1,.274.274v4.916a.274.274,0,0,1-.274.274H21.061a.274.274,0,0,1-.274-.274v-4.916a.274.274,0,0,1,.274-.274h5.927a1.135,1.135,0,1,0,0-2.271H21.061a2.548,2.548,0,0,0-2.545,2.545v4.916a2.548,2.548,0,0,0,2.545,2.545h66.63a2.548,2.548,0,0,0,2.545-2.545v-4.916A2.548,2.548,0,0,0,87.691,196.883Zm-14.062-39.7a2.046,2.046,0,1,1-2.046,2.046A2.048,2.048,0,0,1,73.629,157.18Zm-12.752,12a1.343,1.343,0,1,1-1.343,1.343A1.344,1.344,0,0,1,60.877,169.176Zm-15.344-2.987a1.343,1.343,0,1,1-1.343,1.343A1.344,1.344,0,0,1,45.532,166.189ZM32.849,174.8a2.046,2.046,0,1,1,2.046,2.046A2.048,2.048,0,0,1,32.849,174.8Zm15,20.575,3.54-8.281a3.249,3.249,0,0,1,5.975,0l3.54,8.281a6.222,6.222,0,0,0,.92,1.509h-14.9a6.228,6.228,0,0,0,.921-1.509Z" transform="translate(-15.713 -133.356)" fill="#003a66"/>
    </g>
  </g>
</svg>
