<svg xmlns="http://www.w3.org/2000/svg" xmlns:xlink="http://www.w3.org/1999/xlink" width="400" height="269" viewBox="0 0 400 269">
  <defs>
    <linearGradient id="linear-gradient" x1="0.5" x2="0.5" y2="1" gradientUnits="objectBoundingBox">
      <stop offset="0" stop-color="#0273bc"/>
      <stop offset="1" stop-color="#13c6cc"/>
    </linearGradient>
    <clipPath id="clip-path">
      <rect id="Rectángulo_335110" data-name="Rectángulo 335110" width="400" height="269" transform="translate(1020 905)" fill="#fff" stroke="#707070" stroke-width="1" opacity="0.6"/>
    </clipPath>
    <clipPath id="clip-path-2">
      <rect id="Rectángulo_47035" data-name="Rectángulo 47035" width="421.246" height="254.426" fill="none"/>
    </clipPath>
    <clipPath id="clip-path-3">
      <rect id="Rectángulo_47034" data-name="Rectángulo 47034" width="295.784" height="224.518" fill="none"/>
    </clipPath>
    <clipPath id="clip-path-4">
      <path id="Trazado_174769" data-name="Trazado 174769" d="M849.72,629.956l-303.987-13.9V434.216l303.987-5.435Z" transform="translate(-545.733 -428.781)" fill="url(#linear-gradient)"/>
    </clipPath>
    <linearGradient id="linear-gradient-2" y1="1" y2="0" xlink:href="#linear-gradient"/>
    <clipPath id="clip-path-5">
      <rect id="Rectángulo_47038" data-name="Rectángulo 47038" width="247.011" height="254.426" fill="none"/>
    </clipPath>
    <clipPath id="clip-path-6">
      <rect id="Rectángulo_47037" data-name="Rectángulo 47037" width="56.996" height="22.16" fill="none"/>
    </clipPath>
    <clipPath id="clip-path-7">
      <path id="Trazado_174771" data-name="Trazado 174771" d="M898.049,8.65A2,2,0,0,0,899.9,6.305a2.41,2.41,0,0,0-2.475-2.066,2,2,0,0,0-1.841,2.344,2.42,2.42,0,0,0,2.334,2.071c.045,0,.09,0,.135,0m7.242-1.6a4.707,4.707,0,0,0,4.833,4.045l3.087-.187a4.1,4.1,0,0,1,4.121,3.084L919.9,24.113a9.817,9.817,0,0,0,9.743,7.341l9.99-.453a4.333,4.333,0,0,1,4,2.4l6.02,12.087a1.4,1.4,0,0,1-1.189,2.1L861.821,50.5a1.622,1.622,0,0,1-1.578-1.876l2.146-11.681a3.062,3.062,0,0,1,2.9-2.571l9.107-.413a7.367,7.367,0,0,0,7.012-7.89L881.06,16.1a3.223,3.223,0,0,1,3.026-3.431l2.992-.181a3.823,3.823,0,0,0,3.481-4.527,6.819,6.819,0,0,1,6.262-7.94c.169-.012.338-.017.506-.017a8.258,8.258,0,0,1,7.965,7.047" transform="translate(-860.219 0)" fill="none"/>
    </clipPath>
    <linearGradient id="linear-gradient-3" x1="1.864" y1="5.035" x2="1.863" y2="5.035" gradientUnits="objectBoundingBox">
      <stop offset="0" stop-color="#444b8c"/>
      <stop offset="0.996" stop-color="#26264f"/>
      <stop offset="1" stop-color="#26264f"/>
    </linearGradient>
    <clipPath id="clip-path-9">
      <rect id="Rectángulo_47040" data-name="Rectángulo 47040" width="80.098" height="34.565" fill="none"/>
    </clipPath>
    <clipPath id="clip-path-10">
      <rect id="Rectángulo_47041" data-name="Rectángulo 47041" width="55.961" height="2.812" fill="none"/>
    </clipPath>
    <clipPath id="clip-path-11">
      <rect id="Rectángulo_47042" data-name="Rectángulo 47042" width="55.961" height="2.669" fill="none"/>
    </clipPath>
    <clipPath id="clip-path-12">
      <rect id="Rectángulo_47043" data-name="Rectángulo 47043" width="55.961" height="2.526" fill="none"/>
    </clipPath>
    <clipPath id="clip-path-13">
      <rect id="Rectángulo_47044" data-name="Rectángulo 47044" width="55.961" height="2.503" fill="none"/>
    </clipPath>
    <clipPath id="clip-path-14">
      <rect id="Rectángulo_47045" data-name="Rectángulo 47045" width="55.961" height="3.098" fill="none"/>
    </clipPath>
    <clipPath id="clip-path-15">
      <rect id="Rectángulo_47046" data-name="Rectángulo 47046" width="55.961" height="3.24" fill="none"/>
    </clipPath>
    <clipPath id="clip-path-16">
      <rect id="Rectángulo_47047" data-name="Rectángulo 47047" width="55.961" height="3.383" fill="none"/>
    </clipPath>
    <clipPath id="clip-path-17">
      <rect id="Rectángulo_47048" data-name="Rectángulo 47048" width="55.961" height="3.526" fill="none"/>
    </clipPath>
    <clipPath id="clip-path-18">
      <rect id="Rectángulo_47049" data-name="Rectángulo 47049" width="128.711" height="9.023" fill="none"/>
    </clipPath>
    <filter id="Trazado_174818" x="2.28" y="157.558" width="73.42" height="98.445" filterUnits="userSpaceOnUse">
      <feOffset dy="3" input="SourceAlpha"/>
      <feGaussianBlur stdDeviation="3" result="blur"/>
      <feFlood flood-opacity="0.161"/>
      <feComposite operator="in" in2="blur"/>
      <feComposite in="SourceGraphic"/>
    </filter>
    <filter id="Trazado_174821" x="59.396" y="159.995" width="77.413" height="104.242" filterUnits="userSpaceOnUse">
      <feOffset dy="3" input="SourceAlpha"/>
      <feGaussianBlur stdDeviation="3" result="blur-2"/>
      <feFlood flood-opacity="0.161"/>
      <feComposite operator="in" in2="blur-2"/>
      <feComposite in="SourceGraphic"/>
    </filter>
    <filter id="Trazado_174824" x="121.795" y="159.995" width="81.216" height="109.762" filterUnits="userSpaceOnUse">
      <feOffset dy="3" input="SourceAlpha"/>
      <feGaussianBlur stdDeviation="3" result="blur-3"/>
      <feFlood flood-opacity="0.161"/>
      <feComposite operator="in" in2="blur-3"/>
      <feComposite in="SourceGraphic"/>
    </filter>
  </defs>
  <g id="Enmascarar_grupo_96" data-name="Enmascarar grupo 96" transform="translate(-1020 -905)" clip-path="url(#clip-path)">
    <path id="Trazado_191135" data-name="Trazado 191135" d="M9.574,256.58c18.18,34.809,55.881,53.074,70.311,59.238,74.35,31.759,185.959,22.049,243.01-28.908,36.533-32.63,37.009-69.975,36.638-80.61-2.019-57.748-61.143-121.371-148.32-130.487-96.5-10.092-162.774,51-169.2,57.136C34.225,140.38-22.076,195.983,9.574,256.58" transform="translate(1057.953 832.31)" fill="#bdd8e7"/>
    <g id="Grupo_948470" data-name="Grupo 948470" transform="translate(21.247)">
      <g id="Grupo_948469" data-name="Grupo 948469">
        <g id="Grupo_948447" data-name="Grupo 948447" transform="translate(998.753 909.625)">
          <g id="Grupo_156910" data-name="Grupo 156910" transform="translate(0)">
            <g id="Grupo_156909" data-name="Grupo 156909" clip-path="url(#clip-path-2)">
              <path id="Trazado_174766" data-name="Trazado 174766" d="M301.116,243.709l283.792-9.741c6.536-.189,12.42,4.043,12.42,7.6V458.391c0,4.928-8.484,5.92-15.021,5.524L301.116,446.875c-5.136-.311-9.283-3.1-9.283-6.23v-191c0-3.13,4.147-5.788,9.283-5.937" transform="translate(-221.305 -212.702)" fill="#97a6b7"/>
              <path id="Trazado_174767" data-name="Trazado 174767" d="M331.237,239.141l284.353-8.3c6.536-.191,11.859,2.557,11.859,6.138V455.5c0,3.581-5.323,6.159-11.859,5.76L331.237,443.9c-5.136-.314-9.283-3.124-9.283-6.279V245.124c0-3.155,4.147-5.833,9.283-5.983" transform="translate(-256.094 -209.857)" fill="#d8dee8"/>
              <g id="Grupo_156908" data-name="Grupo 156908" transform="translate(70.113 23.943)" opacity="0.74">
                <g id="Grupo_156907" data-name="Grupo 156907">
                  <g id="Grupo_156906" data-name="Grupo 156906" clip-path="url(#clip-path-3)">
                    <path id="Trazado_174768" data-name="Trazado 174768" d="M646.562,487.993c3.526.211,6.4-1.187,6.4-3.116V266.821c0-1.93-2.875-3.419-6.4-3.321l-284.353,7.97c-2.777.078-5.031,1.53-5.031,3.236V467.561c0,1.707,2.254,3.23,5.031,3.4Z" transform="translate(-357.179 -263.496)" fill="#fff"/>
                  </g>
                </g>
              </g>
            </g>
          </g>
          <g id="Grupo_156911" data-name="Grupo 156911" transform="translate(54.809 38.962)" clip-path="url(#clip-path-4)">
            <path id="Trazado_656080" data-name="Trazado 656080" d="M0,0,407.49-77.4,317.336,195.909l-407.49,77.4Z" transform="translate(265.214 248.749) rotate(-159.076)" fill="url(#linear-gradient-2)"/>
          </g>
          <g id="Grupo_156917" data-name="Grupo 156917" transform="translate(0)">
            <g id="Grupo_156916" data-name="Grupo 156916" clip-path="url(#clip-path-5)">
              <g id="Grupo_156915" data-name="Grupo 156915" transform="translate(111.85 23.943)" opacity="0.3" style="mix-blend-mode: multiply;isolation: isolate">
                <g id="Grupo_156914" data-name="Grupo 156914">
                  <g id="Grupo_156913" data-name="Grupo 156913" clip-path="url(#clip-path-6)">
                    <path id="Trazado_174770" data-name="Trazado 174770" d="M860.219,284.934l57,.721-1.278-13.006a3.51,3.51,0,0,0-2.893-3.324l-9.653-1.5a3.478,3.478,0,0,1-2.612-2.028l-1.047-2.3-25.247,1.578Z" transform="translate(-860.219 -263.496)" fill="#97a6b7"/>
                  </g>
                </g>
              </g>
            </g>
          </g>
          <g id="Grupo_156919" data-name="Grupo 156919" transform="translate(79.245)">
            <g id="Grupo_156918" data-name="Grupo 156918" clip-path="url(#clip-path-7)">
              <rect id="Rectángulo_47039" data-name="Rectángulo 47039" width="90.072" height="50.532" transform="translate(-0.151 0)" fill="url(#linear-gradient-3)"/>
            </g>
          </g>
          <g id="Grupo_156951" data-name="Grupo 156951" transform="translate(0)">
            <g id="Grupo_156950" data-name="Grupo 156950" clip-path="url(#clip-path-5)">
              <path id="Trazado_174772" data-name="Trazado 174772" d="M868.036,39.919a3.062,3.062,0,0,1,2.9-2.571l9.107-.413a7.367,7.367,0,0,0,7.012-7.889l-.352-9.974a3.223,3.223,0,0,1,3.026-3.431l2.992-.181a3.823,3.823,0,0,0,3.481-4.527,6.819,6.819,0,0,1,6.262-7.941,8.226,8.226,0,0,1,8.47,7.03,4.708,4.708,0,0,0,4.833,4.045l3.086-.187a4.1,4.1,0,0,1,4.121,3.084l2.566,10.124a9.817,9.817,0,0,0,9.743,7.341l9.99-.453a4.333,4.333,0,0,1,4,2.4l6.02,12.087a1.4,1.4,0,0,1-1.189,2.1l-86.638,2.912A1.622,1.622,0,0,1,865.89,51.6ZM903.7,11.625a2,2,0,0,0,1.848-2.345,2.41,2.41,0,0,0-2.475-2.067,2,2,0,0,0-1.841,2.344,2.411,2.411,0,0,0,2.469,2.067" transform="translate(-787.135 -2.705)" fill="#97a6b7"/>
              <g id="Grupo_156922" data-name="Grupo 156922" transform="translate(88.235 15.94)" opacity="0.5" style="mix-blend-mode: soft-light;isolation: isolate">
                <g id="Grupo_156921" data-name="Grupo 156921">
                  <g id="Grupo_156920" data-name="Grupo 156920" clip-path="url(#clip-path-9)">
                    <path id="Trazado_174773" data-name="Trazado 174773" d="M873.359,202.252c7.728-4.827,13.658-1.4,18.475-6.849,5.156-5.829,1.679-13.5,7.013-17.123,3.415-2.318,6.462-.273,10.435-.9a10.885,10.885,0,0,0,4.62-1.955l2.14,8.443a9.817,9.817,0,0,0,9.743,7.341l9.99-.453a4.333,4.333,0,0,1,4,2.4l6.02,12.088a1.4,1.4,0,0,1-1.189,2.1l-78.736,2.646a23.638,23.638,0,0,1,7.493-7.736" transform="translate(-865.866 -175.424)" fill="#fff"/>
                  </g>
                </g>
              </g>
              <path id="Trazado_174774" data-name="Trazado 174774" d="M1403.881,722.225a.6.6,0,0,0,.6-.6V634.406a.6.6,0,0,0-.177-.424.582.582,0,0,0-.427-.172l-61.3.813a.6.6,0,0,0-.588.6v84.707a.6.6,0,0,0,.58.6l61.3,1.7h.017m-.6-87.215v86.005l-60.1-1.67V635.807Z" transform="translate(-1279.408 -576.218)" fill="#fff"/>
              <path id="Trazado_174775" data-name="Trazado 174775" d="M1852.957,1044.623s-.759-2.556-2.528-2.818-3.277-.522-3.781,1.257,0,3.817,3.276,4.094,3.033-2.533,3.033-2.533" transform="translate(-1773.734 -946.969)" fill="#fff"/>
              <path id="Trazado_174776" data-name="Trazado 174776" d="M1848.3,977.21s-1.765-.766-2.268.761-.5,3.308,1.26,4.333,3.788.78,4.294-1.516-1.77-3.321-3.285-3.578" transform="translate(-1772.358 -888.239)" fill="#fff"/>
              <path id="Trazado_174777" data-name="Trazado 174777" d="M1832.929,911.059c.5-.837,1.014-3.066-.507-4.086-1.986-1.332-3.035-1.781-4.045-.759s-2.15,3.925-.5,5.352c1.767,1.532,3.932,1.374,5.056-.506" transform="translate(-1752.44 -823.36)" fill="#fff"/>
              <path id="Trazado_174778" data-name="Trazado 174778" d="M1819.327,864.853a1.5,1.5,0,0,0,1.188-.333,1.689,1.689,0,0,0,.548-.886c.254-1.023-1.522-2.806-3.041-3.311a1.809,1.809,0,0,0-2.022,2.813,4.193,4.193,0,0,0,3.328,1.717" transform="translate(-1739.051 -782.069)" fill="#fff"/>
              <path id="Trazado_174779" data-name="Trazado 174779" d="M1801.064,819.116a3.31,3.31,0,0,0-.254-3.068c-1.016-1.273-1.777-2.035-3.045-1.517s-2.53,2.311-1.013,3.58,3.3,2.287,4.312,1.005" transform="translate(-1717.529 -740.367)" fill="#fff"/>
              <path id="Trazado_174780" data-name="Trazado 174780" d="M1775.6,777.959a.9.9,0,0,0,.613-.545,3.226,3.226,0,0,0-.207-2.85c-1-1.752-1.5-2.25-2.746-1.487s-1.744,1.518-1.495,2.269a7.042,7.042,0,0,0,2.243,2.5,2.087,2.087,0,0,0,1.592.117" transform="translate(-1690.425 -702.514)" fill="#fff"/>
              <path id="Trazado_174781" data-name="Trazado 174781" d="M1739.887,747.131s-.531-1.329-2.124-.248-2.119,1.35-1.59,2.145,1.59,2.653,3.182,2.376,1.595-2.68.531-4.273" transform="translate(-1651.359 -678.631)" fill="#fff"/>
              <path id="Trazado_174782" data-name="Trazado 174782" d="M1693.255,732.736c.769-.005,1.025-.521,1.282-1.551a8.408,8.408,0,0,0,0-3.6c-.256-.511-1.282-.244-2.306.022s-2.045.532-2.045,1.045.46,4.1,3.07,4.081" transform="translate(-1601.299 -661.21)" fill="#fff"/>
              <path id="Trazado_174783" data-name="Trazado 174783" d="M1459.186,1046.261s.781-2.584,2.6-2.836,3.395-.505,3.918,1.314,0,3.893-3.4,4.13-3.126-2.609-3.126-2.609" transform="translate(-1351.462 -948.453)" fill="#fff"/>
              <path id="Trazado_174784" data-name="Trazado 174784" d="M1469.885,977.684s1.828-.776,2.351.781.523,3.375-1.307,4.406-3.91.762-4.431-1.569,1.822-3.361,3.386-3.618" transform="translate(-1358.774 -888.67)" fill="#fff"/>
              <path id="Trazado_174785" data-name="Trazado 174785" d="M1480.911,910.433c-.512-.847-1.038-3.1.52-4.138,2.042-1.357,3.123-1.818,4.167-.783s2.228,3.992.522,5.443c-1.826,1.552-4.055,1.386-5.208-.522" transform="translate(-1374.487 -822.718)" fill="#fff"/>
              <path id="Trazado_174786" data-name="Trazado 174786" d="M1504.138,863.618a1.546,1.546,0,0,1-1.216-.333,1.7,1.7,0,0,1-.56-.893c-.259-1.033,1.557-2.848,3.117-3.372a1.834,1.834,0,0,1,2.083,2.841,4.352,4.352,0,0,1-3.424,1.756" transform="translate(-1397.494 -780.88)" fill="#fff"/>
              <path id="Trazado_174787" data-name="Trazado 174787" d="M1525.3,817.561a3.319,3.319,0,0,1,.259-3.1c1.037-1.3,1.815-2.077,3.113-1.568s2.6,2.315,1.04,3.617-3.375,2.339-4.412,1.051" transform="translate(-1421.993 -738.885)" fill="#fff"/>
              <path id="Trazado_174788" data-name="Trazado 174788" d="M1556.9,776.379a.9.9,0,0,1-.622-.543,3.235,3.235,0,0,1,.21-2.874c1.015-1.781,1.523-2.291,2.795-1.541s1.782,1.509,1.528,2.272a7.262,7.262,0,0,1-2.291,2.55,2.144,2.144,0,0,1-1.619.135" transform="translate(-1455.252 -701.021)" fill="#fff"/>
              <path id="Trazado_174789" data-name="Trazado 174789" d="M1594.289,746.007s.537-1.345,2.148-.287,2.152,1.324,1.614,2.134-1.614,2.7-3.225,2.438-1.609-2.669-.537-4.286" transform="translate(-1496.041 -677.59)" fill="#fff"/>
              <path id="Trazado_174790" data-name="Trazado 174790" d="M1642.612,732.557c-.77.005-1.027-.507-1.284-1.533a8.422,8.422,0,0,1,0-3.6c.257-.517,1.284-.269,2.312-.022s2.059.5,2.059,1.011-.464,4.124-3.088,4.143" transform="translate(-1547.812 -661.051)" fill="#fff"/>
              <path id="Trazado_174791" data-name="Trazado 174791" d="M1852.957,1132.805s-.759,2.545-2.528,2.781-3.277.475-3.781-1.312,0-3.817,3.276-4.046,3.033,2.577,3.033,2.577" transform="translate(-1773.734 -1027.517)" fill="#fff"/>
              <path id="Trazado_174792" data-name="Trazado 174792" d="M1848.3,1197.146s-1.765.741-2.268-.794-.5-3.315,1.26-4.314,3.788-.725,4.294,1.578-1.77,3.3-3.285,3.53" transform="translate(-1772.358 -1083.222)" fill="#fff"/>
              <path id="Trazado_174793" data-name="Trazado 174793" d="M1832.929,1252.641c.5.844,1.014,3.081-.507,4.079-1.986,1.3-3.035,1.737-4.045.7s-2.15-3.956-.5-5.359c1.767-1.506,3.932-1.317,5.056.58" transform="translate(-1752.44 -1137.379)" fill="#fff"/>
              <path id="Trazado_174794" data-name="Trazado 174794" d="M1819.327,1322.4a1.516,1.516,0,0,1,1.188.35,1.72,1.72,0,0,1,.548.894c.254,1.027-1.522,2.784-3.041,3.267a1.829,1.829,0,0,1-2.022-2.842,4.124,4.124,0,0,1,3.328-1.669" transform="translate(-1739.051 -1202.23)" fill="#fff"/>
              <path id="Trazado_174795" data-name="Trazado 174795" d="M1801.064,1361.367a3.306,3.306,0,0,1-.254,3.065c-1.016,1.258-1.777,2.009-3.045,1.473s-2.53-2.347-1.013-3.594,3.3-2.24,4.312-.943" transform="translate(-1717.529 -1237.11)" fill="#fff"/>
              <path id="Trazado_174796" data-name="Trazado 174796" d="M1775.6,1402.955a.919.919,0,0,1,.613.554,3.22,3.22,0,0,1-.207,2.847c-1,1.737-1.5,2.229-2.746,1.448s-1.744-1.544-1.495-2.291a6.894,6.894,0,0,1,2.243-2.464,2.081,2.081,0,0,1,1.592-.094" transform="translate(-1690.425 -1275.371)" fill="#fff"/>
              <path id="Trazado_174797" data-name="Trazado 174797" d="M1739.887,1437.891s-.531,1.322-2.124.218-2.119-1.381-1.59-2.168,1.59-2.63,3.182-2.33,1.595,2.7.531,4.28" transform="translate(-1651.359 -1303.314)" fill="#fff"/>
              <path id="Trazado_174798" data-name="Trazado 174798" d="M1693.255,1448.283c.769.017,1.025.536,1.282,1.57a8.406,8.406,0,0,1,0,3.6c-.256.508-1.282.226-2.306-.056s-2.045-.562-2.045-1.075.46-4.093,3.07-4.037" transform="translate(-1601.299 -1316.682)" fill="#fff"/>
              <path id="Trazado_174799" data-name="Trazado 174799" d="M1459.186,1135.725s.781,2.6,2.6,2.874,3.395.554,3.918-1.257,0-3.893-3.4-4.18-3.126,2.563-3.126,2.563" transform="translate(-1351.462 -1030.177)" fill="#fff"/>
              <path id="Trazado_174800" data-name="Trazado 174800" d="M1469.885,1201.125s1.828.8,2.351-.747.523-3.367-1.307-4.425-3.91-.819-4.431,1.5,1.822,3.388,3.386,3.668" transform="translate(-1358.774 -1086.734)" fill="#fff"/>
              <path id="Trazado_174801" data-name="Trazado 174801" d="M1480.911,1257.092c-.512.84-1.038,3.087.52,4.146,2.042,1.387,3.123,1.863,4.167.844s2.228-3.96.522-5.436c-1.826-1.579-4.055-1.445-5.208.446" transform="translate(-1374.487 -1141.47)" fill="#fff"/>
              <path id="Trazado_174802" data-name="Trazado 174802" d="M1504.138,1327.041a1.53,1.53,0,0,0-1.216.315,1.665,1.665,0,0,0-.56.885c-.259,1.029,1.557,2.871,3.117,3.417a1.814,1.814,0,0,0,2.083-2.811,4.425,4.425,0,0,0-3.424-1.806" transform="translate(-1397.494 -1206.439)" fill="#fff"/>
              <path id="Trazado_174803" data-name="Trazado 174803" d="M1525.3,1365.7a3.323,3.323,0,0,0,.259,3.1c1.037,1.312,1.815,2.1,3.113,1.613s2.6-2.278,1.04-3.6-3.375-2.388-4.412-1.115" transform="translate(-1421.993 -1241.084)" fill="#fff"/>
              <path id="Trazado_174804" data-name="Trazado 174804" d="M1556.9,1406.824a.881.881,0,0,0-.622.534,3.242,3.242,0,0,0,.21,2.877c1.015,1.8,1.523,2.313,2.795,1.581s1.782-1.483,1.528-2.25a7.417,7.417,0,0,0-2.291-2.583,2.152,2.152,0,0,0-1.619-.159" transform="translate(-1455.252 -1278.915)" fill="#fff"/>
              <path id="Trazado_174805" data-name="Trazado 174805" d="M1594.289,1440.514s.537,1.353,2.148.318,2.152-1.293,1.614-2.111-1.614-2.719-3.225-2.485-1.609,2.645-.537,4.278" transform="translate(-1496.041 -1305.712)" fill="#fff"/>
              <path id="Trazado_174806" data-name="Trazado 174806" d="M1642.612,1448.962c-.77-.017-1.027.492-1.284,1.514a8.424,8.424,0,0,0,0,3.6c.257.52,1.284.288,2.312.056s2.059-.466,2.059-.981-.464-4.131-3.088-4.188" transform="translate(-1547.812 -1317.3)" fill="#fff"/>
              <g id="Grupo_156925" data-name="Grupo 156925" transform="translate(132.242 70.711)" opacity="0.51">
                <g id="Grupo_156924" data-name="Grupo 156924">
                  <g id="Grupo_156923" data-name="Grupo 156923" clip-path="url(#clip-path-10)">
                    <path id="Trazado_174807" data-name="Trazado 174807" d="M703.148,780.665,647.187,781V778.59l55.962-.4Z" transform="translate(-647.187 -778.19)" fill="#fff"/>
                  </g>
                </g>
              </g>
              <g id="Grupo_156928" data-name="Grupo 156928" transform="translate(132.242 76.303)" opacity="0.51">
                <g id="Grupo_156927" data-name="Grupo 156927">
                  <g id="Grupo_156926" data-name="Grupo 156926" clip-path="url(#clip-path-11)">
                    <path id="Trazado_174808" data-name="Trazado 174808" d="M703.148,842.206l-55.962.194v-2.412l55.962-.257Z" transform="translate(-647.187 -839.731)" fill="#fff"/>
                  </g>
                </g>
              </g>
              <g id="Grupo_156931" data-name="Grupo 156931" transform="translate(132.242 81.895)" opacity="0.51">
                <g id="Grupo_156930" data-name="Grupo 156930">
                  <g id="Grupo_156929" data-name="Grupo 156929" clip-path="url(#clip-path-12)">
                    <path id="Trazado_174809" data-name="Trazado 174809" d="M703.148,903.746l-55.962.051v-2.412l55.962-.114Z" transform="translate(-647.187 -901.271)" fill="#fff"/>
                  </g>
                </g>
              </g>
              <g id="Grupo_156934" data-name="Grupo 156934" transform="translate(132.242 87.459)" opacity="0.51">
                <g id="Grupo_156933" data-name="Grupo 156933">
                  <g id="Grupo_156932" data-name="Grupo 156932" clip-path="url(#clip-path-13)">
                    <path id="Trazado_174810" data-name="Trazado 174810" d="M703.148,965l-55.962-.092V962.5l55.962.029Z" transform="translate(-647.187 -962.497)" fill="#fff"/>
                  </g>
                </g>
              </g>
              <g id="Grupo_156937" data-name="Grupo 156937" transform="translate(132.242 110.072)" opacity="0.51">
                <g id="Grupo_156936" data-name="Grupo 156936">
                  <g id="Grupo_156935" data-name="Grupo 156935" clip-path="url(#clip-path-14)">
                    <path id="Trazado_174811" data-name="Trazado 174811" d="M703.148,1214.46l-55.962-.685v-2.412l55.962.622Z" transform="translate(-647.187 -1211.363)" fill="#fff"/>
                  </g>
                </g>
              </g>
              <g id="Grupo_156940" data-name="Grupo 156940" transform="translate(132.242 115.521)" opacity="0.51">
                <g id="Grupo_156939" data-name="Grupo 156939">
                  <g id="Grupo_156938" data-name="Grupo 156938" clip-path="url(#clip-path-15)">
                    <path id="Trazado_174812" data-name="Trazado 174812" d="M703.148,1274.571l-55.962-.828v-2.412l55.962.765Z" transform="translate(-647.187 -1271.331)" fill="#fff"/>
                  </g>
                </g>
              </g>
              <g id="Grupo_156943" data-name="Grupo 156943" transform="translate(132.242 120.971)" opacity="0.51">
                <g id="Grupo_156942" data-name="Grupo 156942">
                  <g id="Grupo_156941" data-name="Grupo 156941" clip-path="url(#clip-path-16)">
                    <path id="Trazado_174813" data-name="Trazado 174813" d="M703.148,1334.681l-55.962-.971V1331.3l55.962.908Z" transform="translate(-647.187 -1331.298)" fill="#fff"/>
                  </g>
                </g>
              </g>
              <g id="Grupo_156946" data-name="Grupo 156946" transform="translate(132.242 126.42)" opacity="0.51">
                <g id="Grupo_156945" data-name="Grupo 156945">
                  <g id="Grupo_156944" data-name="Grupo 156944" clip-path="url(#clip-path-17)">
                    <path id="Trazado_174814" data-name="Trazado 174814" d="M703.148,1394.792l-55.962-1.114v-2.412l55.962,1.051Z" transform="translate(-647.187 -1391.266)" fill="#fff"/>
                  </g>
                </g>
              </g>
              <g id="Grupo_156949" data-name="Grupo 156949" transform="translate(61.498 149.075)" opacity="0.51">
                <g id="Grupo_156948" data-name="Grupo 156948">
                  <g id="Grupo_156947" data-name="Grupo 156947" clip-path="url(#clip-path-18)">
                    <path id="Trazado_174815" data-name="Trazado 174815" d="M625.117,1644.595l128.711,5.018v-4.383l-128.711-4.64Z" transform="translate(-625.117 -1640.589)" fill="#fff"/>
                  </g>
                </g>
              </g>
              <g id="Grupo_950961" data-name="Grupo 950961">
                <path id="Trazado_174816" data-name="Trazado 174816" d="M2018.421,1754.39c2.838-2.756,9.058-5.854,14.352-5.227,9.455,1.12,18.4,7.28,14.773,29.214-3.543,21.411-5.678,51.148-16.208,51.148-6.247,0-8.78-5.414-10.046-10.36s-3.124-12.787-6.247-12.88-4.727,7.642-5.74,12.4-2.545,10.853-7.351,10.373-10.63-11.3-13.754-28.75-9.033-44.8,5.74-49.655c11.141-3.66,15.449,12.507,24.482,3.733" transform="translate(-1981.673 -1590.148)" fill="#fff"/>
                <path id="Trazado_174817" data-name="Trazado 174817" d="M2332.285,1774.946c-3.3-.547-4.625-4.014-7.767-7.094a18.492,18.492,0,0,0-1.4-1.242c6.458,2.211,10.555,9.878,17.077,4.464-2.18,2.284-4.989,4.355-7.907,3.872" transform="translate(-2304.274 -1606.084)" fill="#d8dee8"/>
                <g transform="matrix(1, 0, 0, 1, 0, -4.63)" filter="url(#Trazado_174818)">
                  <path id="Trazado_174818-2" data-name="Trazado 174818" d="M1992.436,1822.981c6.058-2.034,3.317-20.512,11.143-25.19,5.748-3.435,11.348,2.665,16.209-1.587,2.4-2.1,1.731-4.2,3.925-12.181,3.931-14.295,8.758-17.368,6.88-23.287-1.465-4.619-5.549-6.955-7.091-7.84a15.477,15.477,0,0,0-8.32-2,17.545,17.545,0,0,1,9-1.731c9.455,1.12,18.4,7.28,14.773,29.214-3.543,21.411-5.678,51.148-16.209,51.148-6.247,0-8.779-5.413-10.046-10.36s-3.124-12.787-6.247-12.88-4.727,7.643-5.74,12.4-2.545,10.853-7.351,10.374c-2.991-.3-6.178-3.922-9-11.36,1.962,5.17,6.218,5.9,8.078,5.28" transform="translate(-1973.08 -1585.52)" fill="#d8dee8"/>
                </g>
                <path id="Trazado_174819" data-name="Trazado 174819" d="M1348.357,1781.6c3.042-2.955,9.711-6.276,15.385-5.6,10.136,1.2,19.73,7.8,15.838,31.32-3.8,22.954-6.087,54.834-17.376,54.834-6.7,0-9.413-5.8-10.77-11.107s-3.349-13.708-6.7-13.809-5.068,8.193-6.154,13.3-2.729,11.636-7.88,11.121-11.4-12.11-14.745-30.822-9.684-48.03,6.154-53.234c11.944-3.924,16.563,13.408,26.246,4" transform="translate(-1252.658 -1614.535)" fill="#fff"/>
                <path id="Trazado_174820" data-name="Trazado 174820" d="M1684.84,1803.635c-3.539-.587-4.958-4.3-8.326-7.6a19.774,19.774,0,0,0-1.5-1.332c6.923,2.37,11.316,10.59,18.307,4.786-2.337,2.448-5.348,4.669-8.477,4.151" transform="translate(-1598.508 -1631.62)" fill="#d8dee8"/>
                <g transform="matrix(1, 0, 0, 1, 0, -4.63)" filter="url(#Trazado_174821)">
                  <path id="Trazado_174821-2" data-name="Trazado 174821" d="M1320.5,1855.131c6.494-2.18,3.556-21.991,11.947-27.005,6.161-3.682,12.166,2.857,17.377-1.7,2.576-2.253,1.856-4.5,4.208-13.058,4.215-15.325,9.389-18.619,7.376-24.966-1.571-4.951-5.948-7.456-7.6-8.405a16.591,16.591,0,0,0-8.92-2.146,18.81,18.81,0,0,1,9.644-1.856c10.136,1.2,19.73,7.8,15.838,31.32-3.8,22.954-6.088,54.834-17.377,54.834-6.7,0-9.412-5.8-10.77-11.107s-3.349-13.709-6.7-13.809-5.068,8.193-6.154,13.3-2.729,11.635-7.881,11.121c-3.207-.32-6.624-4.2-9.649-12.179,2.1,5.542,6.666,6.33,8.66,5.661" transform="translate(-1243.44 -1609.91)" fill="#d8dee8"/>
                </g>
                <path id="Trazado_174822" data-name="Trazado 174822" d="M622.128,1781.96c3.237-3.144,10.332-6.677,16.37-5.962,10.785,1.278,20.992,8.3,16.852,33.324-4.042,24.423-6.477,58.344-18.489,58.344-7.126,0-10.015-6.175-11.459-11.818s-3.563-14.586-7.126-14.693-5.393,8.718-6.548,14.148-2.9,12.38-8.385,11.833-12.126-12.885-15.689-32.794-10.3-51.1,6.548-56.641c12.708-4.175,17.622,14.267,27.926,4.259" transform="translate(-462.281 -1614.534)" fill="#fff"/>
                <path id="Trazado_174823" data-name="Trazado 174823" d="M980.147,1805.41c-3.766-.624-5.275-4.578-8.859-8.091a21.091,21.091,0,0,0-1.6-1.417c7.366,2.522,12.04,11.268,19.479,5.092-2.487,2.6-5.69,4.968-9.019,4.416" transform="translate(-830.267 -1632.714)" fill="#d8dee8"/>
                <g transform="matrix(1, 0, 0, 1, 0, -4.63)" filter="url(#Trazado_174824)">
                  <path id="Trazado_174824-2" data-name="Trazado 174824" d="M592.486,1860.2c6.91-2.32,3.784-23.4,12.711-28.733,6.556-3.918,12.944,3.04,18.489-1.81,2.74-2.4,1.975-4.792,4.478-13.894,4.484-16.306,9.99-19.811,7.848-26.564-1.671-5.268-6.329-7.933-8.089-8.943a17.656,17.656,0,0,0-9.491-2.284A20.016,20.016,0,0,1,628.694,1776c10.785,1.278,20.992,8.3,16.852,33.324-4.042,24.423-6.477,58.344-18.489,58.344-7.126,0-10.015-6.175-11.459-11.818s-3.563-14.586-7.126-14.693-5.393,8.718-6.548,14.148-2.9,12.38-8.385,11.833c-3.412-.341-7.048-4.474-10.266-12.958,2.237,5.9,7.092,6.735,9.214,6.023" transform="translate(-452.48 -1609.91)" fill="#d8dee8"/>
                </g>
              </g>
            </g>
          </g>
          <path id="Trazado_174838" data-name="Trazado 174838" d="M247.012,0H0V254.426H247.012Z" fill="none"/>
        </g>
        <g id="Grupo_948462" data-name="Grupo 948462" transform="translate(1203.63 907)">
          <path id="Trazado_656002" data-name="Trazado 656002" d="M387.309,323.452a12.209,12.209,0,0,1,5.543-9.561c1.652-.954,3.135-.979,4.152-.251l3.053,2.165-1.877-.38a5.829,5.829,0,0,1,.215,1.626,12.223,12.223,0,0,1-5.543,9.561c-.2.117-.4.218-.6.307l-.3,2.2-3.006-2.083v-.021A3.838,3.838,0,0,1,387.309,323.452Z" transform="translate(-387.309 -97.382)" fill="#90bfd6"/>
          <path id="Trazado_656003" data-name="Trazado 656003" d="M394.162,314.821a12.209,12.209,0,0,0-5.543,9.561c0,3.512,2.481,4.927,5.543,3.161a12.217,12.217,0,0,0,5.543-9.561C399.706,314.467,397.224,313.052,394.162,314.821Z" transform="translate(-385.55 -96.136)" fill="#7aa6c1"/>
          <path id="Trazado_656004" data-name="Trazado 656004" d="M392.4,316.082a5.453,5.453,0,0,0-2.474,4.267c0,1.57,1.108,2.2,2.474,1.41a5.449,5.449,0,0,0,2.474-4.266C394.877,315.925,393.769,315.292,392.4,316.082Z" transform="translate(-383.791 -93.875)" fill="#477389"/>
          <path id="Trazado_656005" data-name="Trazado 656005" d="M396.68,317.443c-1.488.869-6.218,2.737-7.755,1.931-1.879-.984.747-5.122,2.24-5.981a6.261,6.261,0,0,1,5.546.162A2.116,2.116,0,0,1,396.68,317.443Z" transform="translate(-386.015 -97.8)" fill="#acd9e8"/>
          <path id="Trazado_656006" data-name="Trazado 656006" d="M395.052,316.056a5.335,5.335,0,0,1-4.824-.009c-1.335-.771-1.342-2.017-.014-2.786a5.335,5.335,0,0,1,4.824.009C396.373,314.041,396.38,315.29,395.052,316.056Z" transform="translate(-384.741 -97.975)" fill="#e6f5ff"/>
          <path id="Trazado_656007" data-name="Trazado 656007" d="M391.981,324.494a2.292,2.292,0,0,1-2.291-2.291V308.728a2.29,2.29,0,0,1,4.58,0V322.2A2.29,2.29,0,0,1,391.981,324.494Z" transform="translate(-384.112 -106.368)" fill="#4085a0"/>
          <path id="Trazado_656008" data-name="Trazado 656008" d="M407.65,335.066a12.209,12.209,0,0,1,5.543-9.559c1.652-.956,3.135-.979,4.152-.251l3.055,2.165-1.877-.379a5.816,5.816,0,0,1,.213,1.626,12.217,12.217,0,0,1-5.543,9.561c-.2.115-.4.218-.6.307l-.3,2.2-3.006-2.083v-.021A3.841,3.841,0,0,1,407.65,335.066Z" transform="translate(-359.993 -81.784)" fill="#90bfd6"/>
          <path id="Trazado_656009" data-name="Trazado 656009" d="M414.5,326.437A12.209,12.209,0,0,0,408.96,336c0,3.512,2.481,4.927,5.543,3.161a12.216,12.216,0,0,0,5.543-9.561C420.047,326.083,417.566,324.668,414.5,326.437Z" transform="translate(-358.234 -80.537)" fill="#7aa6c1"/>
          <path id="Trazado_656010" data-name="Trazado 656010" d="M412.853,327.86a5.457,5.457,0,0,0-2.474,4.269c0,1.567,1.108,2.2,2.474,1.41a5.453,5.453,0,0,0,2.474-4.266C415.327,327.7,414.219,327.073,412.853,327.86Z" transform="translate(-356.328 -78.057)" fill="#477389"/>
          <path id="Trazado_656011" data-name="Trazado 656011" d="M417.009,329.043c-1.488.869-6.3,3.374-7.839,2.57-1.881-.986.832-5.761,2.324-6.623a6.261,6.261,0,0,1,5.546.162A2.118,2.118,0,0,1,417.009,329.043Z" transform="translate(-358.813 -82.226)" fill="#acd9e8"/>
          <path id="Trazado_656012" data-name="Trazado 656012" d="M415.339,327.651a5.328,5.328,0,0,1-4.824-.007c-1.335-.773-1.342-2.02-.014-2.786a5.33,5.33,0,0,1,4.822.009C416.66,325.639,416.667,326.885,415.339,327.651Z" transform="translate(-357.497 -82.4)" fill="#e6f5ff"/>
          <path id="Trazado_656013" data-name="Trazado 656013" d="M412.268,336.09a2.29,2.29,0,0,1-2.291-2.289V320.327a2.29,2.29,0,1,1,4.58,0V333.8A2.288,2.288,0,0,1,412.268,336.09Z" transform="translate(-356.868 -90.795)" fill="#4085a0"/>
          <path id="Trazado_656014" data-name="Trazado 656014" d="M436.226,320.6a12.209,12.209,0,0,1,5.543-9.561c1.654-.956,3.135-.979,4.152-.251l3.055,2.165-1.877-.38a5.83,5.83,0,0,1,.213,1.626,12.217,12.217,0,0,1-5.543,9.561c-.2.117-.4.218-.6.309l-.3,2.2-3.006-2.083v-.021A3.84,3.84,0,0,1,436.226,320.6Z" transform="translate(-321.618 -101.216)" fill="#90bfd6"/>
          <path id="Trazado_656015" data-name="Trazado 656015" d="M443.079,311.967a12.216,12.216,0,0,0-5.543,9.561c0,3.512,2.484,4.927,5.543,3.161a12.217,12.217,0,0,0,5.543-9.561C448.623,311.613,446.141,310.2,443.079,311.967Z" transform="translate(-319.858 -99.968)" fill="#7aa6c1"/>
          <path id="Trazado_656016" data-name="Trazado 656016" d="M441.429,313.392a5.45,5.45,0,0,0-2.474,4.266c0,1.567,1.108,2.2,2.474,1.41A5.453,5.453,0,0,0,443.9,314.8C443.9,313.235,442.795,312.6,441.429,313.392Z" transform="translate(-317.953 -97.488)" fill="#477389"/>
          <path id="Trazado_656017" data-name="Trazado 656017" d="M445.585,314.572c-1.488.869-6.3,3.376-7.839,2.57-1.881-.986.832-5.761,2.324-6.623a6.261,6.261,0,0,1,5.546.164A2.116,2.116,0,0,1,445.585,314.572Z" transform="translate(-320.438 -101.658)" fill="#acd9e8"/>
          <path id="Trazado_656018" data-name="Trazado 656018" d="M443.915,313.184a5.335,5.335,0,0,1-4.824-.009c-1.336-.771-1.343-2.017-.014-2.786a5.331,5.331,0,0,1,4.822.009C445.236,311.169,445.243,312.415,443.915,313.184Z" transform="translate(-319.122 -101.832)" fill="#e6f5ff"/>
          <path id="Trazado_656019" data-name="Trazado 656019" d="M440.843,321.622a2.292,2.292,0,0,1-2.291-2.291V305.856a2.29,2.29,0,0,1,4.58,0V319.33A2.29,2.29,0,0,1,440.843,321.622Z" transform="translate(-318.494 -110.225)" fill="#4085a0"/>
          <path id="Trazado_656020" data-name="Trazado 656020" d="M514.263,324.493v-7.942l-7.3,2.54L463.974,294.27a10.357,10.357,0,0,0-9.339.016l-58.069,33.525-.042-1.293-8.114-.7v7.9c-.208,1.106.412,2.256,1.87,3.1l4.194,2.42a3.052,3.052,0,0,0,2.762,0c10.316-5.956,27.143-5.986,37.4-.068,6.9,3.985,9.123,9.688,6.7,14.807l-7.38-.64v8.151a.5.5,0,0,0,0,.145v.073l.012,0a1.046,1.046,0,0,0,.544.644l4.194,2.42a10.357,10.357,0,0,0,9.339-.016l64.327-37.138C513.839,326.764,514.469,325.606,514.263,324.493Z" transform="translate(-385.883 -124.193)" fill="#4f9abf"/>
          <path id="Trazado_656021" data-name="Trazado 656021" d="M390.282,333.325l4.194,2.423a3.059,3.059,0,0,0,2.762,0h0c10.316-5.956,27.143-5.986,37.4-.068h0c10.25,5.918,10.2,15.634-.117,21.59h0a.84.84,0,0,0-.009,1.593l4.194,2.423a10.358,10.358,0,0,0,9.339-.016l64.327-37.14c2.575-1.485,2.589-3.913.028-5.391l-48.419-27.956a10.358,10.358,0,0,0-9.339.019L390.31,327.934C387.735,329.422,387.721,331.847,390.282,333.325Z" transform="translate(-385.884 -128.881)" fill="#65b6d6"/>
          <g id="Grupo_948462-2" data-name="Grupo 948462" transform="translate(24.591 99.684)">
            <path id="Trazado_656022" data-name="Trazado 656022" d="M447.482,358.889l-3.971-2.416-44.389-27,.054-.1a4.4,4.4,0,0,1-1.371-3.61V289.632a35.763,35.763,0,0,1,.932-7.861l46.7,26.958,1.947,1.127h0c-.1.389-.2.78-.293,1.169-.063.246-.117.49-.166.738-.033.145-.059.288-.091.433-.075.356-.138.712-.2,1.064-.04.23-.082.459-.112.689-.091.586-.166,1.167-.23,1.75-.023.192-.042.387-.059.581-.028.288-.049.576-.063.86-.009.087-.014.176-.019.262-.009.157-.019.319-.023.483-.016.424-.026.841-.026,1.26v36.123c0,.082,0,.159,0,.239s0,.157.009.23.007.155.016.225c.014.176.037.344.063.506.014.089.033.176.054.26A3.573,3.573,0,0,0,447.482,358.889Z" transform="translate(-397.805 -239.178)" fill="#c2e2ef"/>
            <path id="Trazado_656023" data-name="Trazado 656023" d="M438.387,310.327a26.329,26.329,0,0,0-.26,3.636v28.513a1.208,1.208,0,0,1-1.835,1.038l-35.2-21.414.042-.082a3.463,3.463,0,0,1-1.082-2.849V290.691c0-.253,0-.5.014-.761,0-.22.014-.441.031-.663.009-.162.019-.328.038-.49.016-.321.049-.642.089-.965a2.272,2.272,0,0,1,3.371-1.7l.122.07L435.5,304.538A5.8,5.8,0,0,1,438.387,310.327Z" transform="translate(-394.793 -233.742)" fill="#b3dbe8"/>
            <path id="Trazado_656024" data-name="Trazado 656024" d="M438.127,339.9v2.577a1.208,1.208,0,0,1-1.835,1.038l-35.2-21.414.042-.082a3.463,3.463,0,0,1-1.082-2.849V290.691c0-.253,0-.5.014-.761,0-.22.014-.441.031-.663.009-.162.019-.328.038-.49.016-.321.049-.642.089-.965a2.272,2.272,0,0,1,3.371-1.7l.122.07c-.049.658-.084,1.312-.084,1.952v28.478a3.469,3.469,0,0,0,1.08,2.849l-.045.082Z" transform="translate(-394.793 -233.742)" fill="#e6f5ff"/>
            <path id="Trazado_656025" data-name="Trazado 656025" d="M490.284,293.4l-47.676-29.071a2.413,2.413,0,0,0-1.052-.64l-.166-.1-.028.054a3.365,3.365,0,0,0-2.357.5l-30.863,17.82a25.165,25.165,0,0,0-5.529,4.452l69.648,40.209Z" transform="translate(-391.35 -263.592)" fill="#e6f5ff"/>
            <path id="Trazado_656026" data-name="Trazado 656026" d="M408.533,273.334A43.552,43.552,0,0,0,398.2,293.1l69.346,40.038,10.632-19.6Z" transform="translate(-397.27 -250.509)" fill="#cbe9f7"/>
          </g>
          <path id="Trazado_656027" data-name="Trazado 656027" d="M470.76,280.288v52.263c0,3.435-2.111,7.464-4.688,8.95L423.1,366.311a3.542,3.542,0,0,1-2.087.546,2.331,2.331,0,0,1-1.216-.469,3.573,3.573,0,0,1-1.232-2.16c-.021-.084-.04-.171-.054-.26-.026-.162-.049-.33-.063-.506-.009-.075-.012-.148-.016-.225s-.009-.152-.009-.23,0-.157,0-.239V326.645c0-.419.009-.836.026-1.26,0-.164.014-.321.023-.483,0-.087.009-.176.019-.262.014-.284.035-.572.063-.86.016-.195.035-.389.058-.581.059-.583.134-1.164.23-1.75.03-.23.073-.459.112-.689.063-.351.127-.708.2-1.064.033-.145.058-.288.091-.433.049-.248.1-.492.166-.738.087-.389.185-.78.288-1.169,2.533-9.564,8.542-18.774,15.51-22.794l30.863-17.818c.063-.035.122-.07.185-.1C468.749,275.333,470.76,276.933,470.76,280.288Z" transform="translate(-345.531 -146.993)" fill="#acd2e5"/>
          <path id="Trazado_656028" data-name="Trazado 656028" d="M467.669,276.743c-8,5.356-16.133,10.48-24.317,15.515L437.235,296a24.372,24.372,0,0,0-5.061,4.386,40.024,40.024,0,0,0-7.064,11.7,39.425,39.425,0,0,0-2.875,13.238c-.019,1.073,0,2.322.016,3.512l.038,3.6.07,7.207.068,7.2.033,7.2c.016,4.206.044,8.406.04,12.612a2.33,2.33,0,0,1-1.216-.469l-3.971-2.416q.007-4.864.035-9.728l.033-7.2.066-7.2.073-7.207.037-3.6c.016-1.207.012-2.362.066-3.692a38.639,38.639,0,0,1,1.614-9.109,47.913,47.913,0,0,1,2.048-5.557,43.942,43.942,0,0,1,8.238-12.553,27.727,27.727,0,0,1,5.981-4.791c.286-.176.551-.319.813-.459l.792-.429,1.584-.86,3.163-1.722c8.451-4.576,16.958-9.051,25.589-13.305a.224.224,0,0,1,.3.094l0,.009A.216.216,0,0,1,467.669,276.743Z" transform="translate(-347.016 -146.799)" fill="#b9e0ef"/>
          <path id="Trazado_656029" data-name="Trazado 656029" d="M408.617,313.753l-3.9-2.251a3.817,3.817,0,0,1-1.591-3.039V293.152c0-1.167.715-1.708,1.591-1.2l3.9,2.249a3.825,3.825,0,0,1,1.591,3.041v15.311C410.208,313.718,409.494,314.259,408.617,313.753Zm13.345,5.569V304.011a3.817,3.817,0,0,0-1.591-3.039l-3.9-2.252c-.876-.506-1.591.035-1.591,1.2v15.311a3.825,3.825,0,0,0,1.591,3.041l3.9,2.252C421.248,321.03,421.963,320.489,421.963,319.322Zm11.5,7.155V311.166a3.819,3.819,0,0,0-1.593-3.039l-3.9-2.252c-.874-.506-1.591.035-1.591,1.2v15.311a3.831,3.831,0,0,0,1.591,3.041l3.9,2.252C432.747,328.185,433.464,327.644,433.464,326.477Z" transform="translate(-366.065 -126.081)" fill="#558293"/>
          <g id="Grupo_948463" data-name="Grupo 948463" transform="translate(37.063 165.686)">
            <path id="Trazado_656030" data-name="Trazado 656030" d="M409.639,313.238l-3.9-2.251a3.823,3.823,0,0,1-1.591-3.039V292.637a1.934,1.934,0,0,1,.176-.846c-.686-.159-1.2.372-1.2,1.356v15.311a3.817,3.817,0,0,0,1.591,3.039l3.9,2.251a.918.918,0,0,0,1.415-.356A1.437,1.437,0,0,1,409.639,313.238Z" transform="translate(-403.128 -291.763)" fill="#e6f5ff"/>
            <path id="Trazado_656031" data-name="Trazado 656031" d="M419.566,319.182l-3.9-2.249a3.831,3.831,0,0,1-1.591-3.041V298.581a1.936,1.936,0,0,1,.176-.846c-.684-.159-1.2.372-1.2,1.357V314.4a3.825,3.825,0,0,0,1.591,3.041l3.9,2.252a.922.922,0,0,0,1.418-.358A1.408,1.408,0,0,1,419.566,319.182Z" transform="translate(-389.8 -283.781)" fill="#e6f5ff"/>
            <path id="Trazado_656032" data-name="Trazado 656032" d="M414.658,316.13l-3.9-2.252a3.831,3.831,0,0,1-1.591-3.041V295.527a1.935,1.935,0,0,1,.176-.846c-.686-.159-1.2.373-1.2,1.357v15.311a3.825,3.825,0,0,0,1.591,3.041l3.9,2.251a.919.919,0,0,0,1.415-.358A1.467,1.467,0,0,1,414.658,316.13Z" transform="translate(-396.391 -287.882)" fill="#e6f5ff"/>
          </g>
          <path id="Trazado_656033" data-name="Trazado 656033" d="M441.34,289.391l-15.07-8.812-10.393-11.244-7.746,21.039c-2.474,6.389-.82,13.579,5.021,16.951,7.7,4.445,19.28-.822,26.932-5.239a16.206,16.206,0,0,0,2.266-1.567A6.842,6.842,0,0,0,441.34,289.391Z" transform="translate(-360.837 -156.195)" fill="#659cdb" opacity="0.22" style="mix-blend-mode: multiply;isolation: isolate"/>
          <path id="Trazado_656034" data-name="Trazado 656034" d="M430.289,287.843c-4.857,2.8-12.755,2.79-17.64-.033s-4.913-7.38-.056-10.185,12.755-2.788,17.64.033S435.146,285.038,430.289,287.843Z" transform="translate(-358.224 -147.873)" fill="#4f9abf"/>
          <path id="Trazado_656035" data-name="Trazado 656035" d="M443.618,291.089l-4.826-22.152-24.659-.255-7.746,21.042c-2.476,6.387-.82,13.577,5.021,16.949,7.7,4.447,19.28-.82,26.932-5.239C443.194,298.63,444.949,294.713,443.618,291.089Z" transform="translate(-363.181 -157.074)" fill="#58abcc"/>
          <path id="Trazado_656036" data-name="Trazado 656036" d="M434.634,268.829l-6.644-.068-5.492,4.925s4.47,36.8-13.16,33.6c-.337-.061-.656-.112-.965-.162,7.668,3.381,18.521-1.591,25.81-5.8,4.854-2.8,6.609-6.72,5.279-10.344Z" transform="translate(-359.023 -156.967)" fill="#4f9abf"/>
          <path id="Trazado_656037" data-name="Trazado 656037" d="M430.289,278.245c-4.857,2.8-12.755,2.79-17.64-.033s-4.913-7.38-.056-10.185,12.755-2.788,17.64.033S435.146,275.44,430.289,278.245Z" transform="translate(-358.224 -160.762)" fill="#65b6d6"/>
          <path id="Trazado_656038" data-name="Trazado 656038" d="M442.9,276.074l-22.152-12.933a2.176,2.176,0,0,1-.628-3.4l11.155-10.78a2.124,2.124,0,0,1,2.64-.408L456.224,260.7a1.914,1.914,0,0,1,.18,3l-10.869,11.972A2.124,2.124,0,0,1,442.9,276.074Z" transform="translate(-344.013 -184.497)" fill="#c0def2"/>
          <path id="Trazado_656039" data-name="Trazado 656039" d="M422.535,247.781l6.4,1.118,3.641,3.514s-7.38.223-7.54.063S422.535,247.781,422.535,247.781Z" transform="translate(-340.003 -185.141)" fill="#c0def2"/>
          <path id="Trazado_656040" data-name="Trazado 656040" d="M468.075,299.4l-31.857,18.314-15.8,17.42,1.107,1.66,49.617-29.217Z" transform="translate(-342.847 -115.818)" fill="#65b6d6"/>
          <g id="Grupo_948466" data-name="Grupo 948466" transform="translate(2.424 48.529)">
            <path id="Trazado_656041" data-name="Trazado 656041" d="M503.464,296.372c6.492-3.146,6.5-9.533,1.638-12.345L443.6,252.9c-4.869-2.811-12.268-3.095-16.527-.637l-26.023,15.025h0l-9.658,1.148c-4.259,2.458-4.6,9.582,2.57,13.123l58.765,33.928c4.869,2.812,12.267,3.1,16.527.637l8.191-4.728h0Z" transform="translate(-388.344 -229.893)" fill="#acd2e5"/>
            <path id="Trazado_656042" data-name="Trazado 656042" d="M502.54,294.3c4.259-2.458,3.765-6.729-1.1-9.54l-58.765-33.928c-4.869-2.812-12.267-3.1-16.527-.637L400.122,265.22h0l-8.191,4.73c-4.259,2.458-3.765,6.729,1.1,9.54L451.8,313.419c4.868,2.811,12.267,3.095,16.527.637l8.191-4.73h0ZM395.816,272.2l.48-.279a1.746,1.746,0,0,1,1.963.33,9.656,9.656,0,0,0,2.966,2.514l8.676,5.009c2.943,1.7,3.636,4.215,1.654,5.991h0l-.019.009a.98.98,0,0,1-.886-.033l-14.219-8.21C393.712,275.955,393.435,273.568,395.816,272.2Zm59.381,39.26-14.219-8.21c-.258-.15-.286-.38-.059-.511l.019-.009h0a13.258,13.258,0,0,1,10.377.953l8.676,5.009a16.833,16.833,0,0,0,4.356,1.713c.829.206,1.139.806.569,1.134l-.478.277C462.055,313.187,457.919,313.027,455.2,311.455Z" transform="translate(-387.42 -232.676)" fill="#e6f5ff"/>
            <path id="Trazado_656043" data-name="Trazado 656043" d="M472.016,263.625c2.872-1.392,2.875-5.726.724-6.968l-27.194-12.251a8.113,8.113,0,0,0-7.308-.284l-11.506,6.645h0l-4.461-.626c-1.884,1.087-1.844,5.37,1.326,6.935l25.983,15a8.12,8.12,0,0,0,7.308.281l3.622-2.09h0Z" transform="translate(-344.483 -239.576)" fill="#acd2e5"/>
            <path id="Trazado_656044" data-name="Trazado 656044" d="M471.543,262c1.884-1.087,1.666-2.975-.487-4.22l-25.983-15a8.12,8.12,0,0,0-7.308-.281l-11.506,6.645h0l-3.622,2.09c-1.884,1.087-1.664,2.975.487,4.22l25.983,15a8.12,8.12,0,0,0,7.308.281l3.622-2.092h0Z" transform="translate(-344.011 -241.758)" fill="#e6f5ff"/>
            <path id="Trazado_656045" data-name="Trazado 656045" d="M411.092,257.922l-2.755-1.591c-.34-.2-.3-.539.1-.766l1.171-.677a1.482,1.482,0,0,1,1.328-.054l2.753,1.588c.342.2.3.541-.094.768l-1.172.675A1.475,1.475,0,0,1,411.092,257.922Zm5.965,2.622,1.172-.677c.394-.225.436-.569.1-.766l-2.755-1.589a1.475,1.475,0,0,0-1.328.054l-1.172.677c-.394.227-.436.569-.094.766l2.753,1.591A1.476,1.476,0,0,0,417.057,260.543Zm4.637,2.678,1.171-.677c.394-.227.436-.569.1-.766l-2.753-1.591a1.475,1.475,0,0,0-1.328.056l-1.174.677c-.391.225-.436.569-.094.766l2.753,1.589A1.475,1.475,0,0,0,421.693,263.221Zm4.637,2.678,1.171-.677c.394-.227.436-.572.1-.766l-2.753-1.591a1.482,1.482,0,0,0-1.328.054l-1.171.677c-.394.227-.436.572-.1.768L425,265.953A1.482,1.482,0,0,0,426.33,265.9Zm4.637,2.676,1.174-.677c.391-.225.436-.569.094-.766l-2.753-1.589a1.475,1.475,0,0,0-1.328.054l-1.171.677c-.394.227-.436.569-.1.766l2.753,1.591A1.475,1.475,0,0,0,430.967,268.575Zm4.637,2.678,1.174-.677c.394-.227.436-.569.094-.766l-2.753-1.591a1.475,1.475,0,0,0-1.328.056l-1.171.677c-.394.225-.436.569-.1.766l2.755,1.589A1.47,1.47,0,0,0,435.6,271.253Zm-20.7-15.531-2.755-1.591c-.34-.2-.3-.539.1-.766l1.171-.677a1.483,1.483,0,0,1,1.328-.056l2.755,1.591c.34.2.3.539-.1.766l-1.171.677A1.476,1.476,0,0,1,414.9,255.722Zm5.965,2.622,1.171-.677c.394-.227.436-.569.1-.766l-2.755-1.591a1.47,1.47,0,0,0-1.326.056l-1.174.675c-.391.227-.436.572-.094.768l2.753,1.588A1.475,1.475,0,0,0,420.869,258.343Zm4.637,2.678,1.171-.677c.394-.227.436-.572.1-.769l-2.753-1.589a1.475,1.475,0,0,0-1.328.054l-1.172.677c-.394.227-.436.569-.1.766l2.753,1.591A1.482,1.482,0,0,0,425.505,261.021Zm4.637,2.676,1.172-.677c.394-.225.436-.569.1-.766l-2.753-1.588a1.475,1.475,0,0,0-1.328.054l-1.172.677c-.394.227-.436.569-.1.766l2.753,1.591A1.475,1.475,0,0,0,430.142,263.7Zm4.637,2.678,1.174-.677c.391-.227.436-.569.094-.766l-2.753-1.591a1.475,1.475,0,0,0-1.328.056l-1.171.677c-.394.225-.436.569-.1.766l2.755,1.589A1.47,1.47,0,0,0,434.779,266.375Zm4.639,2.678,1.171-.677c.394-.227.436-.572.1-.768l-2.755-1.589a1.482,1.482,0,0,0-1.328.054l-1.171.677c-.394.227-.436.572-.1.766l2.755,1.591A1.482,1.482,0,0,0,439.418,269.053Z" transform="translate(-361.803 -227.333)" fill="#5490b2"/>
            <path id="Trazado_656046" data-name="Trazado 656046" d="M411.092,257.63l-2.755-1.588c-.34-.2-.3-.541.1-.769l1.171-.677a1.482,1.482,0,0,1,1.328-.054l2.753,1.591c.342.194.3.539-.094.766l-1.172.677A1.482,1.482,0,0,1,411.092,257.63Zm5.965,2.622,1.172-.677c.394-.225.436-.569.1-.766l-2.755-1.588a1.475,1.475,0,0,0-1.328.054l-1.172.677c-.394.227-.436.569-.094.766l2.753,1.591A1.476,1.476,0,0,0,417.057,260.252Zm4.637,2.678,1.171-.677c.394-.227.436-.569.1-.766l-2.753-1.591a1.475,1.475,0,0,0-1.328.056l-1.174.677c-.391.225-.436.569-.094.766l2.753,1.589A1.475,1.475,0,0,0,421.693,262.93Zm4.637,2.678,1.171-.677c.394-.227.436-.569.1-.766l-2.753-1.591a1.482,1.482,0,0,0-1.328.054l-1.171.677c-.394.227-.436.572-.1.768L425,265.662A1.475,1.475,0,0,0,426.33,265.608Zm4.637,2.676,1.174-.675c.391-.227.436-.572.094-.769l-2.753-1.589a1.475,1.475,0,0,0-1.328.054l-1.171.677c-.394.227-.436.569-.1.766l2.753,1.591A1.475,1.475,0,0,0,430.967,268.284Zm4.637,2.678,1.174-.677c.394-.227.436-.569.094-.766l-2.753-1.591a1.483,1.483,0,0,0-1.328.056l-1.171.677c-.394.227-.436.569-.1.766l2.755,1.591A1.477,1.477,0,0,0,435.6,270.962ZM414.9,255.43l-2.755-1.591c-.34-.2-.3-.539.1-.766l1.171-.677a1.475,1.475,0,0,1,1.328-.054l2.755,1.588c.34.2.3.541-.1.766l-1.171.677A1.476,1.476,0,0,1,414.9,255.43Zm5.965,2.622,1.171-.677c.394-.227.436-.569.1-.766l-2.755-1.591a1.471,1.471,0,0,0-1.326.056l-1.174.677c-.391.225-.436.569-.094.766l2.753,1.589A1.475,1.475,0,0,0,420.869,258.052Zm4.637,2.678,1.171-.677c.394-.227.436-.572.1-.768L424.02,257.7a1.475,1.475,0,0,0-1.328.056l-1.172.675c-.394.227-.436.572-.1.768l2.753,1.588A1.482,1.482,0,0,0,425.505,260.73Zm4.637,2.676,1.172-.675c.394-.227.436-.572.1-.769l-2.753-1.589a1.474,1.474,0,0,0-1.328.054l-1.172.677c-.394.227-.436.569-.1.766l2.753,1.591A1.475,1.475,0,0,0,430.142,263.406Zm4.637,2.678,1.174-.677c.391-.227.436-.569.094-.766l-2.753-1.591a1.475,1.475,0,0,0-1.328.056l-1.171.677c-.394.227-.436.569-.1.766l2.755,1.591A1.477,1.477,0,0,0,434.779,266.084Zm4.639,2.678,1.171-.677c.394-.227.436-.569.1-.766l-2.755-1.591a1.475,1.475,0,0,0-1.328.056l-1.171.675c-.394.227-.436.572-.1.769l2.755,1.589A1.475,1.475,0,0,0,439.418,268.762Z" transform="translate(-361.803 -227.724)" fill="#61b2d6"/>
            <path id="Trazado_656047" data-name="Trazado 656047" d="M411.785,257.266l-3.678-2.123c-.454-.262-.4-.722.127-1.024l1.565-.9a1.972,1.972,0,0,1,1.776-.075l3.678,2.125c.455.262.4.722-.129,1.024l-1.565.9A1.974,1.974,0,0,1,411.785,257.266Zm7.968,3.5,1.565-.9c.527-.3.583-.761.129-1.024l-3.678-2.123a1.979,1.979,0,0,0-1.776.073l-1.565.9c-.525.3-.581.761-.126,1.024l3.678,2.125A1.967,1.967,0,0,0,419.753,260.769Zm6.195,3.578,1.567-.9c.525-.3.581-.762.127-1.024l-3.678-2.125a1.972,1.972,0,0,0-1.776.075l-1.565.9c-.525.3-.581.761-.126,1.024l3.678,2.123A1.974,1.974,0,0,0,425.948,264.347Zm6.195,3.578,1.567-.9c.525-.3.581-.761.126-1.026l-3.678-2.123a1.974,1.974,0,0,0-1.774.073l-1.567.9c-.525.3-.581.761-.127,1.024L430.369,268A1.974,1.974,0,0,0,432.142,267.924Zm6.195,3.575,1.567-.9c.525-.3.581-.762.126-1.024l-3.678-2.123a1.959,1.959,0,0,0-1.774.073l-1.567.9c-.525.3-.581.761-.126,1.024l3.678,2.123A1.967,1.967,0,0,0,438.337,271.5Zm6.195,3.578,1.567-.9c.525-.3.581-.761.127-1.024l-3.678-2.125a1.974,1.974,0,0,0-1.774.073l-1.567.9c-.525.3-.581.761-.127,1.024l3.678,2.125A1.974,1.974,0,0,0,444.532,275.077Zm-38.557-14.456L402.3,258.5c-.455-.262-.4-.722.126-1.024l1.567-.9a1.974,1.974,0,0,1,1.774-.073l3.678,2.123c.455.262.4.722-.126,1.026l-1.565.9A1.972,1.972,0,0,1,405.974,260.621Zm7.971,3.5,1.565-.9c.525-.3.581-.761.127-1.024l-3.678-2.125a1.967,1.967,0,0,0-1.774.075l-1.565.9c-.527.3-.583.761-.129,1.024l3.678,2.123A1.979,1.979,0,0,0,413.945,264.124Zm6.195,3.578,1.565-.9c.525-.3.581-.764.127-1.024l-3.678-2.125a1.974,1.974,0,0,0-1.774.073l-1.565.9c-.527.3-.583.761-.129,1.024l3.678,2.125A1.979,1.979,0,0,0,420.139,267.7Zm6.195,3.575,1.565-.9c.525-.3.583-.761.126-1.024l-3.678-2.125a1.967,1.967,0,0,0-1.774.075l-1.565.9c-.525.3-.583.762-.129,1.024l3.678,2.123A1.971,1.971,0,0,0,426.334,271.277Zm6.195,3.578,1.565-.9c.525-.3.583-.761.126-1.024l-3.678-2.125a1.974,1.974,0,0,0-1.774.073l-1.565.9c-.525.3-.583.762-.129,1.026l3.681,2.123A1.974,1.974,0,0,0,432.529,274.855Zm6.195,3.575,1.565-.9c.525-.3.583-.761.129-1.024l-3.681-2.123a1.974,1.974,0,0,0-1.774.073l-1.565.9c-.525.3-.583.762-.129,1.024l3.681,2.125A1.967,1.967,0,0,0,438.724,278.43Zm-38.557-14.456-3.681-2.123c-.454-.262-.4-.722.129-1.024l1.565-.9a1.967,1.967,0,0,1,1.774-.075l3.681,2.125c.455.262.4.722-.129,1.024l-1.565.9A1.974,1.974,0,0,1,400.166,263.974Zm20.29,10.618,1.567-.9c.525-.3.581-.761.127-1.024l-16-9.238a1.979,1.979,0,0,0-1.776.073l-1.565.9c-.525.3-.583.761-.127,1.024l16,9.241A1.974,1.974,0,0,0,420.456,274.592Zm6.263,3.615,1.567-.9c.525-.3.581-.761.127-1.024l-3.678-2.123a1.979,1.979,0,0,0-1.776.073l-1.565.9c-.525.3-.581.761-.127,1.024l3.678,2.125A1.967,1.967,0,0,0,426.718,278.207Zm6.195,3.578,1.567-.9c.525-.3.581-.761.126-1.024l-3.678-2.125a1.967,1.967,0,0,0-1.774.075l-1.567.9c-.525.3-.581.764-.127,1.026l3.678,2.123A1.974,1.974,0,0,0,432.913,281.785Z" transform="translate(-377.821 -226.711)" fill="#5490b2"/>
            <path id="Trazado_656048" data-name="Trazado 656048" d="M411.785,256.869l-3.678-2.123c-.454-.262-.4-.722.127-1.024l1.565-.9a1.972,1.972,0,0,1,1.776-.075l3.678,2.125c.455.262.4.722-.129,1.024l-1.565.9A1.973,1.973,0,0,1,411.785,256.869Zm7.968,3.5,1.565-.9c.527-.3.583-.762.129-1.024l-3.678-2.125a1.979,1.979,0,0,0-1.776.073l-1.565.9c-.525.3-.581.761-.126,1.024l3.678,2.125A1.967,1.967,0,0,0,419.753,260.372Zm6.195,3.578,1.567-.9c.525-.3.581-.762.127-1.024l-3.678-2.125a1.972,1.972,0,0,0-1.776.075l-1.565.9c-.525.3-.581.761-.126,1.024l3.678,2.125A1.975,1.975,0,0,0,425.948,263.95Zm6.195,3.578,1.567-.9c.525-.3.581-.761.126-1.024l-3.678-2.125a1.974,1.974,0,0,0-1.774.073l-1.567.9c-.525.3-.581.761-.127,1.024l3.678,2.125A1.974,1.974,0,0,0,432.142,267.527Zm6.195,3.575,1.567-.9c.525-.3.581-.762.126-1.024l-3.678-2.123a1.974,1.974,0,0,0-1.774.073l-1.567.9c-.525.3-.581.761-.126,1.024l3.678,2.125A1.967,1.967,0,0,0,438.337,271.1Zm6.195,3.578,1.567-.9c.525-.3.581-.761.127-1.024l-3.678-2.125a1.967,1.967,0,0,0-1.774.075l-1.567.9c-.525.3-.581.764-.127,1.026l3.678,2.123A1.974,1.974,0,0,0,444.532,274.68Zm-38.557-14.456L402.3,258.1c-.455-.262-.4-.719.126-1.024l1.567-.9a1.974,1.974,0,0,1,1.774-.073l3.678,2.123c.455.265.4.722-.126,1.026l-1.565.9A1.979,1.979,0,0,1,405.974,260.224Zm7.971,3.5,1.565-.9c.525-.3.581-.761.127-1.024l-3.678-2.123a1.966,1.966,0,0,0-1.774.073l-1.565.9c-.527.3-.583.761-.129,1.024l3.678,2.125A1.972,1.972,0,0,0,413.945,263.727Zm6.195,3.578,1.565-.9c.525-.3.581-.761.127-1.024l-3.678-2.125a1.974,1.974,0,0,0-1.774.073l-1.565.9c-.527.3-.583.764-.129,1.024l3.678,2.125A1.979,1.979,0,0,0,420.139,267.3Zm6.195,3.575,1.565-.9c.525-.3.583-.761.126-1.024l-3.678-2.123a1.974,1.974,0,0,0-1.774.073l-1.565.9c-.525.3-.583.761-.129,1.024l3.678,2.125A1.972,1.972,0,0,0,426.334,270.88Zm6.195,3.578,1.565-.9c.525-.3.583-.761.126-1.024l-3.678-2.125a1.967,1.967,0,0,0-1.774.075l-1.565.9c-.525.3-.583.764-.129,1.026l3.681,2.123A1.974,1.974,0,0,0,432.529,274.458Zm6.195,3.575,1.565-.9c.525-.3.583-.761.129-1.024l-3.681-2.123a1.974,1.974,0,0,0-1.774.073l-1.565.9c-.525.3-.583.762-.129,1.024l3.681,2.125A1.967,1.967,0,0,0,438.724,278.033Zm-38.557-14.456-3.681-2.123c-.454-.262-.4-.722.129-1.024l1.565-.9a1.975,1.975,0,0,1,1.774-.075l3.681,2.125c.455.262.4.722-.129,1.024l-1.565.9A1.966,1.966,0,0,1,400.166,263.577Zm20.29,10.618,1.567-.9c.525-.3.581-.761.127-1.024l-16-9.238a1.972,1.972,0,0,0-1.776.075l-1.565.9c-.525.3-.583.761-.127,1.026l16,9.238A1.967,1.967,0,0,0,420.456,274.2Zm6.263,3.615,1.567-.9c.525-.3.581-.764.127-1.026l-3.678-2.123a1.979,1.979,0,0,0-1.776.073l-1.565.9c-.525.3-.581.762-.127,1.024l3.678,2.125A1.967,1.967,0,0,0,426.718,277.81Zm6.195,3.578,1.567-.9c.525-.3.581-.761.126-1.024l-3.678-2.125a1.967,1.967,0,0,0-1.774.075l-1.567.9c-.525.3-.581.761-.127,1.024l3.678,2.123A1.974,1.974,0,0,0,432.913,281.388Z" transform="translate(-377.821 -227.244)" fill="#61b2d6"/>
            <path id="Trazado_656049" data-name="Trazado 656049" d="M426.959,270.959a8.9,8.9,0,0,1-8.055-.016c-2.233-1.286-2.242-3.369-.026-4.648a8.9,8.9,0,0,1,8.055.014C429.163,267.6,429.175,269.678,426.959,270.959Z" transform="translate(-349.562 -210.093)" fill="#5490b2"/>
            <path id="Trazado_656050" data-name="Trazado 656050" d="M423.788,272.166a2.7,2.7,0,0,1-2.441,0,.744.744,0,0,1-.007-1.41,2.707,2.707,0,0,1,2.441,0A.745.745,0,0,1,423.788,272.166Z" transform="translate(-344.707 -203.211)" fill="#5490b2"/>
            <path id="Trazado_656051" data-name="Trazado 656051" d="M425.53,273.171a2.7,2.7,0,0,1-2.441,0,.744.744,0,0,1-.007-1.41,2.7,2.7,0,0,1,2.439,0C426.2,272.154,426.2,272.784,425.53,273.171Z" transform="translate(-342.368 -201.86)" fill="#5490b2"/>
            <path id="Trazado_656052" data-name="Trazado 656052" d="M427.237,274.157a2.692,2.692,0,0,1-2.441,0,.743.743,0,0,1-.007-1.408,2.688,2.688,0,0,1,2.439,0A.743.743,0,0,1,427.237,274.157Z" transform="translate(-340.076 -200.537)" fill="#5490b2"/>
            <path id="Trazado_656053" data-name="Trazado 656053" d="M424.28,274.129l.511-2.257,2.491.043.469,2.257Z" transform="translate(-340.084 -201.319)" fill="#5490b2"/>
            <path id="Trazado_656054" data-name="Trazado 656054" d="M426.637,272.83a1.965,1.965,0,0,1-1.778,0,.541.541,0,0,1-.007-1.026,1.971,1.971,0,0,1,1.781,0A.543.543,0,0,1,426.637,272.83Z" transform="translate(-339.808 -201.7)" fill="#61b2d6"/>
            <path id="Trazado_656055" data-name="Trazado 656055" d="M422.581,273.175l.511-2.257,2.491.043.468,2.257Z" transform="translate(-342.366 -202.6)" fill="#5490b2"/>
            <path id="Trazado_656056" data-name="Trazado 656056" d="M424.936,271.874a1.965,1.965,0,0,1-1.778,0c-.492-.286-.494-.745,0-1.026a1.958,1.958,0,0,1,1.778,0A.542.542,0,0,1,424.936,271.874Z" transform="translate(-342.089 -202.982)" fill="#61b2d6"/>
            <path id="Trazado_656057" data-name="Trazado 656057" d="M420.836,272.175l.511-2.257,2.491.043.468,2.257Z" transform="translate(-344.71 -203.943)" fill="#5490b2"/>
            <path id="Trazado_656058" data-name="Trazado 656058" d="M423.191,270.876a1.973,1.973,0,0,1-1.778,0c-.492-.284-.5-.745,0-1.026a1.965,1.965,0,0,1,1.778,0A.543.543,0,0,1,423.191,270.876Z" transform="translate(-344.433 -204.324)" fill="#61b2d6"/>
            <path id="Trazado_656059" data-name="Trazado 656059" d="M441.219,268.353l-2.882-1.663c-.234-.136-.206-.375.066-.532l1.146-.661a1.02,1.02,0,0,1,.918-.037l2.882,1.663c.234.136.206.373-.065.53l-1.146.663A1.028,1.028,0,0,1,441.219,268.353Zm-2.413,1.884,1.146-.661c.272-.157.3-.394.068-.53l-2.884-1.663a1.016,1.016,0,0,0-.916.037l-1.146.661c-.272.157-.3.394-.066.529l2.882,1.663A1.008,1.008,0,0,0,438.805,270.237Zm-3.329,1.923,1.146-.661c.272-.157.3-.394.066-.53l-2.882-1.666a1.021,1.021,0,0,0-.918.04l-1.146.661c-.272.157-.3.394-.066.53l2.882,1.663A1.02,1.02,0,0,0,435.476,272.16Zm-3.332,1.924,1.146-.661c.272-.159.3-.4.066-.532l-2.882-1.664a1.016,1.016,0,0,0-.916.038l-1.146.663c-.272.157-.3.394-.066.53l2.882,1.663A1.016,1.016,0,0,0,432.144,274.084Zm-3.329,1.921,1.146-.661c.272-.157.3-.394.066-.53l-2.882-1.663a1.02,1.02,0,0,0-.918.037l-1.146.661c-.272.157-.3.394-.066.532l2.882,1.663A1.021,1.021,0,0,0,428.815,276.005Z" transform="translate(-339.31 -210.053)" fill="#5490b2"/>
            <path id="Trazado_656060" data-name="Trazado 656060" d="M441.219,268.113l-2.882-1.664c-.234-.136-.206-.373.066-.529l1.146-.663a1.028,1.028,0,0,1,.918-.038l2.882,1.664c.234.136.206.375-.065.532l-1.146.661A1.02,1.02,0,0,1,441.219,268.113ZM438.805,270l1.146-.663c.272-.157.3-.394.068-.53l-2.884-1.663a1.016,1.016,0,0,0-.916.037l-1.146.661c-.272.157-.3.4-.066.532l2.882,1.663A1.023,1.023,0,0,0,438.805,270Zm-3.329,1.921,1.146-.661c.272-.157.3-.394.066-.529l-2.882-1.664a1.02,1.02,0,0,0-.918.038l-1.146.661c-.272.157-.3.394-.066.53l2.882,1.663A1.014,1.014,0,0,0,435.476,271.92Zm-3.332,1.923,1.146-.661c.272-.157.3-.394.066-.529l-2.882-1.666a1.017,1.017,0,0,0-.916.04l-1.146.661c-.272.157-.3.394-.066.529l2.882,1.664A1.016,1.016,0,0,0,432.144,273.843Zm-3.329,1.924,1.146-.661c.272-.159.3-.4.066-.532l-2.882-1.663a1.02,1.02,0,0,0-.918.038l-1.146.663c-.272.157-.3.394-.066.53L427.9,275.8A1.02,1.02,0,0,0,428.815,275.767Z" transform="translate(-339.31 -210.375)" fill="#61b2d6"/>
            <g id="Grupo_948464" data-name="Grupo 948464" transform="translate(63.262 52.704)">
              <path id="Trazado_656061" data-name="Trazado 656061" d="M430.043,266.579l-2.854-.007c.209,1.2-.48,2.446-2.071,3.364a10.692,10.692,0,0,1-5.705,1.2l.009,1.647a14.786,14.786,0,0,0,7.715-1.682C429.284,269.864,430.249,268.2,430.043,266.579Z" transform="translate(-409.882 -261.14)" fill="#5490b2"/>
              <path id="Trazado_656062" data-name="Trazado 656062" d="M420.263,269.2a4.256,4.256,0,0,1-1.975-2.1l-2.893,0a5.647,5.647,0,0,0,2.863,3.261,13.846,13.846,0,0,0,5.649,1.652l-.009-1.671A9.735,9.735,0,0,1,420.263,269.2Z" transform="translate(-415.279 -260.427)" fill="#5490b2"/>
              <path id="Trazado_656063" data-name="Trazado 656063" d="M415.364,270.4l2.854,0c-.171-1.181.52-2.394,2.08-3.294a10.743,10.743,0,0,1,5.827-1.195l-.009-1.649a14.872,14.872,0,0,0-7.837,1.678C416.163,267.167,415.2,268.8,415.364,270.4Z" transform="translate(-415.345 -264.253)" fill="#5490b2"/>
              <path id="Trazado_656064" data-name="Trazado 656064" d="M423.851,267.087a4.31,4.31,0,0,1,1.952,2.027l2.9,0a5.7,5.7,0,0,0-2.842-3.191,13.8,13.8,0,0,0-5.527-1.64l.009,1.673A9.68,9.68,0,0,1,423.851,267.087Z" transform="translate(-408.648 -264.209)" fill="#5490b2"/>
            </g>
            <path id="Trazado_656065" data-name="Trazado 656065" d="M426.959,270.768a8.9,8.9,0,0,1-8.055-.014c-2.233-1.289-2.242-3.371-.026-4.651a8.9,8.9,0,0,1,8.055.014C429.163,267.406,429.175,269.487,426.959,270.768Z" transform="translate(-349.562 -210.35)" fill="#acd2e5"/>
            <g id="Grupo_948465" data-name="Grupo 948465" transform="translate(63.262 52.257)">
              <path id="Trazado_656066" data-name="Trazado 656066" d="M430.043,266.388l-2.854-.007c.209,1.2-.48,2.446-2.071,3.364a10.692,10.692,0,0,1-5.705,1.2l.009,1.647a14.785,14.785,0,0,0,7.715-1.682C429.284,269.675,430.249,268.012,430.043,266.388Z" transform="translate(-409.882 -260.949)" fill="#acd2e5"/>
              <path id="Trazado_656067" data-name="Trazado 656067" d="M420.263,269.014a4.256,4.256,0,0,1-1.975-2.1l-2.893,0a5.647,5.647,0,0,0,2.863,3.261,13.882,13.882,0,0,0,5.649,1.654l-.009-1.671A9.693,9.693,0,0,1,420.263,269.014Z" transform="translate(-415.279 -260.236)" fill="#acd2e5"/>
              <path id="Trazado_656068" data-name="Trazado 656068" d="M415.364,270.211l2.854,0c-.171-1.181.52-2.394,2.08-3.294a10.743,10.743,0,0,1,5.827-1.195l-.009-1.649a14.874,14.874,0,0,0-7.837,1.678C416.163,266.976,415.2,268.609,415.364,270.211Z" transform="translate(-415.345 -264.062)" fill="#acd2e5"/>
              <path id="Trazado_656069" data-name="Trazado 656069" d="M423.851,266.9a4.32,4.32,0,0,1,1.952,2.027l2.9,0a5.712,5.712,0,0,0-2.842-3.191,13.8,13.8,0,0,0-5.527-1.64l.009,1.675A9.633,9.633,0,0,1,423.851,266.9Z" transform="translate(-408.648 -264.017)" fill="#acd2e5"/>
            </g>
          </g>
          <g id="Grupo_948467" data-name="Grupo 948467" transform="translate(67.424 0)">
            <path id="Trazado_656070" data-name="Trazado 656070" d="M475.268,301.023l-52.957-30.575c-2.975-1.717-5.389-6.328-5.389-10.295V225.766c0-3.969,2.413-5.792,5.389-4.074l52.957,30.575c2.978,1.717,5.389,6.328,5.389,10.3v34.385C480.657,300.917,478.246,302.742,475.268,301.023Z" transform="translate(-414.964 -221.045)" fill="#acd2e5"/>
            <path id="Trazado_656071" data-name="Trazado 656071" d="M474.433,301.532l-52.957-30.575c-2.975-1.717-5.389-6.328-5.389-10.295V226.275c0-3.969,2.413-5.792,5.389-4.074l52.957,30.575c2.976,1.717,5.389,6.328,5.389,10.3v34.385C479.821,301.426,477.408,303.251,474.433,301.532Z" transform="translate(-416.087 -220.362)" fill="#cbe9f7"/>
            <path id="Trazado_656072" data-name="Trazado 656072" d="M468.636,293.4l-46.1-26.613c-2.591-1.5-4.691-5.508-4.691-8.964V227.893c0-3.456,2.1-5.042,4.691-3.547l46.1,26.613c2.591,1.5,4.69,5.511,4.69,8.964v29.933C473.327,293.309,471.228,294.9,468.636,293.4Z" transform="translate(-413.721 -217.369)" fill="#526f7c"/>
            <path id="Trazado_656073" data-name="Trazado 656073" d="M421.014,260.574l12.58,7.263,20.136-30.816-12.887-7.44Z" transform="translate(-409.47 -209.582)" fill="#e6f4ff" opacity="0.57" style="mix-blend-mode: overlay;isolation: isolate"/>
            <path id="Trazado_656074" data-name="Trazado 656074" d="M428.058,264.748l4.236,2.444,21.086-30.268-5.813-3.355C442.64,241.2,433.388,256.124,428.058,264.748Z" transform="translate(-400.011 -204.227)" fill="#e6f4ff" opacity="0.57" style="mix-blend-mode: overlay;isolation: isolate"/>
            <path id="Trazado_656075" data-name="Trazado 656075" d="M469.658,292.958l-46.1-26.616c-2.591-1.495-4.691-5.508-4.691-8.964V227.447a4.372,4.372,0,0,1,1.406-3.65c-1.448.23-2.427,1.715-2.427,4.077V257.8c0,3.456,2.1,7.467,4.691,8.964l46.1,26.613a2.9,2.9,0,0,0,3.285.105A3.473,3.473,0,0,1,469.658,292.958Z" transform="translate(-413.721 -217.35)" fill="#7497a3"/>
          </g>
          <path id="Trazado_656076" data-name="Trazado 656076" d="M440.386,276.074l-22.152-12.933a2.177,2.177,0,0,1-.628-3.4l11.155-10.78a2.126,2.126,0,0,1,2.643-.408L453.715,260.7a1.911,1.911,0,0,1,.18,3l-10.869,11.972A2.123,2.123,0,0,1,440.386,276.074Z" transform="translate(-347.381 -184.497)" fill="#c0def2"/>
          <path id="Trazado_656077" data-name="Trazado 656077" d="M439.945,275.6l-22.152-12.931a1.442,1.442,0,0,1-.34-2.214l10.869-11.972a2.122,2.122,0,0,1,2.641-.405l22.152,12.931a1.441,1.441,0,0,1,.34,2.214L442.588,275.2A2.123,2.123,0,0,1,439.945,275.6Z" transform="translate(-347.33 -185.13)" fill="#e6f5ff"/>
          <path id="Trazado_656078" data-name="Trazado 656078" d="M435.519,268.82l-15.381-8.978a1.008,1.008,0,0,1-.237-1.549L427.425,250a1.581,1.581,0,0,1,1.968-.3l15.381,8.978a1.006,1.006,0,0,1,.237,1.546l-7.523,8.289A1.584,1.584,0,0,1,435.519,268.82Z" transform="translate(-343.893 -182.852)" fill="#526f7c"/>
          <path id="Trazado_656079" data-name="Trazado 656079" d="M427.434,265.117l7.027-.319,6.324-8.113-7.538,2.619Z" transform="translate(-333.424 -173.185)" fill="#c0def2"/>
        </g>
      </g>
    </g>
  </g>
</svg>
