<svg xmlns="http://www.w3.org/2000/svg" width="64.917" height="73.533" viewBox="0 0 64.917 73.533">
  <g id="rayos-x" transform="translate(-848.899 -632.641)">
    <g id="Grupo_949861" data-name="Grupo 949861" transform="translate(850.072 633.815)">
      <path id="Trazado_669063" data-name="Trazado 669063" d="M2088.693,698.721l27.362,15.8a.585.585,0,0,1,.291.168l4.768,2.753a.584.584,0,0,1,.258.136,3.459,3.459,0,0,0,3.229-6.112l-32.449-18.735a3.437,3.437,0,0,0-1.724-.465,3.476,3.476,0,0,0-.9.119,3.46,3.46,0,0,0-.833,6.338Z" transform="translate(-2063.759 -692.264)" fill="#fff"/>
      <path id="Trazado_669064" data-name="Trazado 669064" d="M1384.505,1866.077v-2.529c0-.146.007-.289.021-.431H1379.9v3.391h4.631C1384.513,1866.366,1384.505,1866.222,1384.505,1866.077Z" transform="translate(-1370.614 -1840.064)" fill="#fff"/>
      <path id="Trazado_669065" data-name="Trazado 669065" d="M1676.784,1733.637h19.266a3.158,3.158,0,0,0,3.154-3.154v-2.529a3.158,3.158,0,0,0-3.154-3.154h-19.266a3.159,3.159,0,0,0-3.022,2.252c0,.008,0,.016-.007.024a3.144,3.144,0,0,0-.125.878v2.529A3.158,3.158,0,0,0,1676.784,1733.637Z" transform="translate(-1658.565 -1704.469)" fill="#fff"/>
      <path id="Trazado_669066" data-name="Trazado 669066" d="M2228.314,1128.415v-8.538l-3.885-2.243v10.781Z" transform="translate(-2198.52 -1109.259)" fill="#fff"/>
      <path id="Trazado_669067" data-name="Trazado 669067" d="M3559.64,1862.81v11.577h5.119v-8.511Z" transform="translate(-3507.441 -1839.763)" fill="#fff"/>
      <path id="Trazado_669068" data-name="Trazado 669068" d="M2429.85,2505.842v30.717a2.407,2.407,0,0,0,2.4,2.4h26.262a2.407,2.407,0,0,0,2.4-2.4v-30.717a2.407,2.407,0,0,0-2.4-2.4h-26.262A2.407,2.407,0,0,0,2429.85,2505.842Z" transform="translate(-2399.896 -2467.778)" fill="#fff"/>
      <path id="Trazado_669069" data-name="Trazado 669069" d="M1224.987,3380.54a.834.834,0,0,0-.833.833v16.59a.834.834,0,0,0,.833.833h14.254a.873.873,0,0,0,.872-.872v-16.551a.834.834,0,0,0-.833-.833h-14.294Z" transform="translate(-1217.939 -3327.61)" fill="#fff"/>
      <path id="Trazado_669070" data-name="Trazado 669070" d="M1385.58,3157.49h9.6v3.219h-9.6Z" transform="translate(-1376.186 -3108.952)" fill="#fff"/>
      <path id="Trazado_669071" data-name="Trazado 669071" d="M911.842,2735.7h25.433v-7.9H911.84c-1.845,0-3.346,1.771-3.346,3.949S910,2735.7,911.842,2735.7Z" transform="translate(-908.494 -2687.721)" fill="#fff"/>
    </g>
    <path id="Trazado_669072" data-name="Trazado 669072" d="M2257.115,793.186a3.5,3.5,0,0,1,.345-2.652,3.434,3.434,0,0,1,4.724-1.279l29.433,16.64a4,4,0,0,1,1.226,5.171,3.445,3.445,0,0,1-4.5,1.4c-.072-.066-1.653-.863-1.767-.891l-27.855-16.268A3.466,3.466,0,0,1,2257.115,793.186Z" transform="translate(-1380.373 -153.071)" fill="#d0f0ff"/>
    <path id="Trazado_669073" data-name="Trazado 669073" d="M1379.9,1866.514v-3.391h4.631q-.021.213-.022.431v2.529q0,.218.022.431Z" transform="translate(-520.546 -1206.255)" fill="#6ae9ed"/>
    <path id="Trazado_669074" data-name="Trazado 669074" d="M1894.75,1727.954v2.529a2.99,2.99,0,0,1-2.783,3.154h-17a2.99,2.99,0,0,1-2.783-3.154v-2.529a3.536,3.536,0,0,1,.111-.879c0-.008,0-.016.006-.024a2.858,2.858,0,0,1,2.667-2.252h17A2.99,2.99,0,0,1,1894.75,1727.954Z" transform="translate(-1003.138 -1070.656)" fill="#d0f0ff"/>
    <path id="Trazado_669075" data-name="Trazado 669075" d="M2228.314,1128.415h-3.885v-10.781l3.885,2.243Z" transform="translate(-1348.448 -475.444)" fill="#6ae9ed"/>
    <path id="Trazado_669076" data-name="Trazado 669076" d="M3559.64,1862.81l5.119,3.066v8.511h-5.119Z" transform="translate(-2657.368 -1205.948)" fill="#6ae9ed"/>
    <path id="Trazado_669077" data-name="Trazado 669077" d="M2627.56,2505.842a2.292,2.292,0,0,1,2.154-2.4h23.525a2.292,2.292,0,0,1,2.154,2.4v30.717a2.291,2.291,0,0,1-2.154,2.4h-23.525a2.292,2.292,0,0,1-2.154-2.4Z" transform="translate(-1743.64 -1833.963)" fill="#d0f0ff"/>
    <path id="Trazado_669078" data-name="Trazado 669078" d="M1436.719,3381.376v16.551a.8.8,0,0,1-.69.873H1424.75a.762.762,0,0,1-.659-.833v-16.59a.762.762,0,0,1,.659-.833h11.309A.762.762,0,0,1,1436.719,3381.376Z" transform="translate(-563.867 -2693.799)" fill="#ffc052"/>
    <path id="Trazado_669079" data-name="Trazado 669079" d="M1385.58,3157.49h9.6v3.219h-9.6Z" transform="translate(-526.114 -2475.137)" fill="#d0f0ff"/>
    <path id="Trazado_669080" data-name="Trazado 669080" d="M1111.4,2727.8h22.566v7.9H1111.4c-1.638,0-2.97-1.772-2.97-3.951S1109.762,2727.8,1111.4,2727.8Z" transform="translate(-254.421 -2053.907)" fill="#d0f0ff"/>
    <path id="Trazado_669081" data-name="Trazado 669081" d="M2800.907,3072.735a4.351,4.351,0,0,1,3.189-.1,7.384,7.384,0,0,0,5.028,0,4.375,4.375,0,0,1,5.491,5.845,7.106,7.106,0,0,1-1.716,2.073l0,0c-.009.009-.018.019-.026.029s-.021.025-.031.037l-.019.023-.016.028c-.009.015-.017.03-.025.046s-.01.018-.014.028a.241.241,0,0,0-.009.026c-.006.017-.012.033-.017.051s-.007.022-.009.032,0,.016,0,.024-.005.036-.007.054,0,.025,0,.039,0,0,0,0,0,.01,0,.015,0,.036,0,.054,0,.028.006.043,0,.012,0,.018a.447.447,0,0,0,.013.049c0,.015.01.029.015.043l.007.016c.007.015.015.03.023.046s.015.027.024.04l.011.015a.265.265,0,0,0,.016.025,7.211,7.211,0,0,1,1.453,4.446,6.986,6.986,0,0,1-1.968,5.021.316.316,0,0,1-.41.052.307.307,0,0,1-.13-.38,6.737,6.737,0,0,0-.51-5.087,7.278,7.278,0,0,0-1.4-1.911,4.676,4.676,0,0,0-3.294-1.291h0a4.677,4.677,0,0,0-3.3,1.29,7.27,7.27,0,0,0-1.4,1.909,6.735,6.735,0,0,0-.509,5.087.308.308,0,0,1-.131.381.316.316,0,0,1-.41-.052,6.983,6.983,0,0,1-1.969-5.02,7.212,7.212,0,0,1,1.455-4.445c0-.005.007-.011.011-.016s.013-.018.019-.028a.325.325,0,0,0,.02-.034c.007-.013.014-.025.021-.039s.009-.019.012-.028.009-.025.013-.038.009-.028.013-.043,0-.019.006-.029,0-.026,0-.038,0-.032,0-.049,0-.013,0-.02,0,0,0-.008,0-.024,0-.036,0-.034-.006-.051,0-.019,0-.029-.006-.021-.009-.031-.01-.033-.016-.049-.006-.019-.01-.028-.01-.018-.015-.028-.016-.031-.025-.046-.01-.018-.016-.026-.013-.017-.02-.025l-.033-.039-.022-.025-.005-.006a7.469,7.469,0,0,1-1.653-2.074A4.383,4.383,0,0,1,2800.907,3072.735Z" transform="translate(-1910.972 -2391.704)" fill="#fff"/>
    <path id="Trazado_669082" data-name="Trazado 669082" d="M1580.692,3619.926a.979.979,0,1,1,.979-.979A.98.98,0,0,1,1580.692,3619.926Z" transform="translate(-716.425 -2926.548)" fill="#d0f0ff"/>
    <circle id="Elipse_5552" data-name="Elipse 5552" cx="0.979" cy="0.979" r="0.979" transform="translate(863.077 700.102) rotate(-76.7)" fill="#d0f0ff"/>
    <g id="Grupo_949890" data-name="Grupo 949890" transform="translate(848.899 632.641)">
      <g id="Grupo_949873" data-name="Grupo 949873" transform="translate(29.954 35.661)">
        <g id="Grupo_949862" data-name="Grupo 949862">
          <path id="Trazado_669083" data-name="Trazado 669083" d="M2400.09,2481.713h-26.262a3.582,3.582,0,0,1-3.578-3.578v-30.717a3.582,3.582,0,0,1,3.578-3.578h26.262a3.582,3.582,0,0,1,3.578,3.578v30.717A3.582,3.582,0,0,1,2400.09,2481.713Zm-26.262-36.7a2.407,2.407,0,0,0-2.4,2.4v30.717a2.407,2.407,0,0,0,2.4,2.4h26.262a2.408,2.408,0,0,0,2.4-2.4v-30.717a2.407,2.407,0,0,0-2.4-2.4Z" transform="translate(-2370.25 -2443.841)" fill="#003a66"/>
        </g>
        <g id="Grupo_949869" data-name="Grupo 949869" transform="translate(3.305 11.202)">
          <g id="Grupo_949863" data-name="Grupo 949863" transform="translate(19.585 9.189)">
            <path id="Trazado_669084" data-name="Trazado 669084" d="M3539.519,3480.645h-6.138a.587.587,0,1,1,0-1.173h6.138a.587.587,0,1,1,0,1.173Z" transform="translate(-3532.794 -3479.472)" fill="#003a66"/>
          </g>
          <g id="Grupo_949864" data-name="Grupo 949864" transform="translate(0 9.189)">
            <path id="Trazado_669085" data-name="Trazado 669085" d="M2544.836,3480.645H2538.7a.587.587,0,0,1,0-1.173h6.139a.587.587,0,0,1,0,1.173Z" transform="translate(-2538.11 -3479.472)" fill="#003a66"/>
          </g>
          <g id="Grupo_949868" data-name="Grupo 949868" transform="translate(3.949)">
            <g id="Grupo_949865" data-name="Grupo 949865">
              <path id="Trazado_669086" data-name="Trazado 669086" d="M2754.88,3023.136a.587.587,0,0,1-.4-1.014,7.123,7.123,0,0,0,1.717-2.074,4.375,4.375,0,0,0-5.491-5.846,7.385,7.385,0,0,1-5.028,0,4.375,4.375,0,0,0-5.491,5.846,7.471,7.471,0,0,0,1.654,2.074.587.587,0,0,1-.807.852,8.347,8.347,0,0,1-1.925-2.464,5.548,5.548,0,0,1,6.965-7.412,6.228,6.228,0,0,0,4.238,0,5.548,5.548,0,0,1,6.965,7.412,8.284,8.284,0,0,1-1.992,2.467A.583.583,0,0,1,2754.88,3023.136Z" transform="translate(-2738.658 -3012.772)" fill="#003a66"/>
            </g>
            <g id="Grupo_949866" data-name="Grupo 949866" transform="translate(6.628 3.431)">
              <path id="Trazado_669087" data-name="Trazado 669087" d="M3078.205,3188.586a7.452,7.452,0,0,1-2.514-.441.587.587,0,0,1,.4-1.1,6.219,6.219,0,0,0,4.238,0,.587.587,0,0,1,.4,1.1A7.451,7.451,0,0,1,3078.205,3188.586Z" transform="translate(-3075.302 -3187.005)" fill="#003a66"/>
            </g>
            <g id="Grupo_949867" data-name="Grupo 949867" transform="translate(0.61 9.189)">
              <path id="Trazado_669088" data-name="Trazado 669088" d="M2784.04,3491.168a1.5,1.5,0,0,1-.794-.231,1.48,1.48,0,0,1-.626-1.74,5.555,5.555,0,0,0-.439-4.191,6.1,6.1,0,0,0-1.174-1.6,3.513,3.513,0,0,0-2.476-.958h0a3.558,3.558,0,0,0-2.477.957,6.079,6.079,0,0,0-1.173,1.6,5.559,5.559,0,0,0-.439,4.191,1.5,1.5,0,0,1-2.474,1.533,8.16,8.16,0,0,1-2.324-5.862,8.386,8.386,0,0,1,1.7-5.168.587.587,0,0,1,.924.724,7.21,7.21,0,0,0-1.455,4.444,6.984,6.984,0,0,0,1.968,5.021.316.316,0,0,0,.41.052.308.308,0,0,0,.131-.381,6.736,6.736,0,0,1,.509-5.087,7.268,7.268,0,0,1,1.4-1.909,4.677,4.677,0,0,1,3.3-1.29h0a4.677,4.677,0,0,1,3.294,1.291,7.277,7.277,0,0,1,1.4,1.91,6.739,6.739,0,0,1,.509,5.087.309.309,0,0,0,.13.381.316.316,0,0,0,.41-.052,6.985,6.985,0,0,0,1.968-5.021,7.211,7.211,0,0,0-1.453-4.446.587.587,0,1,1,.923-.724,8.389,8.389,0,0,1,1.7,5.169,8.159,8.159,0,0,1-2.324,5.862A1.51,1.51,0,0,1,2784.04,3491.168Z" transform="translate(-2769.642 -3479.473)" fill="#003a66"/>
            </g>
          </g>
        </g>
        <g id="Grupo_949872" data-name="Grupo 949872" transform="translate(13.852 4.205)">
          <g id="Grupo_949870" data-name="Grupo 949870" transform="translate(7.19 0)">
            <path id="Trazado_669089" data-name="Trazado 669089" d="M3446.467,2665.518a.587.587,0,0,1-.586-.587v-5.282a1.072,1.072,0,0,0-1.071-1.07h-5.282a.587.587,0,1,1,0-1.173h5.282a2.246,2.246,0,0,1,2.244,2.244v5.282A.587.587,0,0,1,3446.467,2665.518Z" transform="translate(-3438.941 -2657.405)" fill="#003a66"/>
          </g>
          <g id="Grupo_949871" data-name="Grupo 949871">
            <path id="Trazado_669090" data-name="Trazado 669090" d="M3078.2,2658.575h-3.849a.587.587,0,0,1,0-1.173h3.849a.587.587,0,1,1,0,1.173Z" transform="translate(-3073.767 -2657.402)" fill="#003a66"/>
          </g>
        </g>
      </g>
      <g id="Grupo_949881" data-name="Grupo 949881" transform="translate(0 40.671)">
        <g id="Grupo_949874" data-name="Grupo 949874">
          <path id="Trazado_669091" data-name="Trazado 669091" d="M876.784,2707.348H853.42a4.521,4.521,0,0,1,0-9.041h23.366a.587.587,0,0,1,0,1.174H853.418a3.347,3.347,0,0,0,0,6.694h23.364a.586.586,0,1,1,0,1.173Z" transform="translate(-848.899 -2698.307)" fill="#003a66"/>
        </g>
        <g id="Grupo_949875" data-name="Grupo 949875" transform="translate(9.393 7.867)">
          <path id="Trazado_669092" data-name="Trazado 669092" d="M1337.35,3103.45h-10.776a.587.587,0,0,1-.587-.587v-4.391a.587.587,0,0,1,.587-.587h10.776a.587.587,0,0,1,.587.587v4.391A.587.587,0,0,1,1337.35,3103.45Zm-10.189-1.173h9.6v-3.218h-9.6Z" transform="translate(-1325.987 -3097.885)" fill="#003a66"/>
        </g>
        <g id="Grupo_949880" data-name="Grupo 949880" transform="translate(6.215 12.259)">
          <g id="Grupo_949876" data-name="Grupo 949876">
            <path id="Trazado_669093" data-name="Trazado 669093" d="M1180.811,3341.544h-14.254a2.009,2.009,0,0,1-2.006-2.006v-16.591a2.009,2.009,0,0,1,2.006-2.006h14.294a2.009,2.009,0,0,1,2.006,2.006V3339.5A2.048,2.048,0,0,1,1180.811,3341.544Zm-14.254-19.429a.833.833,0,0,0-.833.833v16.59a.834.834,0,0,0,.833.833h14.254a.873.873,0,0,0,.872-.872v-16.551a.833.833,0,0,0-.833-.833Z" transform="translate(-1164.55 -3320.941)" fill="#003a66"/>
          </g>
          <g id="Grupo_949879" data-name="Grupo 949879" transform="translate(7.001 4.675)">
            <g id="Grupo_949877" data-name="Grupo 949877">
              <path id="Trazado_669094" data-name="Trazado 669094" d="M1522.266,3562.678a2.152,2.152,0,1,1,2.153-2.153A2.155,2.155,0,0,1,1522.266,3562.678Zm0-3.132a.979.979,0,1,0,.979.979A.98.98,0,0,0,1522.266,3559.546Z" transform="translate(-1520.114 -3558.373)" fill="#003a66"/>
            </g>
            <g id="Grupo_949878" data-name="Grupo 949878" transform="translate(0 6.948)">
              <path id="Trazado_669095" data-name="Trazado 669095" d="M1522.266,3915.585a2.152,2.152,0,1,1,2.153-2.153A2.155,2.155,0,0,1,1522.266,3915.585Zm0-3.132a.979.979,0,1,0,.979.979A.98.98,0,0,0,1522.266,3912.454Z" transform="translate(-1520.114 -3911.281)" fill="#003a66"/>
            </g>
          </g>
        </g>
      </g>
      <g id="Grupo_949889" data-name="Grupo 949889" transform="translate(9.281 0)">
        <g id="Grupo_949882" data-name="Grupo 949882" transform="translate(0 23.054)">
          <path id="Trazado_669096" data-name="Trazado 669096" d="M1326.81,1809.265h-5.926a.587.587,0,0,1-.587-.587v-4.565a.587.587,0,0,1,.587-.587h5.927a.587.587,0,1,1,0,1.174h-5.34v3.391h5.339a.587.587,0,0,1,0,1.174Z" transform="translate(-1320.297 -1803.527)" fill="#003a66"/>
        </g>
        <g id="Grupo_949883" data-name="Grupo 949883" transform="translate(5.783 20.33)">
          <path id="Trazado_669097" data-name="Trazado 669097" d="M1637.629,1676.388h-19.266a4.333,4.333,0,0,1-4.328-4.328v-2.529a4.333,4.333,0,0,1,4.328-4.328h19.266a4.333,4.333,0,0,1,4.328,4.328v2.529A4.333,4.333,0,0,1,1637.629,1676.388Zm-19.266-10.011a3.158,3.158,0,0,0-3.154,3.154v2.529a3.158,3.158,0,0,0,3.154,3.154h19.266a3.158,3.158,0,0,0,3.155-3.154v-2.529a3.158,3.158,0,0,0-3.155-3.154Z" transform="translate(-1614.036 -1665.203)" fill="#003a66"/>
        </g>
        <g id="Grupo_949884" data-name="Grupo 949884" transform="translate(21.686 10.867)">
          <path id="Trazado_669098" data-name="Trazado 669098" d="M2422.318,1195.183a.587.587,0,0,1-.587-.587v-9.464a.587.587,0,1,1,1.173,0v9.464A.587.587,0,0,1,2422.318,1195.183Z" transform="translate(-2421.731 -1184.546)" fill="#003a66"/>
        </g>
        <g id="Grupo_949885" data-name="Grupo 949885" transform="translate(16.628 7.946)">
          <path id="Trazado_669099" data-name="Trazado 669099" d="M2165.417,1049.785a.586.586,0,0,1-.587-.587v-12.384a.587.587,0,0,1,1.173,0V1049.2A.587.587,0,0,1,2165.417,1049.785Z" transform="translate(-2164.831 -1036.227)" fill="#003a66"/>
        </g>
        <g id="Grupo_949886" data-name="Grupo 949886" transform="translate(48.524 26.469)">
          <path id="Trazado_669100" data-name="Trazado 669100" d="M3785.4,1984.72a.587.587,0,0,1-.586-.586v-6.576a.587.587,0,1,1,1.173,0v6.576A.587.587,0,0,1,3785.4,1984.72Z" transform="translate(-3784.811 -1976.971)" fill="#003a66"/>
        </g>
        <g id="Grupo_949887" data-name="Grupo 949887" transform="translate(43.466 23.548)">
          <path id="Trazado_669101" data-name="Trazado 669101" d="M3528.508,1839.318a.587.587,0,0,1-.587-.587v-9.5a.587.587,0,0,1,1.174,0v9.5A.587.587,0,0,1,3528.508,1839.318Z" transform="translate(-3527.921 -1828.649)" fill="#003a66"/>
        </g>
        <g id="Grupo_949888" data-name="Grupo 949888" transform="translate(13.921)">
          <path id="Trazado_669102" data-name="Trazado 669102" d="M2064.405,660.642a4.6,4.6,0,0,1-2.308-.62l-32.449-18.734a4.633,4.633,0,1,1,4.632-8.025L2066.729,652a4.632,4.632,0,0,1-2.324,8.644Zm-32.436-26.827a3.478,3.478,0,0,0-.9.119,3.46,3.46,0,0,0-.833,6.338l32.448,18.734a3.459,3.459,0,0,0,3.459-5.992l-32.45-18.735A3.439,3.439,0,0,0,2031.97,633.815Z" transform="translate(-2027.33 -632.641)" fill="#003a66"/>
        </g>
      </g>
    </g>
  </g>
</svg>
