<svg xmlns="http://www.w3.org/2000/svg" width="73.251" height="74.675" viewBox="0 0 73.251 74.675">
  <g id="Shinning" transform="translate(-0.9)">
    <path id="Trazado_669135" data-name="Trazado 669135" d="M64.592,44.815c-5.21,6.221-7.154,13.919-8.243,21.929l-1.166,5.366a5.712,5.712,0,0,1-6.454,4.9,5.861,5.861,0,0,1-4.977-5.21L42.663,60.289a5.386,5.386,0,0,0-10.731,0L30.765,71.954a5.554,5.554,0,0,1-5.91,5.132A5.408,5.408,0,0,1,19.8,72.265l-1.555-8.554c-.933-7.387-5.132-14.23-9.331-20.451a18.427,18.427,0,0,1-2.8-13.53C8.681,15.265,26.8,9.589,37.22,20.475h0c10.109-10.42,27.994-5.677,31.1,8.476A18.277,18.277,0,0,1,64.592,44.815Z" transform="translate(-1.094 -3.29)" fill="#dbe9ee"/>
    <path id="Trazado_669136" data-name="Trazado 669136" d="M63.481,42.638a4.234,4.234,0,0,0,6.065-.389A11.159,11.159,0,0,0,60.915,23.9a9.544,9.544,0,0,0-5.754,1.633,5.621,5.621,0,0,0-.855,8.787C57.96,37.817,59.2,38.673,63.481,42.638Z" transform="translate(-11.492 -5.313)" fill="#fff"/>
    <path id="Trazado_669137" data-name="Trazado 669137" d="M30.223,55.693a17.661,17.661,0,0,1,1.4,8.943c-.311,3.422-.778,7.854-.778,8.009a5.493,5.493,0,0,1-5.91,5.054,5.617,5.617,0,0,1-5.054-4.743L18.326,64.4c-.933-7.387-5.132-14.23-9.331-20.373A18.132,18.132,0,0,1,13.5,18.99c4.821-3.422,10.887,1.866,8.476,7.232a18.414,18.414,0,0,0,1.477,17.807A67.011,67.011,0,0,1,30.223,55.693Z" transform="translate(-1.096 -3.982)" fill="#a4c6ee"/>
    <path id="Trazado_669138" data-name="Trazado 669138" d="M59.309,73.093a1.921,1.921,0,0,1,1.4,2.177c-1.322,7.7-1.555,13.219-7.232,13.219A5.638,5.638,0,0,1,47.8,83.2L46.711,71.771a5.338,5.338,0,0,0-10.653,0L34.969,83.435a5.438,5.438,0,0,1-5.832,5.132,5.542,5.542,0,0,1-5.054-4.432,1.892,1.892,0,0,1,1.089-2.177A1.913,1.913,0,0,1,27.815,83.2a1.732,1.732,0,0,0,3.344.389c.078-.311,1.244-12.6,1.244-12.131a4.638,4.638,0,0,1,2.255-3.577,13.854,13.854,0,0,1,13.686,0A4.848,4.848,0,0,1,50.6,71.46c.078,1.166-.389-4.277,1.089,11.509A1.931,1.931,0,0,0,54.1,84.679c1.555-.389,1.4-1.089,2.955-10.031A1.76,1.76,0,0,1,59.309,73.093Z" transform="translate(-5.142 -14.694)" fill="#7c94e9"/>
    <path id="Trazado_669139" data-name="Trazado 669139" d="M48.671,44.8l1.789,1.944a3.054,3.054,0,0,1-.233,4.277c-.7.622-1.089.622-4.588,1.555a3.083,3.083,0,0,1-3.81-2.644l-.233-2.255a2.967,2.967,0,0,1,2.1-3.188l1.789-.622A3.224,3.224,0,0,1,48.671,44.8Z" transform="translate(-9.046 -9.732)" fill="#fff"/>
    <path id="Trazado_669140" data-name="Trazado 669140" d="M34.948,46.193c-3.188.933-4.121,1.866-5.054,5.054-.078.233-.311.233-.389,0-.933-3.188-1.866-4.121-5.054-5.054-.233-.078-.233-.311,0-.389,3.188-.933,4.121-1.866,5.054-5.054.078-.233.311-.233.389,0,.933,3.266,1.866,4.121,5.054,5.054C35.181,45.882,35.181,46.193,34.948,46.193Z" transform="translate(-5.198 -9.023)" fill="#fcbf49"/>
    <path id="Trazado_669141" data-name="Trazado 669141" d="M34.948,46.193c-3.188.933-4.121,1.866-5.054,5.054-.078.233-.311.233-.389,0-.933-3.188-1.866-4.121-5.054-5.054-.233-.078-.233-.311,0-.389,3.188-.933,4.121-1.866,5.054-5.054.078-.233.311-.233.389,0,.933,3.266,1.866,4.121,5.054,5.054C35.181,45.882,35.181,46.193,34.948,46.193Z" transform="translate(-5.198 -9.023)" fill="#fcbf49"/>
    <path id="Trazado_669142" data-name="Trazado 669142" d="M91.376,75.955a6.161,6.161,0,0,0-3.422,3.422c-.078.156-.311.156-.467,0a6.161,6.161,0,0,0-3.422-3.422c-.156-.078-.156-.311,0-.467a6.161,6.161,0,0,0,3.422-3.422c.078-.156.311-.156.467,0a6.161,6.161,0,0,0,3.422,3.422C91.61,75.644,91.61,75.877,91.376,75.955Z" transform="translate(-18.469 -16.001)" fill="#fcbf49"/>
    <path id="Trazado_669143" data-name="Trazado 669143" d="M91.72,76.01a6.177,6.177,0,0,0-3.81,3.81h-.7a6.177,6.177,0,0,0-3.81-3.81v-.7a6.177,6.177,0,0,0,3.81-3.81h.7a6.177,6.177,0,0,0,3.81,3.81Z" transform="translate(-18.347 -15.901)" fill="#fcbf49"/>
    <path id="Trazado_669144" data-name="Trazado 669144" d="M51.426,5.56A6.105,6.105,0,0,0,48.16,8.826a.3.3,0,0,1-.544,0A6.105,6.105,0,0,0,44.35,5.56a.3.3,0,0,1,0-.544A6.105,6.105,0,0,0,47.616,1.75a.3.3,0,0,1,.544,0,6.52,6.52,0,0,0,3.266,3.344C51.582,5.171,51.582,5.4,51.426,5.56Z" transform="translate(-9.624 -0.35)" fill="#fcbf49"/>
    <path id="Trazado_669145" data-name="Trazado 669145" d="M9.571,79.66a6.368,6.368,0,0,0-3.188,3.188.364.364,0,0,1-.622,0A5.694,5.694,0,0,0,2.65,79.66a.364.364,0,0,1,0-.622A6.368,6.368,0,0,0,5.838,75.85a.364.364,0,0,1,.622,0,6.085,6.085,0,0,0,3.188,3.188A.411.411,0,0,1,9.571,79.66Z" transform="translate(-0.35 -16.829)" fill="#fcbf49"/>
    <path id="Trazado_669146" data-name="Trazado 669146" d="M14.465,29.994a.819.819,0,0,0-.311-1.011.772.772,0,0,0-1.011.389,16,16,0,0,0,.311,14.541.8.8,0,0,0,1.4-.778A14.514,14.514,0,0,1,14.465,29.994Z" transform="translate(-2.368 -6.432)" fill="#003a66"/>
    <path id="Trazado_669147" data-name="Trazado 669147" d="M58.833,21.008a.738.738,0,0,0-.544.933.812.812,0,0,0,1.089.544A10.84,10.84,0,0,1,70.963,25.6a.8.8,0,0,0,1.4-.467.706.706,0,0,0-.233-.544A12.336,12.336,0,0,0,58.833,21.008Z" transform="translate(-12.753 -4.522)" fill="#003a66"/>
    <path id="Trazado_669148" data-name="Trazado 669148" d="M49.605,59.7a14.578,14.578,0,0,0-8.165-.233.8.8,0,0,0-.544.933.778.778,0,0,0,.933.544,12.715,12.715,0,0,1,7.232.233.787.787,0,1,0,.544-1.477Z" transform="translate(-8.891 -13.119)" fill="#003a66"/>
    <path id="Trazado_669149" data-name="Trazado 669149" d="M68.9,28.6a19.008,19.008,0,0,0-31.727-9.331C26.133,8.691,7.782,14.678,5.216,29.531A19.152,19.152,0,0,0,8.171,43.606c4.2,6.143,8.243,12.908,9.176,20.14L18.9,72.3a6.3,6.3,0,0,0,12.52-.311l1.166-11.664a4.615,4.615,0,0,1,4.977-4.2,4.516,4.516,0,0,1,4.2,4.2l1.089,11.431a6.493,6.493,0,0,0,12.908.389L56.927,66.7c.855-6.61,2.488-15.086,8.009-21.618h0A19.137,19.137,0,0,0,68.9,28.6ZM63.77,44.072c-5.754,6.843-7.543,15.552-8.4,22.318l-1.166,5.443a4.981,4.981,0,0,1-5.521,4.355A5.046,5.046,0,0,1,44.33,71.6L43.241,60.169a6.511,6.511,0,0,0-1.089-3.11A12.107,12.107,0,0,1,44.33,58.3a.765.765,0,0,0,1.089-.233.737.737,0,0,0-.156-1.011c-5.91-4.51-15.4-3.11-19.052,3.188a.787.787,0,0,0,.311,1.089.772.772,0,0,0,1.011-.233,9.506,9.506,0,0,1,4.588-3.966,6.232,6.232,0,0,0-1.089,3.033L29.866,71.833a4.657,4.657,0,0,1-5.054,4.355,4.728,4.728,0,0,1-4.355-4.121L18.9,63.512C17.891,55.97,13.769,49.049,9.493,42.75A17.818,17.818,0,0,1,6.771,29.764c2.411-13.686,19.207-19.052,29.238-9.409a17.675,17.675,0,0,1-9.72,4.743.833.833,0,0,0-.7.855c0,.389.467.7.855.7a19.28,19.28,0,0,0,11.2-5.754c9.642-10.109,26.672-5.366,29.627,8.009A17.2,17.2,0,0,1,63.77,44.072Z" transform="translate(-0.894 -3.092)" fill="#003a66"/>
    <path id="Trazado_669150" data-name="Trazado 669150" d="M34.986,44.91c-2.955-.855-3.655-1.555-4.51-4.51a.972.972,0,0,0-1.866,0c-.855,2.955-1.555,3.655-4.51,4.51a.972.972,0,0,0,0,1.866c2.955.855,3.655,1.555,4.51,4.51a.972.972,0,0,0,1.866,0c.855-2.955,1.555-3.655,4.51-4.51A.972.972,0,0,0,34.986,44.91Zm-5.443,4.355a5.535,5.535,0,0,0-3.422-3.422,5.535,5.535,0,0,0,3.422-3.422,5.535,5.535,0,0,0,3.422,3.422,5.535,5.535,0,0,0-3.422,3.422Z" transform="translate(-5.004 -8.829)" fill="#003a66"/>
    <path id="Trazado_669151" data-name="Trazado 669151" d="M91.831,74.7A6.123,6.123,0,0,1,88.1,70.967a.758.758,0,0,0-1.4,0A6.123,6.123,0,0,1,82.967,74.7a.758.758,0,0,0,0,1.4A6.123,6.123,0,0,1,86.7,79.831a.758.758,0,0,0,1.4,0A6.123,6.123,0,0,1,91.831,76.1.758.758,0,0,0,91.831,74.7Zm-2.022.7A6,6,0,0,0,87.4,77.81,6,6,0,0,0,84.988,75.4,6,6,0,0,0,87.4,72.988,5.992,5.992,0,0,0,89.81,75.4Z" transform="translate(-18.147 -15.678)" fill="#003a66"/>
    <path id="Trazado_669152" data-name="Trazado 669152" d="M43.067,5.6A6.123,6.123,0,0,1,46.8,9.331a.758.758,0,0,0,1.4,0A6.123,6.123,0,0,1,51.931,5.6a.758.758,0,0,0,0-1.4A6.123,6.123,0,0,1,48.2.467a.758.758,0,0,0-1.4,0A6.123,6.123,0,0,1,43.067,4.2.758.758,0,0,0,43.067,5.6Zm2.022-.7A6,6,0,0,0,47.5,2.488,6,6,0,0,0,49.91,4.9,6,6,0,0,0,47.5,7.31,6.517,6.517,0,0,0,45.088,4.9Z" transform="translate(-9.273 0)" fill="#003a66"/>
    <path id="Trazado_669153" data-name="Trazado 669153" d="M10.231,78.3A6.123,6.123,0,0,1,6.5,74.567a.758.758,0,0,0-1.4,0A6.123,6.123,0,0,1,1.367,78.3a.758.758,0,0,0,0,1.4A6.123,6.123,0,0,1,5.1,83.431a.758.758,0,0,0,1.4,0A6.123,6.123,0,0,1,10.231,79.7.758.758,0,0,0,10.231,78.3ZM5.8,81.41A6,6,0,0,0,3.388,79,6,6,0,0,0,5.8,76.588,6,6,0,0,0,8.21,79,6.055,6.055,0,0,0,5.8,81.41Z" transform="translate(0 -16.479)" fill="#003a66"/>
  </g>
</svg>
