<svg xmlns="http://www.w3.org/2000/svg" xmlns:xlink="http://www.w3.org/1999/xlink" width="400.22" height="443.297" viewBox="0 0 400.22 443.297">
  <defs>
    <clipPath id="clip-path">
      <rect id="Rectángulo_47448" data-name="Rectángulo 47448" width="400" height="442" transform="translate(180 420)" fill="#fff" opacity="0.48"/>
    </clipPath>
    <clipPath id="clip-path-2">
      <rect id="Rectángulo_47447" data-name="Rectángulo 47447" width="422.665" height="904.698" fill="none"/>
    </clipPath>
    <clipPath id="clip-path-3">
      <rect id="Rectángulo_47419" data-name="Rectángulo 47419" width="422.662" height="904.698" fill="none"/>
    </clipPath>
    <clipPath id="clip-path-4">
      <path id="Trazado_655876" data-name="Trazado 655876" d="M79.228,30.85s-15.559,89.735-21.92,109.719-32.265,17.568-32.265,17.568-14.115,1.626-12.3-33.2c1.976-37.946,40.881-97.463,40.881-97.463Z" transform="translate(-12.58 -27.475)" fill="none"/>
    </clipPath>
    <linearGradient id="linear-gradient" x1="2.193" y1="5.46" x2="2.098" y2="5.46" gradientUnits="objectBoundingBox">
      <stop offset="0" stop-color="#66e1b3"/>
      <stop offset="0.003" stop-color="#66e1b3"/>
      <stop offset="1" stop-color="#3cc9d2"/>
    </linearGradient>
    <clipPath id="clip-path-6">
      <path id="Trazado_655886" data-name="Trazado 655886" d="M119.058,21.34v.013l.058.052c.337.285.68.6,1.062.939.408.376.849.784,1.3,1.231A74.509,74.509,0,0,1,127.09,29.8a1.344,1.344,0,0,0,.24.3c.168.207.356.44.525.674l.065.078a96.119,96.119,0,0,1,6.763,10.008l.628,1.082c.415.738.829,1.49,1.257,2.261s.836,1.555,1.257,2.377c.369.732.738,1.47,1.114,2.235.35.751.719,1.522,1.095,2.313.168.4.356.81.538,1.218.356.81.713,1.639,1.069,2.468l.019.019c.343.842.7,1.7,1.043,2.578.512,1.315,1.03,2.682,1.535,4.081q.486,1.389.991,2.857c.466,1.451.946,2.947,1.406,4.483.3,1.023.615,2.053.9,3.129q.661,2.4,1.27,4.917c.279,1.127.544,2.261.8,3.42s.5,2.345.738,3.543.46,2.41.687,3.653.428,2.494.622,3.789c.2,1.27.4,2.565.57,3.887.091.661.168,1.334.259,2.015.175,1.334.33,2.688.479,4.068a244.586,244.586,0,0,1,1.218,28.081c-.039,2.993-.091,5.979-.188,8.965-.039,1.619-.091,3.265-.155,4.9-.11,2.772-.227,5.551-.376,8.324-.065,1.16-.117,2.338-.194,3.5-.188,3.362-.4,6.7-.648,10.027-.052.68-.091,1.354-.149,2.015s-.1,1.321-.155,2c-.039.525-.078,1.043-.136,1.568-.052.8-.117,1.606-.181,2.4q-.35,4.1-.726,8.155c-.123,1.237-.24,2.468-.356,3.712s-.253,2.468-.382,3.692c-.013.227-.045.434-.071.654l-.026.1c-.065.8-.143,1.587-.246,2.358v.039c0,.078-.013.162-.013.24-.019.091-.019.168-.032.266-.654,5.908-3.9,27.005-8.259,54.678h-.013q-.515,3.333-1.069,6.782c-.149.933-.3,1.885-.453,2.857l-.434,2.734c-.026.155-.065.33-.1.512-.337,2.183-.68,4.4-1.056,6.64-.006.117-.039.233-.052.337-.007.162-.039.311-.058.466a5.1,5.1,0,0,0-.084.512,1.273,1.273,0,0,0-.026.22l-.013.065a1.658,1.658,0,0,1-.058.291c-5.6,35.057-12.243,76.1-17.775,109.939-4.806,29.454-8.738,53.447-10.345,63.28-.518,3.122-.79,4.813-.79,4.813a12.813,12.813,0,0,0-2.578-.836v-.013c-9.775-2.325-37.311-2.759-65.632,3.381-.991.227-1.963.44-2.954.68-.978.22-1.969.46-2.96.713,2.429-12.2,29.221-156.481,31.268-165.187C73.1,258,77.737,244.489,81.157,224.661c.972-5.59,1.827-11.686,2.623-18.753V205.9c.343-3.07.674-6.335.978-9.814.013-.194.013-.285.013-.285L82.5,181.546l-1.341-8.4L79.933,165.4l-1.166-7.274V158.1l-.991-6.083-1.412-8.868-.013-.032-.317-1.969-4.826-30.264c0-.013-10.8-43.044-10.96-43.711l-.013-.013c10.144-9.9,26.332-19.012,43.375-36.307.823-.842,1.678-1.7,2.5-2.585l8.732-7.592.019-.013v-.013l1.587-1.36a26.922,26.922,0,0,1,2.611,2.047" transform="translate(-35.431 -19.293)" fill="none"/>
    </clipPath>
    <linearGradient id="linear-gradient-2" x1="2.93" y1="1.809" x2="2.876" y2="1.809" gradientUnits="objectBoundingBox">
      <stop offset="0" stop-color="#39d1c2"/>
      <stop offset="0.003" stop-color="#39d1c2"/>
      <stop offset="1" stop-color="#29c3c1"/>
    </linearGradient>
    <clipPath id="clip-path-8">
      <path id="Trazado_655892" data-name="Trazado 655892" d="M37.543,26.938s.188.706.531,2.053c-.732-.408-1.432-.8-2.086-1.166-.389-.214-.771-.421-1.127-.622l.926-1.321.253-.343-3.453-6.73a31.093,31.093,0,0,1,4.955,8.129" transform="translate(-32.588 -18.809)" fill="none"/>
    </clipPath>
    <linearGradient id="linear-gradient-3" x1="39.474" y1="76.879" x2="38.294" y2="76.879" xlink:href="#linear-gradient-2"/>
    <clipPath id="clip-path-10">
      <path id="Trazado_655896" data-name="Trazado 655896" d="M34.854,26.185c.317.207.635.428.939.635,22.944,15.462,30.62,15.967,35.18,20.4l.032.032a12.332,12.332,0,0,1,1.334,1.529,14.963,14.963,0,0,1,.887,1.38,35.808,35.808,0,0,1,2.325,5.1,54.265,54.265,0,0,1,3.1,14.167,121.244,121.244,0,0,1-.3,22.737c-.823,8.764-2.144,16.972-2.792,23.3-.9,8.816-3.109,23.553-4.625,40.194-.084.887-.175,2.785-.253,5.564-.363,11.99-.674,40.466-.421,76.618.181,29.357.738,63.76,1.924,98.467,1.4,41.017,3.692,82.435,7.313,116.43a46.353,46.353,0,0,0-10.39-5.577c-1.477-.583-3.109-1.147-4.852-1.652a49.376,49.376,0,0,0-13.137-1.943c-.8,0-1.6.013-2.423.052l-1.2-32.712-.7-19.245-.013-.33-2.377-64.751L41.8,255.34l-.039-1.121-.084-2.177-.253-6.918-.272-7.281-1.969-53.467v-.039c.635-13.6.764-26.746.5-39.261-.026-1.457-.052-2.9-.091-4.327-.026-1.056-.052-2.1-.1-3.155-.039-1.179-.071-2.358-.117-3.517q-.194-5.257-.479-10.325c-.11-2.261-.246-4.483-.4-6.685s-.3-4.379-.46-6.517c-.091-1.192-.188-2.377-.279-3.556-.272-3.53-.583-6.983-.926-10.338-.013-.143-.032-.3-.032-.447-.324-3.278-.667-6.478-1.023-9.58a4.285,4.285,0,0,1-.052-.428c-.2-1.691-.4-3.355-.6-4.994-.292-2.462-.609-4.858-.926-7.19-.207-1.542-.421-3.077-.635-4.586q-.253-1.788-.512-3.524c-.052-.291-.1-.6-.136-.887-.155-1.036-.3-2.034-.46-3.025s-.3-1.976-.46-2.941c-.9-5.538-1.788-10.559-2.63-15.022-.11-.544-.214-1.088-.311-1.619s-.207-1.049-.3-1.574c-.065-.343-.123-.687-.194-1.011-.149-.68-.266-1.321-.4-1.963-.2-.946-.382-1.872-.57-2.759-.266-1.321-.531-2.559-.79-3.725a1,1,0,0,1-.039-.214c-.162-.7-.3-1.36-.453-2l-.078-.369q-.194-.855-.369-1.613c-.149-.622-.279-1.218-.415-1.755-.065-.266-.13-.531-.181-.784-.24-1-.447-1.866-.622-2.533-.343-1.347-.531-2.053-.531-2.053a75.158,75.158,0,0,1,10.734,6.121" transform="translate(-24.12 -20.064)" fill="none"/>
    </clipPath>
    <linearGradient id="linear-gradient-4" x1="3.821" y1="1.791" x2="3.704" y2="1.791" xlink:href="#linear-gradient-2"/>
    <clipPath id="clip-path-12">
      <path id="Trazado_655898" data-name="Trazado 655898" d="M122.431,26.459A25.355,25.355,0,0,1,142.59,48.386c.065.57.13,1.121.168,1.7v.006a93.076,93.076,0,0,1,.492,9.671,98.171,98.171,0,0,1-14.458,51.258l-14.9,24.3-.4.635L101.787,155.08,43.857,159.1C78.6,77.814,76.867,58.1,100.9,33.111a23.472,23.472,0,0,1,21.532-6.653" transform="translate(-43.857 -25.986)" fill="none"/>
    </clipPath>
    <linearGradient id="linear-gradient-5" x1="3.858" y1="5.532" x2="3.793" y2="5.532" xlink:href="#linear-gradient"/>
    <clipPath id="clip-path-14">
      <path id="Trazado_655906" data-name="Trazado 655906" d="M155.634,41.728l1.147,4.534.81,3.122.317,1.25,3.252,12.677.8,3.161,1.47,5.8L125.688,89.579l-6.678,3.051L94.666,103.785a57.678,57.678,0,0,1-54.192-3.278l1.652-21.078L56.895,65.586l2.468-.635h.013l40.641-10.338,15.164-3.854L155.33,40.53Z" transform="translate(-40.474 -40.53)" fill="none"/>
    </clipPath>
    <linearGradient id="linear-gradient-6" x1="3.132" y1="9.01" x2="3.08" y2="9.01" xlink:href="#linear-gradient"/>
    <clipPath id="clip-path-16">
      <rect id="Rectángulo_47431" data-name="Rectángulo 47431" width="106.041" height="25.8" fill="none"/>
    </clipPath>
    <clipPath id="clip-path-17">
      <rect id="Rectángulo_47432" data-name="Rectángulo 47432" width="3.582" height="18.597" fill="none"/>
    </clipPath>
    <clipPath id="clip-path-18">
      <rect id="Rectángulo_47434" data-name="Rectángulo 47434" width="0.529" height="0.674" fill="none"/>
    </clipPath>
    <clipPath id="clip-path-19">
      <path id="Trazado_655923" data-name="Trazado 655923" d="M39.5,20.961c.162.227.33.453.505.661l.026.013c-.175-.233-.356-.46-.531-.674" transform="translate(-39.497 -20.961)" fill="none"/>
    </clipPath>
    <linearGradient id="linear-gradient-7" x1="482.689" y1="1141.271" x2="470.493" y2="1141.271" xlink:href="#linear-gradient-2"/>
    <clipPath id="clip-path-20">
      <rect id="Rectángulo_47435" data-name="Rectángulo 47435" width="4.216" height="11.42" fill="none"/>
    </clipPath>
    <clipPath id="clip-path-21">
      <path id="Trazado_655926" data-name="Trazado 655926" d="M32.939,20.387l-.188-.155.188-.227Z" transform="translate(-32.751 -20.005)" fill="none"/>
    </clipPath>
    <linearGradient id="linear-gradient-8" x1="1130.371" y1="2028.267" x2="1095.887" y2="2028.267" xlink:href="#linear-gradient-2"/>
    <clipPath id="clip-path-23">
      <rect id="Rectángulo_47439" data-name="Rectángulo 47439" width="131.343" height="86.814" fill="none"/>
    </clipPath>
    <clipPath id="clip-path-24">
      <rect id="Rectángulo_47440" data-name="Rectángulo 47440" width="140.926" height="108.44" fill="none"/>
    </clipPath>
    <clipPath id="clip-path-25">
      <rect id="Rectángulo_47441" data-name="Rectángulo 47441" width="86.466" height="113.22" fill="none"/>
    </clipPath>
    <clipPath id="clip-path-26">
      <rect id="Rectángulo_47442" data-name="Rectángulo 47442" width="49.791" height="96.438" fill="none"/>
    </clipPath>
    <clipPath id="clip-path-27">
      <rect id="Rectángulo_47443" data-name="Rectángulo 47443" width="62.136" height="75.87" fill="none"/>
    </clipPath>
    <clipPath id="clip-path-28">
      <rect id="Rectángulo_47444" data-name="Rectángulo 47444" width="77.63" height="116.642" fill="none"/>
    </clipPath>
    <clipPath id="clip-path-29">
      <rect id="Rectángulo_47445" data-name="Rectángulo 47445" width="109.321" height="89.988" fill="none"/>
    </clipPath>
  </defs>
  <g id="Grupo_951047" data-name="Grupo 951047" transform="translate(-179.78 -420)">
    <path id="Trazado_655968" data-name="Trazado 655968" d="M-6377.292-10820c3.475-1.7,313.088-.18,346.2-.013l2.505.013" transform="translate(6557.292 11682.797)" fill="none" stroke="#1d345e" stroke-width="1"/>
    <g id="Enmascarar_grupo_97" data-name="Enmascarar grupo 97" clip-path="url(#clip-path)">
      <g id="Grupo_948446" data-name="Grupo 948446" transform="translate(153.211 428.313)">
        <g id="Grupo_948445" data-name="Grupo 948445" clip-path="url(#clip-path-2)">
          <g id="Grupo_948381" data-name="Grupo 948381" transform="translate(0.003)">
            <g id="Grupo_948380" data-name="Grupo 948380" clip-path="url(#clip-path-3)">
              <path id="Trazado_655874" data-name="Trazado 655874" d="M39.989,237.693l1.03.175c3.835-23.041,4.5-53.1,3.621-83.445-.091-2.915-.181-5.836-.3-8.758v-.136c-.181-4.768-.408-9.529-.661-14.257C40.7,74.358,33.647,22.582,33.524,21.727l-.512.065-.518.078c.117.862,7.125,52.236,10.112,108.857.078,1.535.162,3.09.24,4.638.3,6.225.557,12.515.738,18.785.9,30.387.24,60.5-3.6,83.543" transform="translate(167.193 119.013)" fill="#2aa1a7"/>
              <path id="Trazado_655875" data-name="Trazado 655875" d="M25.424,24.257S55.856,60.325,62.949,130.672C65.184,153.623,48.5,173.1,48.5,173.1s-19.912-8.544-26.61-49.276,3.537-99.568,3.537-99.568" transform="translate(232.472 132.872)" fill="#2aa1a7"/>
            </g>
          </g>
          <g id="Grupo_948383" data-name="Grupo 948383" transform="translate(274.528 177.974)">
            <g id="Grupo_948382" data-name="Grupo 948382" clip-path="url(#clip-path-4)">
              <rect id="Rectángulo_47420" data-name="Rectángulo 47420" width="68.301" height="133.084" transform="translate(-1.653 0)" fill="url(#linear-gradient)"/>
            </g>
          </g>
          <g id="Grupo_948385" data-name="Grupo 948385" transform="translate(0.003)">
            <g id="Grupo_948384" data-name="Grupo 948384" clip-path="url(#clip-path-3)">
              <path id="Trazado_655877" data-name="Trazado 655877" d="M26.669,385.928c.188,6.186.479,12.4.823,18.636,2.695,48.492,9.25,98.746,6.86,150.042h34.72L97.211,330.473l3.407-9.231a19.044,19.044,0,0,0,.738-10.507L100.01,304.5c0-.052.013-.117.013-.188.758-14.484,1.3-27.433,1.678-39.294.11-3.368.214-6.659.291-9.859q.126-4.712.2-9.224c.1-5.1.168-10.047.227-14.853.1-9.969.1-19.446.052-28.871,0-.816-.013-1.652-.013-2.468-.136-19.388-.492-38.769-.622-62.212-.013-1.678-.026-3.4-.026-5.13-.013-1.043-.013-2.144-.013-3.252-.013-2.857-.013-5.765-.013-8.751,0-.661,0-1.321-.013-1.982v-1.056c-.039-4.761-.149-9.172-.3-13.24-.214-5.4-.505-10.17-.874-14.4q-.36-4.372-.777-7.955c-1.088-9.121.829-22.691.181-24.583-.453-1.347-3.2-1.73-6.529-1.652-.149,0-.3.013-.466.013a77.947,77.947,0,0,0-8.719.9c-.6.091-1.14.181-1.626.266-1.665.259-2.753.473-2.753.473l-2.747-.4L63.689,54.815,52.638,61.94l-.421,1.172v.013l-.142.421-5.318,15L32.59,118.562s-2.844,26.779-4.677,66.111c-.136,2.934-.266,5.947-.4,9-.635,15.993-1.088,33.729-1.114,52.353-.026,6.16.013,12.437.123,18.772l.078,4.794q.1,4.8.227,9.639c.052,1.755.1,3.517.168,5.273s.117,3.517.188,5.286c.155,3.6.3,7.229.5,10.85v.013c.356,7.417.836,14.86,1.386,22.257l.026.071c-2.669,20.573-3.09,41.567-2.429,62.95" transform="translate(149.187 300.259)" fill="#1d345e"/>
              <path id="Trazado_655878" data-name="Trazado 655878" d="M32.178,566.908l6.238-.1,22.523-.317,3.977-.071S117.4,420.992,152.928,287.131q2.381-8.929,4.638-17.781.991-3.906,1.969-7.8,3.945-11.252,7.352-21.635c5.26-16.1,9.658-30.808,13.6-44.793.875-3.038,1.691-6.024,2.513-9,.861-3.083,1.678-6.134,2.5-9.146q1.739-6.442,3.407-12.793c1.36-5.13,2.695-10.235,4.042-15.346.1-.369.2-.751.3-1.14.583-2.274,1.192-4.56,1.8-6.86.13-.486.253-.978.4-1.477,2.209-8.356,4.47-16.784,6.886-25.47.149-.544.3-1.069.453-1.613l.026-.065c.246-.887.5-1.788.751-2.682H209.5l.544-2.714,1.27-6.355.317-1.587,4.884-24.4.266-1.347,1.231-6.212-11.025-2.021-1.794-.33-15.462-2.837-6.186-1.14-7.229-1.334-15.7-2.883-9.878-1.82S125.308,79.9,121.246,89.413a293.193,293.193,0,0,0-11.09,30.322c-9.976,32.421-13.888,63.876-19.906,101.1-1.794,11.077-3.776,22.665-6.154,34.96v.013c-.149.829-.317,1.678-.479,2.513-.1.486-.194.991-.291,1.477C69.172,331.179,58.27,397.517,32.664,563.786l-.013.045v.013c-.156,1.017-.317,2.034-.473,3.064" transform="translate(-3.786 298.807)" fill="#2b5178"/>
              <path id="Trazado_655879" data-name="Trazado 655879" d="M41.939,19.473l-7.773-1.419s-.486,3.867-.453,4.508a11.767,11.767,0,0,0,.6,3.032c.408,1.16.382,1.8,1.736,2.079a6.821,6.821,0,0,0,2.824-.155,3.561,3.561,0,0,0,.538-1.632c-.032-.713,2.526-6.413,2.526-6.413" transform="translate(162.354 98.894)" fill="#2aa1a7"/>
              <path id="Trazado_655880" data-name="Trazado 655880" d="M34.344,55.515,70.71,53.591c5.383,10.733,5.817,15.644,5.817,15.644a120.086,120.086,0,0,0-1.276-15.559l-1.134-10.4C57.761,43.234,43.9,25.452,40.634,20.141a6.667,6.667,0,0,1-1-3.2l-.207-3.874-1.017.291L36.061,37.669v.006l-1.1,11.394-.071.732Z" transform="translate(123.666 71.577)" fill="#f7927e"/>
              <path id="Trazado_655881" data-name="Trazado 655881" d="M30.467,39.611c1.315,9.555,11.271,24.065,11.271,24.065L44,68.015A47.5,47.5,0,0,0,54.259,73.7a47.782,47.782,0,0,0,4.126-7.171s9.542-5.895,1.069-17.814l20.651-2.585c1.393-.168,2.883-1.535,2.274-2.7-2.17-4.165.706-4.768,1.963-4.424,18.837,5.143,24.531-3.653,25-4.463l.032-.052.006-.006.006-.013a165.378,165.378,0,0,1,3.861,21.94c3.55-10.1,4.7-17.561,4.4-23.08C116.769,16.615,102.7,17.761,102.7,17.761s-2.61-13.014-13.13-16.155C58.975-7.521,48.805,25.23,48.805,25.23s-20.431-.946-18.338,14.38" transform="translate(108.583 0)" fill="#6c2a36"/>
              <path id="Trazado_655882" data-name="Trazado 655882" d="M30.8,49.1c.091.285.181.577.285.862a7.81,7.81,0,0,0,3.744.5l.466,8.9a6.637,6.637,0,0,0,1,3.206A64.94,64.94,0,0,0,49.479,77.25c5.7,4.619,12.735,8.434,20.3,8.46.408,0,.823-.013,1.257-.039,10.656-.564,22.724-13.253,24.006-37.888a98.76,98.76,0,0,0-1.218-20.521c-.577-5.389-1.386-10.228-2.105-13.966-.1-.589-.22-1.153-.33-1.671-.8-3.938-1.419-6.3-1.419-6.3l-.019.013-.026.052c-.479.81-6.18,9.606-25,4.47-1.257-.337-4.133.253-1.963,4.418.6,1.166-.887,2.539-2.274,2.695l-20.657,2.6C48.5,31.479,38.953,37.38,38.953,37.38c0,.026-.324.732-.9,1.827a47.515,47.515,0,0,1-3.213,5.338A23.772,23.772,0,0,1,30.8,49.1" transform="translate(128.009 29.152)" fill="#ffb598"/>
              <path id="Trazado_655883" data-name="Trazado 655883" d="M40.654,25.7c1.891,4.359,5.072,7.534,8.337,8.751a7.2,7.2,0,0,0,1.127.33A6.692,6.692,0,0,0,51.7,35a9.14,9.14,0,0,0,1.03-.052.907.907,0,0,0,.181-.039,6.282,6.282,0,0,0,1.522-.434A6.631,6.631,0,0,0,56.6,32.951a8.134,8.134,0,0,0,1.3-1.891,11.286,11.286,0,0,0,1.134-4.476,18.044,18.044,0,0,0-.181-3.608c-.071-.389-.149-.771-.24-1.166a20.575,20.575,0,0,0-.836-2.734c-.026-.084-.065-.149-.091-.227-.065-.143-.117-.279-.188-.421-.1-.253-.22-.492-.343-.725-.168-.376-.369-.745-.564-1.114a7.431,7.431,0,0,0-.505-.842c-.279-.466-.583-.887-.887-1.308a19.573,19.573,0,0,0-1.451-1.7c-3.064-3.1-6.886-4.45-10.034-3.1a7.237,7.237,0,0,0-3.764,4.107c-1.3,3.2-1.14,7.644.713,11.951" transform="translate(110.373 49.938)" fill="#ffb598"/>
              <path id="Trazado_655884" data-name="Trazado 655884" d="M39.714,15.841a5.417,5.417,0,0,1,3.815-2c2.526-.168,5.1,1.211,6.678,2.267a18.51,18.51,0,0,0-6.97-5.882.4.4,0,0,1-.207-.531.406.406,0,0,1,.531-.207c.279.123,6.769,3.077,8.68,8.952,1.023,3.155.512,6.549-1.522,10.073a.408.408,0,0,1-.33.2.4.4,0,0,1-.369-.6c1.917-3.317,2.4-6.491,1.457-9.419-.1-.311-.22-.6-.35-.9-.538-.447-4.12-3.323-7.417-3.148l-.123.006a4.61,4.61,0,0,0-3.258,1.71.4.4,0,0,1-.615-.525" transform="translate(113.269 51.824)" fill="#f7927e"/>
              <path id="Trazado_655885" data-name="Trazado 655885" d="M34.343,17.848l.2,3.621.369,7.125.207,3.9.136,2.468L47.907,38.68l.026.013,6.128,1.794,10.682,1,5.169.479,2.4.22,5.655.531,3.349.317s-.013-.117-.058-.343a2.649,2.649,0,0,0-.052-.317.58.58,0,0,0-.039-.2,31.771,31.771,0,0,0-1.27-4.515c-.078-.24-.168-.479-.246-.719-.071-.168-.123-.33-.188-.5-.2-.544-.421-1.14-.674-1.762l-.117-.3c-.136-.3-.266-.635-.415-.965-.181-.44-.369-.887-.577-1.367a4.32,4.32,0,0,0-.2-.434l-.447-.991c-.453-1.017-.985-2.086-1.548-3.226-.609-1.2-1.27-2.455-2-3.8v-.013C66,23.464,58.317,23.561,51.82,23.27c-.926-.045-1.827-.1-2.7-.149-.246-.013-.512-.039-.764-.052-.8-.065-1.574-.13-2.313-.214-.3-.026-.6-.052-.887-.091-.836-.091-1.626-.2-2.377-.33l-.065-.013c-.518-.078-1-.175-1.47-.279l-.026-.013c-.421-.078-.849-.181-1.231-.291l-.13-.039h-.013c-2.921-.836-4.942-1.969-5.409-3.491a1.81,1.81,0,0,1-.091-.46" transform="translate(118.88 97.766)" fill="#e3f8f6"/>
            </g>
          </g>
          <g id="Grupo_948387" data-name="Grupo 948387" transform="translate(74.392 124.974)">
            <g id="Grupo_948386" data-name="Grupo 948386" clip-path="url(#clip-path-6)">
              <rect id="Rectángulo_47422" data-name="Rectángulo 47422" width="118.859" height="431.012" transform="translate(0)" fill="url(#linear-gradient-2)"/>
            </g>
          </g>
          <g id="Grupo_948389" data-name="Grupo 948389" transform="translate(0.003)">
            <g id="Grupo_948388" data-name="Grupo 948388" clip-path="url(#clip-path-3)">
              <path id="Trazado_655887" data-name="Trazado 655887" d="M40.591,23.025l.1.667c.46,1.529,2.494,2.662,5.415,3.491l.991-10.312v-.006s-6.5,1.25-6.5,6.16" transform="translate(112.632 92.381)" fill="#2aa1a7"/>
              <path id="Trazado_655888" data-name="Trazado 655888" d="M33.71,20.254c.337,1.665.615,3.3.849,4.9l.2,1.386a122.774,122.774,0,0,1,1.082,14.167l.421-.3c-.233-2.345,1.127-5.966,1.568-8.738a7.235,7.235,0,0,0,.1-.81c.11-1.3.272-2.559.428-3.776.615-4.612,1.464-8.33,1.574-8.777l.013-.039-.013.013A34.9,34.9,0,0,1,34.014,20.2a2.489,2.489,0,0,1-.3.052" transform="translate(164.358 100.088)" fill="#e3f8f6"/>
              <path id="Trazado_655889" data-name="Trazado 655889" d="M32.9,20.255l.421,1.069,1.8,4.508.253.635.551,1.4,1.192,3,.168.44.518,1.3v.013l1,2.526.3.764,4.074-5.765.92-1.321.253-.343-3.446-6.73-1.788-3.472-.013.013A34.974,34.974,0,0,1,33.206,20.2a2.994,2.994,0,0,1-.3.052" transform="translate(165.172 100.094)" fill="#fff"/>
              <path id="Trazado_655890" data-name="Trazado 655890" d="M35.551,17.92l.162,3.226.337,7.028v.013l1.587-1.373a26.5,26.5,0,0,1,2.6,2.047v.013l.071.058c.33.272.674.6,1.056.933.408.376.842.784,1.3,1.231a72.29,72.29,0,0,1,5.616,6.225,1.344,1.344,0,0,0,.24.3c.168.214.356.44.525.674l.071.084L55.178,40.1l11.459,3.239,3.835,1.082.551-2.844.24-1.237,1.8-9.192.777-3.99.764-3.951c-7.495-.117-15.171-.039-21.674-.33-.926-.039-1.82-.091-2.695-.143-.253-.013-.518-.039-.771-.058-.79-.065-1.568-.13-2.306-.207-.3-.026-.6-.052-.887-.091-.836-.1-1.626-.214-2.377-.33l-.071-.013c-.512-.1-1-.188-1.464-.279l-.026-.013c-.428-.084-.849-.188-1.231-.291l-.13-.039H40.96c-2.921-.836-4.949-1.969-5.409-3.491" transform="translate(117.769 98.16)" fill="#fff"/>
              <path id="Trazado_655891" data-name="Trazado 655891" d="M35.444,35.709,58.867,58.044,47.02,68.79a286.339,286.339,0,0,1,16.155,32.252c.447,1.03.9,2.086,1.347,3.155a261.115,261.115,0,0,1,14.51,45.441,177.859,177.859,0,0,1,3.135,20.042c.279,2.973.473,5.9.57,8.836a121.747,121.747,0,0,1-.376,14.925c-.013.214-.026.434-.052.648.149-1.438.292-2.883.441-4.334.117-1.244.233-2.474.356-3.712.246-2.714.486-5.422.726-8.155.1-1.321.227-2.649.317-3.964.039-.415.078-.81.1-1.218.013-.266.039-.518.052-.784.058-.661.1-1.334.149-2.008.33-4.476.609-9,.842-13.532.149-2.779.266-5.551.376-8.33.065-1.639.117-3.278.155-4.9q.136-4.479.188-8.959A244.768,244.768,0,0,0,84.8,106.1c-.149-1.373-.3-2.734-.479-4.068-.091-.674-.168-1.347-.259-2.008-.175-1.321-.369-2.617-.57-3.887-.2-1.3-.408-2.552-.622-3.8s-.447-2.455-.687-3.647-.492-2.377-.738-3.543-.518-2.3-.8-3.42c-.408-1.678-.829-3.323-1.27-4.917-.291-1.075-.589-2.105-.894-3.135-.466-1.535-.939-3.025-1.419-4.483-.33-.978-.661-1.93-.991-2.85-.5-1.406-1.017-2.766-1.529-4.087-.343-.874-.706-1.73-1.049-2.578l-.013-.013c-.356-.829-.713-1.665-1.069-2.468-.181-.415-.369-.823-.544-1.218-.369-.8-.738-1.561-1.095-2.313-.369-.771-.738-1.509-1.108-2.235-.428-.823-.836-1.613-1.257-2.377s-.849-1.522-1.257-2.261c-.214-.369-.421-.726-.635-1.088-1.535-2.572-3.051-4.9-4.521-6.963-.764-1.082-1.516-2.086-2.248-3.025l-.078-.1c-.168-.214-.343-.44-.5-.661a1.7,1.7,0,0,1-.24-.3c-2.274-2.921-4.586-5.882-6.581-8.473-.453-.57-.887-1.127-1.3-1.652-2.526-3.252-4.366-5.629-4.7-6.057l-.052-.065S35.826,28.4,35.431,35.7Z" transform="translate(107.117 100.828)" fill="#71dcd1"/>
            </g>
          </g>
          <g id="Grupo_948391" data-name="Grupo 948391" transform="translate(206.083 121.839)">
            <g id="Grupo_948390" data-name="Grupo 948390" clip-path="url(#clip-path-8)">
              <rect id="Rectángulo_47424" data-name="Rectángulo 47424" width="5.487" height="10.183" transform="translate(0 0)" fill="url(#linear-gradient-3)"/>
            </g>
          </g>
          <g id="Grupo_948393" data-name="Grupo 948393" transform="translate(0.003)">
            <g id="Grupo_948392" data-name="Grupo 948392" clip-path="url(#clip-path-3)">
              <path id="Trazado_655893" data-name="Trazado 655893" d="M31.329,37.38c.33.583.628,1.2.907,1.827.091.22.181.44.266.661,7.482-2.41,9.5-12.742,3.472-18.766,26.422,1.192,22.16-2.474,22.834-6.484,15.32,4.411,22.62.751,25.282-1.321-.1-.589-.214-1.147-.324-1.678-.8-3.925-1.425-6.3-1.425-6.3l-.006.006-.007.013-.032.045c-.473.81-6.173,9.606-25.01,4.463-1.244-.337-4.126.259-1.956,4.424.6,1.166-.887,2.539-2.274,2.7L32.4,19.566c8.479,11.919-1.069,17.814-1.069,17.814" transform="translate(135.633 29.152)" fill="#f7927e"/>
              <path id="Trazado_655894" data-name="Trazado 655894" d="M34.716,47.785c.22.058.453.123.68.175l3.453-24.816a43.247,43.247,0,0,0,16.55,16.1c11.368,6.16,18.371,3.835,18.371,3.835C57.414,43.031,43.552,25.25,40.287,19.938a6.738,6.738,0,0,1-1-3.2L39.095,13.1a7.879,7.879,0,0,1-1.036.052L35.714,37.467v.006Z" transform="translate(124.013 71.779)" fill="#d35850"/>
              <path id="Trazado_655895" data-name="Trazado 655895" d="M32.782,39.611C34.1,49.165,44.054,63.675,44.054,63.675v.013a7.228,7.228,0,0,1,3.77-4.12C51.477,58,56.07,60.087,59.3,64.375A19.951,19.951,0,0,1,60.7,66.532s9.542-5.895,1.069-17.814c-.525-9.555,10.215-7.294,10.753-7.177-.654-.415-13.772-9.01-1.386-26.649,12.677-18.073,33.878,2.87,33.878,2.87S102.4,4.748,91.885,1.606C61.291-7.521,51.121,25.23,51.121,25.23s-20.431-.946-18.338,14.38" transform="translate(106.267 0)" fill="#491d2e"/>
            </g>
          </g>
          <g id="Grupo_948395" data-name="Grupo 948395" transform="translate(211.039 129.968)">
            <g id="Grupo_948394" data-name="Grupo 948394" clip-path="url(#clip-path-10)">
              <rect id="Rectángulo_47426" data-name="Rectángulo 47426" width="55.384" height="432.676" transform="translate(0 0)" fill="url(#linear-gradient-4)"/>
            </g>
          </g>
          <g id="Grupo_948397" data-name="Grupo 948397" transform="translate(0.003)">
            <g id="Grupo_948396" data-name="Grupo 948396" clip-path="url(#clip-path-3)">
              <path id="Trazado_655897" data-name="Trazado 655897" d="M28.444,18.809A30.981,30.981,0,0,1,33.4,26.938s.188.7.531,2.047c.168.674.382,1.535.622,2.539.052.253.117.512.181.777.136.544.266,1.14.415,1.762.117.512.246,1.056.369,1.613.026.117.052.233.078.369.143.635.292,1.3.447,2a1.431,1.431,0,0,0,.039.207q.379,1.749.8,3.731l.564,2.76c.136.635.266,1.283.4,1.956.065.33.13.674.194,1.017.1.518.2,1.049.3,1.574s.2,1.069.3,1.613c.849,4.47,1.73,9.49,2.63,15.028.3,1.93.609,3.913.926,5.959.039.291.078.6.136.887q.253,1.739.512,3.53c.214,1.5.421,3.038.635,4.586.317,2.338.622,4.729.926,7.19q.291,2.458.6,4.994a4.157,4.157,0,0,0,.052.421q.515,4.664,1.017,9.587c0,.142.026.3.039.447.434,4.483.836,9.121,1.2,13.888.648,8.583,1.147,17.619,1.451,27.044.039,1.056.065,2.105.091,3.161.369,13.823.292,28.443-.421,43.627l.013-.039C64,146.976,60.418,59.133,60.418,59.133L49.062,56.056l.253-1.827A31.249,31.249,0,0,0,36.308,24.334Z" transform="translate(177.637 103.03)" fill="#71dcd1"/>
            </g>
          </g>
          <g id="Grupo_948399" data-name="Grupo 948399" transform="translate(39.18 168.329)">
            <g id="Grupo_948398" data-name="Grupo 948398" clip-path="url(#clip-path-12)">
              <rect id="Rectángulo_47428" data-name="Rectángulo 47428" width="99.393" height="133.11" transform="translate(0)" fill="url(#linear-gradient-5)"/>
            </g>
          </g>
          <g id="Grupo_948401" data-name="Grupo 948401" transform="translate(0.003)">
            <g id="Grupo_948400" data-name="Grupo 948400" clip-path="url(#clip-path-3)">
              <path id="Trazado_655899" data-name="Trazado 655899" d="M36.95,47.765,38.1,52.3l.8,3.116.317,1.257,3.252,12.677,25.1-15.436-4.062-7.8-.855-1.665-2.617-5.02Z" transform="translate(115.735 215.975)" fill="#ffb598"/>
              <path id="Trazado_655900" data-name="Trazado 655900" d="M32.861,21.078a95.313,95.313,0,0,1,6.756,10c.207.363.421.719.635,1.088.421.725.842,1.477,1.25,2.261.428.764.836,1.555,1.257,2.377.369.726.745,1.464,1.114,2.235.356.751.726,1.516,1.095,2.313.168.4.356.8.544,1.218q.534,1.2,1.069,2.468l.013.013c.343.849.7,1.691,1.043,2.578q.777,1.982,1.535,4.087c.33.92.661,1.872.991,2.85.473,1.457.952,2.947,1.412,4.483.3,1.03.609,2.06.9,3.135.434,1.594.855,3.239,1.27,4.917.279,1.121.538,2.254.79,3.42s.505,2.338.738,3.543.466,2.4.693,3.647c.207,1.244.421,2.5.615,3.8.2,1.27.4,2.565.57,3.887.091.661.175,1.334.266,2.008.175,1.334.33,2.695.479,4.068a246.346,246.346,0,0,1,1.211,28.087c-.039,2.986-.091,5.972-.181,8.959-.039,1.626-.1,3.265-.162,4.9a42.014,42.014,0,0,1,6.439-.5,41.56,41.56,0,0,1,10.572,1.36c-2.986-56.621-9.989-108-10.112-108.857l.518-.078-3.342-.317-8.065-.751-.557,2.837L38.924,22.795Z" transform="translate(134.023 115.458)" fill="#fff"/>
              <path id="Trazado_655901" data-name="Trazado 655901" d="M32.753,45.36l2.617,5.02.862,1.671,4.055,7.793,5.972.622,2.287.24,3.174.33,2.326.24,11.064,1.16,1.9-18.092.46-4.457c-.233-.065-.46-.13-.7-.181a41.778,41.778,0,0,0-17.01-.862,41.014,41.014,0,0,0-6.633,1.587,42.2,42.2,0,0,0-7.585,3.342Z" transform="translate(143.025 210.042)" fill="#ffb598"/>
              <path id="Trazado_655902" data-name="Trazado 655902" d="M29.96,53.684l.913,14.646,5.564-.453-.531-14.193Z" transform="translate(192.155 294.064)" fill="#fff"/>
              <path id="Trazado_655903" data-name="Trazado 655903" d="M38.87,241.319h.013a65.112,65.112,0,0,0,7.981,1.9c1.088.117,3.3.434,5.487.764l-.4-6.368H57.9l-1.969-53.467v-.039l-.013.039c.635-13.61.764-26.766.518-39.307-.026-1.451-.052-2.9-.1-4.321-.026-1.056-.052-2.105-.091-3.161-.039-1.172-.078-2.351-.117-3.511q-.2-5.257-.479-10.325c-.13-2.261-.259-4.483-.4-6.685s-.3-4.379-.46-6.517c-.1-1.192-.188-2.384-.279-3.556-.292-3.53-.6-6.983-.926-10.338-.013-.143-.039-.3-.039-.447q-.5-4.917-1.017-9.587a3.948,3.948,0,0,1-.052-.421q-.3-2.536-.6-4.994c-.3-2.462-.609-4.852-.926-7.19-.214-1.548-.421-3.083-.635-4.586-.168-1.192-.343-2.364-.518-3.53-.052-.291-.091-.6-.13-.887-.155-1.03-.317-2.034-.46-3.025-.162-.991-.3-1.969-.466-2.934-.9-5.538-1.781-10.559-2.63-15.028-.1-.544-.207-1.082-.3-1.613s-.207-1.056-.3-1.574c-.065-.343-.13-.687-.194-1.017-.149-.674-.266-1.321-.4-1.956-.194-.946-.382-1.872-.564-2.759q-.418-1.982-.8-3.731a1.431,1.431,0,0,1-.039-.207c-.155-.7-.3-1.36-.447-2-.026-.136-.052-.253-.078-.369-.136-.57-.253-1.114-.376-1.613-.143-.622-.272-1.218-.408-1.762-.065-.266-.13-.525-.181-.777-.24-1-.453-1.866-.622-2.539q-1.73-.972-3.213-1.781l-4.068,5.759-.3-.764-1.011-2.526v-.013l-.512-1.3-.175-.434c-.246,2.844-1.93,6.963-1.665,9.542l-.421.3.518-.065c.117.862,7.177,52.631,10.151,109.544l12.716,12a1.3,1.3,0,0,1,.369,1.231,1.284,1.284,0,0,1-1.257,1,1.389,1.389,0,0,1-.6-.143l-8.117-4.178,7.112,6.555a1.215,1.215,0,0,1,.3,1.308,1.191,1.191,0,0,1-1.114.764,1.135,1.135,0,0,1-.538-.13l-8.22-4.152v.136l7.41,6.381a1.192,1.192,0,0,1-.764,2.092,1.067,1.067,0,0,1-.369-.071l-.764-.233a2.73,2.73,0,0,1-2.293,1.257,3.046,3.046,0,0,1-.674-.084l-2.241-.577c.8,28.016.3,55.786-2.8,78" transform="translate(170.165 110.134)" fill="#fff"/>
              <path id="Trazado_655904" data-name="Trazado 655904" d="M32.654,123.663a18.967,18.967,0,0,1,8.285-2.157l18.863.939c3.122-22.257,3.621-50.131,2.792-78.231l-2.649-.687-13.389-1.4-3.168-.33c-.065.939-.136,1.859-.2,2.785-.026.408-.065.81-.1,1.218-.091,1.321-.214,2.643-.317,3.964-.24,2.734-.473,5.448-.725,8.155s-.518,5.4-.8,8.052c.026-.214.039-.44.052-.648-.013.22-.039.434-.065.661l-.026.1c-.065.79-.143,1.587-.253,2.351v.039c0,.078-.013.162-.013.24s-.013.175-.026.266c-.661,5.908-3.9,27-8.259,54.678" transform="translate(148.19 228.956)" fill="#fff"/>
              <path id="Trazado_655905" data-name="Trazado 655905" d="M30.67,61.132l2.643.687,1.056.279,2.248.583a2.988,2.988,0,0,0,.674.078A2.7,2.7,0,0,0,39.577,61.5l.764.24a1.272,1.272,0,0,0,.376.065A1.148,1.148,0,0,0,41.6,61.4a1.178,1.178,0,0,0-.117-1.678l-7.417-6.387-.369-.317.369.188,8.22,4.146a1.111,1.111,0,0,0,.544.136,1.2,1.2,0,0,0,.81-2.073L36.526,48.85l8.117,4.178a1.291,1.291,0,0,0,1.477-2.086l-12.716-12-.369-.356-.46,4.457Z" transform="translate(177.464 211.345)" fill="#f7927e"/>
            </g>
          </g>
          <g id="Grupo_948403" data-name="Grupo 948403" transform="translate(37.528 262.54)">
            <g id="Grupo_948402" data-name="Grupo 948402" clip-path="url(#clip-path-14)">
              <rect id="Rectángulo_47430" data-name="Rectángulo 47430" width="122.959" height="71.261" transform="translate(0 0)" fill="url(#linear-gradient-6)"/>
            </g>
          </g>
          <g id="Grupo_948419" data-name="Grupo 948419" transform="translate(0.003)">
            <g id="Grupo_948418" data-name="Grupo 948418" clip-path="url(#clip-path-3)">
              <path id="Trazado_655907" data-name="Trazado 655907" d="M38.753,34.494l1.49,3.284L64.67,34.325c-.447-1.075-.9-2.131-1.347-3.161Z" transform="translate(106.962 170.706)" fill="#2aa1a7"/>
              <g id="Grupo_948406" data-name="Grupo 948406" transform="translate(49.275 262.537)" opacity="0.25">
                <g id="Grupo_948405" data-name="Grupo 948405">
                  <g id="Grupo_948404" data-name="Grupo 948404" clip-path="url(#clip-path-16)">
                    <path id="Trazado_655908" data-name="Trazado 655908" d="M41.272,66.33,147.312,52.1l-2.63-10.364-.3-1.2L104.229,50.758h-.019L89.064,54.618,81.8,56.406Z" transform="translate(-41.272 -40.53)" fill="#fff"/>
                  </g>
                </g>
              </g>
              <path id="Trazado_655909" data-name="Trazado 655909" d="M59.989,152.176c-.162-7.968-.227-15.857-.214-23.579.032-18.617.479-36.359,1.114-52.346-3.938,13.985-8.343,28.69-13.6,44.787-2.28,6.938-4.716,14.134-7.339,21.642-.661,2.6-1.315,5.189-1.976,7.806,7.216.687,14.594,1.283,22.018,1.691" transform="translate(115.809 417.678)" fill="#0e575a"/>
              <path id="Trazado_655910" data-name="Trazado 655910" d="M33.47,12.222A49.951,49.951,0,0,1,46.555,9.029s-1.3,3.453-4.489,4.508c-5.934,1.963-8.6-1.315-8.6-1.315" transform="translate(159.299 49.458)" fill="#f7927e"/>
              <path id="Trazado_655911" data-name="Trazado 655911" d="M32.893,9.086c-.544-.039-1.127-.078-1.742-.1a6.678,6.678,0,0,0,4.366,2.552c2.9.389,3.045-1.671,3.045-1.671a43.416,43.416,0,0,0-5.668-.784" transform="translate(182.314 49.239)" fill="#f7927e"/>
              <path id="Trazado_655912" data-name="Trazado 655912" d="M32.126,39.016l.045-.006,5.927-.836a.329.329,0,0,0,.272-.22c3.53-10.39-2.1-27.588-2.338-28.314a.334.334,0,0,0-.421-.214.33.33,0,0,0-.207.421c.058.175,5.726,17.5,2.4,27.705l-5.726.81a.329.329,0,0,0,.045.654" transform="translate(177.148 51.542)" fill="#f7927e"/>
              <path id="Trazado_655913" data-name="Trazado 655913" d="M33.57,20.046S44.912,9.811,56.184,9.824c-.311-2.6-10.261-3.783-22.614,10.222" transform="translate(149.023 44.932)" fill="#491d2e"/>
              <path id="Trazado_655914" data-name="Trazado 655914" d="M30.408,10.276c5.428-.758,11.2.874,15.7,2.759a14.209,14.209,0,0,0-4.055-3.42,2.938,2.938,0,0,0-.447-.181c-.1-.032-.188-.058-.272-.091-6.827-2.455-10.96-.784-10.928.933" transform="translate(179.579 44.402)" fill="#491d2e"/>
              <path id="Trazado_655915" data-name="Trazado 655915" d="M43.48,18.846c.952,0,1.587-.065,1.678-.071a.334.334,0,0,0,.292-.369.309.309,0,0,0-.363-.291c-.071.006-7.417.758-11.135-3.187a.323.323,0,0,0-.466-.013.334.334,0,0,0-.013.466c2.85,3.025,7.521,3.466,10.008,3.466" transform="translate(160.962 81.182)" fill="#f7927e"/>
              <path id="Trazado_655916" data-name="Trazado 655916" d="M35.276,25.667a.33.33,0,0,0,.2-.071c3.5-2.734,3.181-9.347,3.161-9.626a.337.337,0,0,0-.181-.279.319.319,0,0,0-.33.026,4.189,4.189,0,0,1-4.113-.026.326.326,0,0,0-.441.149.333.333,0,0,0,.149.447,5.049,5.049,0,0,0,4.269.24c0,1.594-.227,6.445-2.915,8.551a.318.318,0,0,0-.058.46.328.328,0,0,0,.259.13" transform="translate(166.769 85.756)" fill="#f7927e"/>
              <path id="Trazado_655917" data-name="Trazado 655917" d="M38.787,25.86c6.1-3.53,4.152-15.449,4.152-15.449l-3.6.194c.117.24.233.479.343.726l.181.428c.026.078.065.143.091.22a19.739,19.739,0,0,1,.836,2.74c.091.4.175.777.24,1.16a17.619,17.619,0,0,1,.181,3.608,11.318,11.318,0,0,1-1.134,4.483,8.273,8.273,0,0,1-1.3,1.891" transform="translate(128.182 57.028)" fill="#f7927e"/>
              <path id="Trazado_655918" data-name="Trazado 655918" d="M43.857,115.685l7.268-1.781,15.145-3.861h.019l11.88-19.407A98.106,98.106,0,0,0,92.627,39.385a94.919,94.919,0,0,0-.486-9.678c-.6,2-19.433,64.051-48.285,85.978" transform="translate(45.943 162.725)" fill="#2aa1a7"/>
              <path id="Trazado_655919" data-name="Trazado 655919" d="M30.819,63.03l6.186,1.147,15.462,2.837.421-1.179L60.811,67l3.9-.214,9.38-.751-.512-8.272c-2.2-.33-4.4-.648-5.487-.771A65.359,65.359,0,0,1,60.1,55.1H60.1c-.253,1.846-.531,3.66-.823,5.428l-1.03-.168c.291-1.742.557-3.5.8-5.312L40.192,54.1A19.033,19.033,0,0,0,31.9,56.255h-.013c-.168,1.095-.343,2.222-.525,3.349-.175,1.147-.356,2.28-.544,3.427" transform="translate(148.937 296.364)" fill="#fff"/>
              <path id="Trazado_655920" data-name="Trazado 655920" d="M29.947,62.8c11.012,3.9,24.317,4.191,34.921,3.5,5.972-.382,11.09-1.088,14.445-1.626l-.078-2.183-.253-6.912c-.777-.136-3.3-.531-5.83-.913l.518,8.272-9.386.758-3.9.207-7.916-1.16-.421,1.172L36.58,61.081l-6.186-1.14c-.143.939-.3,1.891-.447,2.857" transform="translate(149.362 299.454)" fill="#fff"/>
              <path id="Trazado_655921" data-name="Trazado 655921" d="M35.732,21.063l.078.1c.725.939,1.483,1.943,2.248,3.032l22.089,4.515V24.58l-2.41-.227L57.186,27.2l-3.835-1.088L41.892,22.87l-6.07-1.717-.065-.078Z" transform="translate(131.055 115.376)" fill="#e3f8f6"/>
              <g id="Grupo_948409" data-name="Grupo 948409" transform="translate(188.793 121.359)" opacity="0.25">
                <g id="Grupo_948408" data-name="Grupo 948408">
                  <g id="Grupo_948407" data-name="Grupo 948407" clip-path="url(#clip-path-17)">
                    <path id="Trazado_655922" data-name="Trazado 655922" d="M35.791,35.862l-.24,1.244,2.41.22,1.172-18.591-.764,3.951-.777,3.99Z" transform="translate(-35.553 -18.732)" fill="#2aa1a7"/>
                  </g>
                </g>
              </g>
              <g id="Grupo_948414" data-name="Grupo 948414" transform="translate(166.284 135.779)" opacity="0.5">
                <g id="Grupo_948413" data-name="Grupo 948413">
                  <g id="Grupo_948412" data-name="Grupo 948412" clip-path="url(#clip-path-18)">
                    <g id="Grupo_948411" data-name="Grupo 948411" transform="translate(-0.002 0)">
                      <g id="Grupo_948410" data-name="Grupo 948410" clip-path="url(#clip-path-19)">
                        <rect id="Rectángulo_47433" data-name="Rectángulo 47433" width="0.531" height="0.674" transform="translate(0 0)" fill="url(#linear-gradient-7)"/>
                      </g>
                    </g>
                  </g>
                </g>
              </g>
              <path id="Trazado_655924" data-name="Trazado 655924" d="M32.911,21.639l2.021,5.616L40.2,20.726c-.382-.207-.764-.421-1.121-.622L35.01,25.869l-.3-.764-1-2.526v-.013l-.512-1.3-.175-.434c-.026.259-.052.525-.1.8" transform="translate(169.27 110.123)" fill="#e3f8f6"/>
              <g id="Grupo_948417" data-name="Grupo 948417" transform="translate(198.071 120.342)" opacity="0.25">
                <g id="Grupo_948416" data-name="Grupo 948416">
                  <g id="Grupo_948415" data-name="Grupo 948415" clip-path="url(#clip-path-20)">
                    <path id="Trazado_655925" data-name="Trazado 655925" d="M34.021,18.578,38.141,30a7.242,7.242,0,0,0,.1-.81l-1.185-3-.551-1.4-.253-.635-1.8-4.508Z" transform="translate(-34.024 -18.578)" fill="#2aa1a7"/>
                  </g>
                </g>
              </g>
            </g>
          </g>
          <g id="Grupo_948421" data-name="Grupo 948421" transform="translate(210.326 129.586)">
            <g id="Grupo_948420" data-name="Grupo 948420" clip-path="url(#clip-path-21)">
              <rect id="Rectángulo_47437" data-name="Rectángulo 47437" width="0.188" height="0.382" transform="translate(0 0)" fill="url(#linear-gradient-8)"/>
            </g>
          </g>
          <g id="Grupo_948444" data-name="Grupo 948444" transform="translate(0.003)">
            <g id="Grupo_948443" data-name="Grupo 948443" clip-path="url(#clip-path-3)">
              <path id="Trazado_655927" data-name="Trazado 655927" d="M35.675,327.764c.991-.253,1.982-.486,2.96-.713s1.969-.453,2.96-.674c31.443-6.834,61.953-5.538,68.2-2.539,0,0,.272-1.691.79-4.813L78.512,314.97,90.774,259.4s-23.7-33.5-20.431-53.94S92.562,94.1,92.562,94.1L126.8,77.751l1.373-14.38L141.041,50.2,152.422,48.1c.052-.531.091-1.043.13-1.574.052-.674.11-1.334.162-2s.091-1.334.143-2.008l-2.287-.24-5.972-.622L119.5,57.107l.81,3.155,1.464,5.8-37.745,17.3c-.8,7.074-1.652,13.163-2.617,18.753-3.427,19.828-8.065,33.334-14.458,60.456-2.053,8.712-28.839,152.99-31.274,165.187" transform="translate(38.715 228.222)" fill="#2aa1a7"/>
              <path id="Trazado_655928" data-name="Trazado 655928" d="M42.72,397.672c1.5-7.851,50.208-260.552,58.655-292.6,13.72-6.8,55.753-9.5,55.753-9.5l2.617-9.121v-.013c-9.768-2.325-37.311-2.76-65.625,3.388v.013c-.143.829-.317,1.678-.473,2.513-.11.486-.2.991-.291,1.477C79.2,165.182,68.294,231.507,42.72,397.672" transform="translate(-13.81 464.779)" fill="#1d345e"/>
              <path id="Trazado_655929" data-name="Trazado 655929" d="M32.178,67.7c9.347.9,27.478-.2,35.3-.738l.266-1.347,1.224-6.186c-10.6.687-23.909.4-34.915-3.5l-.44,2.734c-.026.162-.065.33-.091.518-.343,2.183-.687,4.4-1.056,6.633-.013.123-.039.24-.052.343a3.869,3.869,0,0,1-.071.466c-.039.207-.065.382-.078.512a1.205,1.205,0,0,0-.026.214l-.013.065a2.3,2.3,0,0,1-.052.291" transform="translate(145.252 306.323)" fill="#1d345e"/>
              <path id="Trazado_655930" data-name="Trazado 655930" d="M42.225,369.81l3.977-.065s52.489-145.43,88.012-279.292l-11.5,13.92a42.66,42.66,0,0,0-9.548,31.6l-.745,1.056a213.044,213.044,0,0,0-35.005,82.027C68.557,264.5,54.2,333.594,42.225,369.81" transform="translate(14.928 495.478)" fill="#1d345e"/>
              <path id="Trazado_655931" data-name="Trazado 655931" d="M56.178,158.037l18.61,1.088,3,.181.272-.933,5.934-19.861.447-1.522-21.227-5.02-1.684,6.251-1.853,6.86Z" transform="translate(-25.678 722.894)" fill="#f7927e"/>
              <path id="Trazado_655932" data-name="Trazado 655932" d="M32.406,131.971v10.52s5.921-.071,8.641,2.189c2,1.665,7.385,1.976,10.086,2.021h2.189l1.276-14.73Z" transform="translate(158.148 722.895)" fill="#f7927e"/>
              <path id="Trazado_655933" data-name="Trazado 655933" d="M23.125,138.467l.155.868.6,3.4H44.423l.894-1.011L46.3,140.6l66.532,2,.324-3.828a.286.286,0,0,0-.285-.311Z" transform="translate(159.708 758.478)" fill="#2b5178"/>
              <path id="Trazado_655934" data-name="Trazado 655934" d="M23.238,163.756c.032.7.078,1.406.143,2.105h88.951a10.339,10.339,0,0,0-7.851-8.492c-3.051-.725-6.257-1.626-9.516-2.63-7.43-2.3-15.151-5.15-21.953-7.844a119.732,119.732,0,0,1-18.345-8.823H49.893c-2.954-.052-8.842-.389-11.032-2.215-2.973-2.474-10.818-2.39-10.818-2.39l-1.4,9.03c-2.306,7.112-3.8,13.817-3.407,21.26" transform="translate(160.204 731.083)" fill="#f3f9ff"/>
              <path id="Trazado_655935" data-name="Trazado 655935" d="M58.759,150.264s-16.57-4.975-27.7-16.745l-.175.078a5.355,5.355,0,0,0-.518,9.464c4.858,2.9,14.983,7.9,26.921,7.825a1.618,1.618,0,0,0,1.47-.622" transform="translate(184.069 731.374)" fill="#adcae8"/>
              <path id="Trazado_655936" data-name="Trazado 655936" d="M56.586,163.76h54.5l-.363-5.13-.874-.428.855-18.455a2.532,2.532,0,0,0-2.151-2.63l-.091.091a13.515,13.515,0,0,1-3.776,2.189,13.294,13.294,0,0,1-4.832.913c-2.934,0-6.452-1-10.28-4.062a4.909,4.909,0,0,0-6.517.311c-7.942,7.786-26.474,27.2-26.474,27.2" transform="translate(-54.973 740.362)" fill="#fff"/>
              <path id="Trazado_655937" data-name="Trazado 655937" d="M56.976,156.321h53.59a23.173,23.173,0,0,0-.991-2.475,33.206,33.206,0,0,0-10.189-12.858,25.321,25.321,0,0,0-9.354-4.295,23.985,23.985,0,0,0-3.537-.589c-.324-.032-.648-.065-.978-.084-.628-.039-1.276-.065-1.93-.065-14.193,0-26.61,20.366-26.61,20.366" transform="translate(-56.976 744.718)" fill="#f3f9ff"/>
              <rect id="Rectángulo_47438" data-name="Rectángulo 47438" width="53.59" height="3.66" transform="translate(0 901.038)" fill="#2b5178"/>
              <path id="Trazado_655938" data-name="Trazado 655938" d="M57.5,145.166a25.74,25.74,0,0,1,12.891,4.884,23.459,23.459,0,0,0,7.229-10.306,17.364,17.364,0,0,0,.551-2.2,13.485,13.485,0,0,0-2.222-1.3,20.271,20.271,0,0,0-13.474-1.373,74.152,74.152,0,0,1-4.975,10.3" transform="translate(-27.99 735.655)" fill="#adcae8"/>
              <path id="Trazado_655939" data-name="Trazado 655939" d="M56.586,138.718a23.949,23.949,0,0,1,.991,2.468v3.083H60.1l-.363-5.13-.868-.421Z" transform="translate(-3.987 759.852)" fill="#1d345e"/>
              <path id="Trazado_655940" data-name="Trazado 655940" d="M38.627,146.569a.855.855,0,0,0,.253-.039L46.517,144a.808.808,0,0,0-.505-1.535l-6.335,2.1.842-4.5a.812.812,0,0,0-.227-.732.8.8,0,0,0-.738-.2L30.724,141.1l2.358-5.661a.806.806,0,1,0-1.49-.615l-2.96,7.093a.817.817,0,0,0,.13.836.8.8,0,0,0,.79.266l9.153-2.04-.868,4.638a.794.794,0,0,0,.259.758.809.809,0,0,0,.531.2" transform="translate(190.521 735.749)" fill="#2b5178"/>
              <path id="Trazado_655941" data-name="Trazado 655941" d="M58.234,137.2l.551.3c.33.019.654.052.978.084a25.967,25.967,0,0,1,3.537.589l-.978-.551,15.171,1.315a.794.794,0,0,0,.875-.732.8.8,0,0,0-.738-.874L58.7,135.687a.818.818,0,0,0-.849.564.829.829,0,0,0,.382.946" transform="translate(-30.243 743.237)" fill="#2b5178"/>
              <path id="Trazado_655942" data-name="Trazado 655942" d="M151.144,144.258,144.472,32.732,64.194,27.518,1.419,23.281l.026.162L0,23.353,5.519,154.208Z" transform="translate(271.518 127.528)" fill="#fff"/>
              <path id="Trazado_655943" data-name="Trazado 655943" d="M.683,24.372l5,116.644,135.928-8.33L135.645,32.223Z" transform="translate(276.629 133.503)" fill="#1d345e"/>
              <g id="Grupo_948424" data-name="Grupo 948424" transform="translate(279.4 157.848)" opacity="0.5">
                <g id="Grupo_948423" data-name="Grupo 948423">
                  <g id="Grupo_948422" data-name="Grupo 948422" clip-path="url(#clip-path-23)">
                    <path id="Trazado_655944" data-name="Trazado 655944" d="M7.049,49.963l3.5-.078c1.93-.039,3.252-2.468,2.8-5.1a90.162,90.162,0,0,0-2.215-9.509,2.113,2.113,0,0,0-1.82-1.73l-2.883.006c-.79,0-1.451.706-1.632,1.749a86.109,86.109,0,0,0-1.166,9.639c-.155,2.675,1.47,5.072,3.42,5.027" transform="translate(106.39 25.884)" fill="#fff"/>
                    <path id="Trazado_655945" data-name="Trazado 655945" d="M8.733,50.706l3.589-.091c1.976-.052,3.33-2.513,2.876-5.189a91.255,91.255,0,0,0-2.215-9.5,2.3,2.3,0,0,0-2-1.879l-2.759.019a2.048,2.048,0,0,0-1.8,1.917,87.363,87.363,0,0,0-1.192,9.632c-.162,2.721,1.5,5.137,3.5,5.085" transform="translate(94.133 28.678)" fill="#fff"/>
                    <path id="Trazado_655946" data-name="Trazado 655946" d="M10.477,51.562l3.679-.11c2.028-.065,3.427-2.565,2.967-5.273a91.418,91.418,0,0,0-2.261-9.619,2.32,2.32,0,0,0-2.04-1.891l-2.831.026a2.117,2.117,0,0,0-1.853,1.95A86.891,86.891,0,0,0,6.9,46.425c-.175,2.759,1.522,5.2,3.576,5.137" transform="translate(81.43 32.052)" fill="#fff"/>
                    <path id="Trazado_655947" data-name="Trazado 655947" d="M12.8,54.238,17.11,54.1c2.371-.078,4.016-2.98,3.479-6.1A104.323,104.323,0,0,0,17.893,36.6,2.382,2.382,0,0,0,15.8,34.688l-3.744.045A2.149,2.149,0,0,0,10.146,36.7,100.1,100.1,0,0,0,8.611,48.3C8.4,51.5,10.386,54.315,12.8,54.238" transform="translate(66.894 32.162)" fill="#fff"/>
                    <path id="Trazado_655948" data-name="Trazado 655948" d="M24.725,51.516l-4.21.091c-2.358.052-4.275-2.572-4.036-5.512A86.615,86.615,0,0,1,17.9,36.2,2.942,2.942,0,0,1,20.6,33.586l2.39-.006a3.258,3.258,0,0,1,2.9,2.578,91.922,91.922,0,0,1,2.3,9.749c.492,2.9-1.134,5.558-3.459,5.61" transform="translate(8.377 26.087)" fill="#fff"/>
                    <path id="Trazado_655949" data-name="Trazado 655949" d="M22.578,51.825l-4.107.1c-2.287.058-4.165-2.526-3.938-5.435A86.511,86.511,0,0,1,15.9,36.719a2.89,2.89,0,0,1,2.611-2.591l2.332-.013a3.177,3.177,0,0,1,2.824,2.533,88.885,88.885,0,0,1,2.267,9.626c.486,2.857-1.095,5.493-3.355,5.551" transform="translate(23.22 29.023)" fill="#fff"/>
                    <path id="Trazado_655950" data-name="Trazado 655950" d="M20.458,52.222l-4,.117c-2.235.071-4.061-2.474-3.854-5.351a87.469,87.469,0,0,1,1.315-9.658,2.839,2.839,0,0,1,2.539-2.572l2.267-.026a3.1,3.1,0,0,1,2.759,2.494,89.4,89.4,0,0,1,2.228,9.5c.479,2.818-1.056,5.435-3.258,5.5" transform="translate(37.894 32.403)" fill="#fff"/>
                    <path id="Trazado_655951" data-name="Trazado 655951" d="M19.264,54.389l-4.437.143c-2.474.084-4.515-2.779-4.288-6.018a98.611,98.611,0,0,1,1.509-11.252,2.754,2.754,0,0,1,2.462-2.513l3.07-.039a3.031,3.031,0,0,1,2.682,2.442,102.759,102.759,0,0,1,2.6,11.044c.544,3.168-1.153,6.115-3.6,6.193" transform="translate(52.147 32.282)" fill="#fff"/>
                    <path id="Trazado_655952" data-name="Trazado 655952" d="M1.84,24.368l1.211,8.751c.726,5.2,3.925,9.548,8.052,11.168,5.558,2.2,12.638,7.864,13.312,22.711l.855,18.623s10.649,9.9,47.747,9.341c34.286-.518,47.65-9.444,47.65-9.444l-.959-16.764c-.8-13.985,3.99-18.61,8.078-20.035,3.232-1.121,5.409-4.949,5.4-9.691l-.019-6.685-45.311-2.76-28.5-1.723Z" transform="translate(-1.839 -24.368)" fill="#fff3e6"/>
                    <path id="Trazado_655953" data-name="Trazado 655953" d="M14.725,59.188c4.379-6.75,9.775-14.024,12.806-14.18,3.038.376,9.056,7.929,13.908,14.737,2.533,3.55,6.7,1.095,6.1-3.576A130.634,130.634,0,0,0,40.61,26.631L12.024,24.908c-2.235,7.54-3.912,17.321-4.269,30.264-.143,4.858,4.644,7.585,6.97,4.016" transform="translate(45.447 -21.41)" fill="#1d345e"/>
                  </g>
                </g>
              </g>
              <path id="Trazado_655954" data-name="Trazado 655954" d="M6.055,132.188,134.96,124.9c.117-.007.2-.143.188-.3L129.7,32.263c-.006-.162-.11-.3-.22-.3L1.41,25.1a.278.278,0,0,0-.259.317L5.763,131.864a.315.315,0,0,0,.291.324m128.666-7.864L6.3,131.5,1.715,25.779l127.6,6.75Z" transform="translate(280.058 137.484)" fill="#fff"/>
              <g id="Grupo_948427" data-name="Grupo 948427" transform="translate(277.311 157.874)" opacity="0.5">
                <g id="Grupo_948426" data-name="Grupo 948426">
                  <g id="Grupo_948425" data-name="Grupo 948425" clip-path="url(#clip-path-24)">
                    <path id="Trazado_655955" data-name="Trazado 655955" d="M139.513,132.809l-9.58-93.868L1.784,49.946.683,24.373l134.969,7.844,5.959,100.462Z" transform="translate(-0.686 -24.369)" fill="#162747"/>
                  </g>
                </g>
              </g>
              <g id="Grupo_948430" data-name="Grupo 948430" transform="translate(277.311 157.874)" opacity="0.25">
                <g id="Grupo_948429" data-name="Grupo 948429">
                  <g id="Grupo_948428" data-name="Grupo 948428" clip-path="url(#clip-path-25)">
                    <path id="Trazado_655956" data-name="Trazado 655956" d="M9.091,24.372l.143,3.375L69.916,137.589l25.639-1.568L35.973,25.933Z" transform="translate(-9.091 -24.371)" fill="#fff"/>
                  </g>
                </g>
              </g>
              <g id="Grupo_948433" data-name="Grupo 948433" transform="translate(368.055 163.153)" opacity="0.25">
                <g id="Grupo_948432" data-name="Grupo 948432">
                  <g id="Grupo_948431" data-name="Grupo 948431" clip-path="url(#clip-path-26)">
                    <path id="Trazado_655957" data-name="Trazado 655957" d="M.743,25.187l49.794,96.44L49.7,107.544,7.6,25.588Z" transform="translate(-0.743 -25.188)" fill="#fff"/>
                  </g>
                </g>
              </g>
              <g id="Grupo_948436" data-name="Grupo 948436" transform="translate(356.101 194.123)" opacity="0.5">
                <g id="Grupo_948435" data-name="Grupo 948435">
                  <g id="Grupo_948434" data-name="Grupo 948434" clip-path="url(#clip-path-27)">
                    <path id="Trazado_655958" data-name="Trazado 655958" d="M.683,105.841l62.134-3.809L58.542,29.968C50.5,53.314,33.557,88.461.683,105.841" transform="translate(-0.68 -29.968)" fill="#162747"/>
                  </g>
                </g>
              </g>
              <g id="Grupo_948439" data-name="Grupo 948439" transform="translate(277.311 157.874)" opacity="0.5">
                <g id="Grupo_948438" data-name="Grupo 948438">
                  <g id="Grupo_948437" data-name="Grupo 948437" clip-path="url(#clip-path-28)">
                    <path id="Trazado_655959" data-name="Trazado 655959" d="M10.455,24.372l5,116.644,16.881-1.036C14.219,86.461,64.349,44.744,88.083,28.887Z" transform="translate(-10.457 -24.372)" fill="#162747"/>
                  </g>
                </g>
              </g>
              <g id="Grupo_948442" data-name="Grupo 948442" transform="translate(277.311 157.874)" opacity="0.15">
                <g id="Grupo_948441" data-name="Grupo 948441">
                  <g id="Grupo_948440" data-name="Grupo 948440" clip-path="url(#clip-path-29)">
                    <path id="Trazado_655960" data-name="Trazado 655960" d="M5.562,24.372,9.423,114.36C22.864,27,96.878,31.562,114.886,30.733Z" transform="translate(-5.564 -24.372)" fill="#fff"/>
                  </g>
                </g>
              </g>
              <path id="Trazado_655961" data-name="Trazado 655961" d="M16.559,23.142l3.051,4.249-2.332-.155-1.6-2.4Z" transform="translate(301.494 126.767)" fill="#f7927e"/>
              <path id="Trazado_655962" data-name="Trazado 655962" d="M14,22.9a62.61,62.61,0,0,1,5.895,6.562L14.477,29.1Z" transform="translate(312.095 125.417)" fill="#f7927e"/>
              <path id="Trazado_655963" data-name="Trazado 655963" d="M21.04,41.335h0a2.472,2.472,0,0,0,1.9-2.792L21.092,25.685A3.383,3.383,0,1,0,14.5,27.142l3.64,12.47a2.469,2.469,0,0,0,2.9,1.723" transform="translate(306.633 125.018)" fill="#ffb598"/>
              <path id="Trazado_655964" data-name="Trazado 655964" d="M14.174,39.715h0a2.463,2.463,0,0,0,3.116-1.3l4.774-10.546a3.382,3.382,0,1,0-6.316-2.384L12.69,36.683a2.465,2.465,0,0,0,1.483,3.032" transform="translate(318.805 126.542)" fill="#ffb598"/>
              <path id="Trazado_655965" data-name="Trazado 655965" d="M21.142,40.261h0a2.457,2.457,0,0,0,2.176-2.578l-.6-11.563a3.381,3.381,0,1,0-6.7.777l2.416,11.349a2.46,2.46,0,0,0,2.708,2.015" transform="translate(295.927 125.529)" fill="#ffb598"/>
              <path id="Trazado_655966" data-name="Trazado 655966" d="M13.083,38.087h0a2.457,2.457,0,0,0,3.116-1.3l4.12-8.33A3.385,3.385,0,1,0,14,26.078l-2.4,8.978a2.465,2.465,0,0,0,1.483,3.032" transform="translate(327.617 129.762)" fill="#ffb598"/>
              <path id="Trazado_655967" data-name="Trazado 655967" d="M32.037,87s1.937.428,5.441,1.134c.162-.836.324-1.678.473-2.513-1.969.428-3.945.887-5.914,1.38" transform="translate(177.185 468.988)" fill="#0e575a"/>
            </g>
          </g>
        </g>
      </g>
    </g>
  </g>
</svg>
